SplineFontDB: 3.2
FontName: Gontserrat-Bold
FullName: Gontserrat Bold
FamilyName: Gontserrat
Weight: Bold
Copyright: Gontserrat is a derivative work of Montserrat under the Open Font License, version 1.1. Copyright 2020 Gabriel Classon (gabeclasson.com). Montserrat copyright 2011 The Montserrat Project Authors (https://github.com/JulietaUla/Montserrat). 
Version: 7.222
ItalicAngle: 0
UnderlinePosition: -100
UnderlineWidth: 50
Ascent: 800
Descent: 200
InvalidEm: 0
sfntRevision: 0x00010000
LayerCount: 2
Layer: 0 1 "Back" 1
Layer: 1 1 "Fore" 0
XUID: [1021 930 -1503615855 24908]
StyleMap: 0x0020
FSType: 0
OS2Version: 4
OS2_WeightWidthSlopeOnly: 0
OS2_UseTypoMetrics: 1
CreationTime: 1485852831
ModificationTime: 1642928020
PfmFamily: 81
TTFWeight: 700
TTFWidth: 5
LineGap: 0
VLineGap: 0
Panose: 0 0 8 0 0 0 0 0 0 0
OS2TypoAscent: 968
OS2TypoAOffset: 0
OS2TypoDescent: -251
OS2TypoDOffset: 0
OS2TypoLinegap: 0
OS2WinAscent: 1177
OS2WinAOffset: 0
OS2WinDescent: 496
OS2WinDOffset: 0
HheadAscent: 968
HheadAOffset: 0
HheadDescent: -251
HheadDOffset: 0
OS2SubXSize: 650
OS2SubYSize: 600
OS2SubXOff: 0
OS2SubYOff: 75
OS2SupXSize: 650
OS2SupYSize: 600
OS2SupXOff: 0
OS2SupYOff: 350
OS2StrikeYSize: 50
OS2StrikeYPos: 324
OS2CapHeight: 701
OS2XHeight: 541
OS2Vendor: 'ULA '
OS2CodePages: 20000193.00000000
OS2UnicodeRanges: 20000007.00000001.00000000.00000000
Lookup: 1 0 0 "'rtla' Right to Left Alternates in Latin lookup 0" { "'rtla' Right to Left Alternates in Latin lookup 0 subtable"  } ['rtla' ('DFLT' <'dflt' > 'latn' <'dflt' > ) ]
Lookup: 1 0 0 "<10,2> Inferiors lookup 1" { "<10,2> Inferiors lookup 1 subtable" ("inferior") } [<10,2> ('DFLT' <'dflt' > ) 'subs' ('DFLT' <'dflt' > ) ]
Lookup: 1 0 0 "<10,1> Superiors lookup 2" { "<10,1> Superiors lookup 2 subtable" ("superior") } [<10,1> ('DFLT' <'dflt' > ) 'sups' ('DFLT' <'dflt' > ) ]
Lookup: 1 0 0 "<11,2> Diagonal Fractions lookup 3" { "<11,2> Diagonal Fractions lookup 3 subtable"  } [<11,2> ('DFLT' <'dflt' > ) 'frac' ('DFLT' <'dflt' > ) ]

StartChar: .notdef
Encoding: 65536 -1 0
Width: 587
Flags: W
LayerCount: 2
Fore
SplineSet
40 0 m 1,0,-1
 40 700 l 1,1,-1
 547 700 l 1,2,-1
 547 0 l 1,3,-1
 40 0 l 1,0,-1
120 70 m 1,4,-1
 467 70 l 1,5,-1
 467 630 l 1,6,-1
 120 630 l 1,7,-1
 120 70 l 1,4,-1
EndSplineSet
EndChar

StartChar: exclam
Encoding: 33 33 5
Width: 258
Flags: W
LayerCount: 2
Fore
SplineSet
51 697 m 1,0,-1
 220 697 l 1,1,-1
 220 518 l 1,2,-1
 189 243 l 1,3,-1
 82 243 l 1,4,-1
 51 518 l 1,5,-1
 51 697 l 1,0,-1
194 141 m 128,-1,7
 218 117 218 117 218 79 c 256,8,9
 218 41 218 41 194 16.5 c 128,-1,10
 170 -8 170 -8 132 -8 c 0,11,12
 95 -8 95 -8 71 16.5 c 128,-1,13
 47 41 47 41 47 79 c 256,14,15
 47 117 47 117 70.5 141 c 128,-1,16
 94 165 94 165 132 165 c 256,17,6
 170 165 170 165 194 141 c 128,-1,7
EndSplineSet
Substitution2: "<3,3> Small Caps in Latin lookup 11 subtable" exclam.sc
EndChar

StartChar: numbersign
Encoding: 35 35 7
Width: 736
Flags: W
LayerCount: 2
Fore
SplineSet
708 415 m 1,0,-1
 573 415 l 1,1,-1
 555 277 l 1,2,-1
 689 277 l 1,3,-1
 675 153 l 1,4,-1
 540 153 l 1,5,-1
 521 0 l 1,6,-1
 393 0 l 1,7,-1
 412 153 l 1,8,-1
 276 153 l 1,9,-1
 257 0 l 1,10,-1
 129 0 l 1,11,-1
 148 153 l 1,12,-1
 14 153 l 1,13,-1
 28 277 l 1,14,-1
 163 277 l 1,15,-1
 181 415 l 1,16,-1
 47 415 l 1,17,-1
 61 540 l 1,18,-1
 196 540 l 1,19,-1
 216 701 l 1,20,-1
 344 701 l 1,21,-1
 324 540 l 1,22,-1
 460 540 l 1,23,-1
 480 701 l 1,24,-1
 608 701 l 1,25,-1
 588 540 l 1,26,-1
 722 540 l 1,27,-1
 708 415 l 1,0,-1
427 277 m 1,28,-1
 445 415 l 1,29,-1
 309 415 l 1,30,-1
 291 277 l 1,31,-1
 427 277 l 1,28,-1
EndSplineSet
EndChar

StartChar: dollar
Encoding: 36 36 8
Width: 646
Flags: W
LayerCount: 2
Fore
SplineSet
560.5 62.5 m 128,-1,1
 500 7 500 7 401 -7 c 1,2,-1
 401 -155 l 1,3,-1
 268 -155 l 1,4,-1
 268 -6 l 1,5,6
 197 5 197 5 131.5 33 c 128,-1,7
 66 61 66 61 16 103 c 1,8,-1
 87 246 l 1,9,10
 140 199 140 199 212.5 169 c 128,-1,11
 285 139 285 139 341 139 c 0,12,13
 382 139 382 139 405.5 154 c 128,-1,14
 429 169 429 169 429 198 c 0,15,16
 429 222 429 222 411.5 238 c 128,-1,17
 394 254 394 254 367.5 263.5 c 128,-1,18
 341 273 341 273 293 286 c 0,19,20
 221 306 221 306 174 326.5 c 128,-1,21
 127 347 127 347 93.5 388.5 c 128,-1,22
 60 430 60 430 60 499 c 0,23,24
 60 583 60 583 115.5 638.5 c 128,-1,25
 171 694 171 694 268 709 c 1,26,-1
 268 851 l 1,27,-1
 401 851 l 1,28,-1
 401 711 l 1,29,30
 461 704 461 704 518 684.5 c 128,-1,31
 575 665 575 665 620 636 c 1,32,-1
 551 490 l 1,33,34
 495 523 495 523 431.5 544 c 128,-1,35
 368 565 368 565 325 565 c 0,36,37
 291 565 291 565 271.5 552.5 c 128,-1,38
 252 540 252 540 252 516 c 0,39,40
 252 493 252 493 269 477.5 c 128,-1,41
 286 462 286 462 311 452.5 c 128,-1,42
 336 443 336 443 385 428 c 0,43,44
 458 407 458 407 505.5 386 c 128,-1,45
 553 365 553 365 587 321.5 c 128,-1,46
 621 278 621 278 621 208 c 0,47,0
 621 118 621 118 560.5 62.5 c 128,-1,1
EndSplineSet
EndChar

StartChar: ampersand
Encoding: 38 38 10
Width: 688
Flags: W
LayerCount: 2
Fore
SplineSet
591 -31 m 1,0,-1
 554 5 l 2,1,2
 532 25 532 25 493 64 c 1,3,4
 402 -8 402 -8 295 -8 c 0,5,6
 227 -8 227 -8 172 18 c 128,-1,7
 117 44 117 44 86 90.5 c 128,-1,8
 55 137 55 137 55 196 c 0,9,10
 55 261 55 261 92 304.5 c 128,-1,11
 129 348 129 348 193 383 c 1,12,13
 162 427 162 427 148.5 463.5 c 128,-1,14
 135 500 135 500 135 538 c 0,15,16
 135 616 135 616 189.5 662 c 128,-1,17
 244 708 244 708 336 708 c 0,18,19
 395 708 395 708 441 688 c 128,-1,20
 487 668 487 668 512.5 632 c 128,-1,21
 538 596 538 596 538 550 c 0,22,23
 538 484 538 484 495 441 c 128,-1,24
 452 398 452 398 375 358 c 1,25,26
 414 314 414 314 481 248 c 1,27,28
 508 296 508 296 527 359 c 1,29,-1
 640 277 l 1,30,31
 614 208 614 208 577 155 c 1,32,-1
 614 120 l 1,33,-1
 681 57 l 1,34,-1
 591 -31 l 1,0,-1
308 443 m 1,36,37
 352 467 352 467 375.5 491 c 128,-1,38
 399 515 399 515 399 548 c 0,39,40
 399 574 399 574 382.5 590.5 c 128,-1,41
 366 607 366 607 338 607 c 0,42,43
 308 607 308 607 290.5 588 c 128,-1,44
 273 569 273 569 273 539 c 0,45,35
 273 497 273 497 308 443 c 1,36,37
401 154 m 1,47,48
 321 232 321 232 262 298 c 1,49,50
 232 279 232 279 216 257.5 c 128,-1,51
 200 236 200 236 200 210 c 0,52,53
 200 169 200 169 229 143.5 c 128,-1,54
 258 118 258 118 302 118 c 0,55,46
 352 118 352 118 401 154 c 1,47,48
EndSplineSet
Substitution2: "<3,3> Small Caps in Latin lookup 11 subtable" ampersand.sc
EndChar

StartChar: quotesingle
Encoding: 39 39 11
Width: 254
Flags: W
LayerCount: 2
Fore
SplineSet
60 701 m 1,0,-1
 194 701 l 1,1,-1
 194 423 l 1,2,-1
 60 423 l 1,3,-1
 60 701 l 1,0,-1
EndSplineSet
Substitution2: "<3,3> Small Caps in Latin lookup 11 subtable" quotesingle.sc
EndChar

StartChar: parenleft
Encoding: 40 40 12
Width: 345
Flags: W
LayerCount: 2
Fore
SplineSet
256 539 m 128,-1,1
 224 427 224 427 224 309 c 256,2,3
 224 191 224 191 256 79 c 128,-1,4
 288 -33 288 -33 345 -124 c 1,5,-1
 185 -124 l 1,6,7
 123 -36 123 -36 90 75.5 c 128,-1,8
 57 187 57 187 57 309 c 256,9,10
 57 431 57 431 90 542.5 c 128,-1,11
 123 654 123 654 185 742 c 1,12,-1
 345 742 l 1,13,0
 288 651 288 651 256 539 c 128,-1,1
EndSplineSet
Substitution2: "'rtla' Right to Left Alternates in Latin lookup 0 subtable" parenright
EndChar

StartChar: parenright
Encoding: 41 41 13
Width: 345
Flags: W
LayerCount: 2
Fore
SplineSet
160 742 m 1,0,1
 222 654 222 654 255 542.5 c 128,-1,2
 288 431 288 431 288 309 c 256,3,4
 288 187 288 187 255 75.5 c 128,-1,5
 222 -36 222 -36 160 -124 c 1,6,-1
 0 -124 l 1,7,8
 57 -33 57 -33 89 79 c 128,-1,9
 121 191 121 191 121 309 c 256,10,11
 121 427 121 427 89 539 c 128,-1,12
 57 651 57 651 0 742 c 1,13,-1
 160 742 l 1,0,1
EndSplineSet
Substitution2: "'rtla' Right to Left Alternates in Latin lookup 0 subtable" parenleft
EndChar

StartChar: asterisk
Encoding: 42 42 14
Width: 381
Flags: W
LayerCount: 2
Fore
SplineSet
146 719 m 1,0,-1
 235 719 l 1,1,-1
 233 625 l 1,2,-1
 314 673 l 1,3,-1
 359 595 l 1,4,-1
 275 550 l 1,5,-1
 359 504 l 1,6,-1
 314 425 l 1,7,-1
 233 474 l 1,8,-1
 235 380 l 1,9,-1
 146 380 l 1,10,-1
 148 475 l 1,11,-1
 67 426 l 1,12,-1
 22 504 l 1,13,-1
 105 550 l 1,14,-1
 22 595 l 1,15,-1
 67 674 l 1,16,-1
 148 625 l 1,17,-1
 146 719 l 1,0,-1
EndSplineSet
EndChar

StartChar: plus
Encoding: 43 43 15
Width: 511
Flags: W
LayerCount: 2
Fore
SplineSet
478 384 m 1,0,-1
 478 270 l 1,1,-1
 312 270 l 1,2,-1
 312 104 l 1,3,-1
 199 104 l 1,4,-1
 199 270 l 1,5,-1
 32 270 l 1,6,-1
 32 384 l 1,7,-1
 199 384 l 1,8,-1
 199 551 l 1,9,-1
 312 551 l 1,10,-1
 312 384 l 1,11,-1
 478 384 l 1,0,-1
EndSplineSet
EndChar

StartChar: comma
Encoding: 44 44 16
Width: 243
Flags: W
LayerCount: 2
Fore
SplineSet
183.5 141.5 m 128,-1,1
 208 119 208 119 208 79 c 0,2,3
 208 49 208 49 185 11 c 2,4,-1
 105 -122 l 1,5,-1
 20 -122 l 1,6,-1
 72 11 l 1,7,8
 38 35 38 35 38 79 c 0,9,10
 38 116 38 116 62 140 c 128,-1,11
 86 164 86 164 123 164 c 0,12,0
 159 164 159 164 183.5 141.5 c 128,-1,1
EndSplineSet
EndChar

StartChar: hyphen
Encoding: 45 45 17
Width: 375
Flags: W
LayerCount: 2
Fore
SplineSet
55 364 m 1,0,-1
 320 364 l 1,1,-1
 320 250 l 1,2,-1
 55 250 l 1,3,-1
 55 364 l 1,0,-1
EndSplineSet
EndChar

StartChar: period
Encoding: 46 46 18
Width: 245
Flags: W
LayerCount: 2
Fore
SplineSet
184 141 m 128,-1,1
 208 117 208 117 208 79 c 256,2,3
 208 41 208 41 184 16.5 c 128,-1,4
 160 -8 160 -8 122 -8 c 0,5,6
 85 -8 85 -8 61 16.5 c 128,-1,7
 37 41 37 41 37 79 c 256,8,9
 37 117 37 117 60.5 141 c 128,-1,10
 84 165 84 165 122 165 c 256,11,0
 160 165 160 165 184 141 c 128,-1,1
EndSplineSet
Substitution2: "<3,3> Small Caps in Latin lookup 11 subtable" period.sc
EndChar

StartChar: slash
Encoding: 47 47 19
Width: 355
Flags: W
LayerCount: 2
Fore
SplineSet
286 810 m 1,0,-1
 436 810 l 1,1,-1
 112 -110 l 1,2,-1
 -38 -110 l 1,3,-1
 286 810 l 1,0,-1
EndSplineSet
Substitution2: "<11,2> Diagonal Fractions lookup 3 subtable" fraction
EndChar

StartChar: zero
Encoding: 48 48 20
Width: 703
Flags: W
LayerCount: 2
Fore
SplineSet
582.5 615 m 128,-1,1
 663 523 663 523 663 351 c 256,2,3
 663 179 663 179 582.5 86.5 c 128,-1,4
 502 -6 502 -6 353 -6 c 0,5,6
 202 -6 202 -6 121.5 86.5 c 128,-1,7
 41 179 41 179 41 351 c 256,8,9
 41 523 41 523 121.5 615 c 128,-1,10
 202 707 202 707 353 707 c 0,11,0
 502 707 502 707 582.5 615 c 128,-1,1
258 519.5 m 128,-1,13
 229 468 229 468 229 351 c 0,14,15
 229 233 229 233 258 181.5 c 128,-1,16
 287 130 287 130 353 130 c 0,17,18
 417 130 417 130 446.5 182 c 128,-1,19
 476 234 476 234 476 351 c 256,20,21
 476 468 476 468 446.5 519.5 c 128,-1,22
 417 571 417 571 353 571 c 0,23,12
 287 571 287 571 258 519.5 c 128,-1,13
EndSplineSet
Substitution2: "<21,0> Lower Case Numbers lookup 10 subtable" zero.osf
Substitution2: "<6,0> Monospaced Numbers lookup 9 subtable" zero.tf
Substitution2: "<11,2> Diagonal Fractions lookup 4 subtable" zero.numr
Substitution2: "<10,1> Superiors lookup 2 subtable" uni2070
Substitution2: "<10,2> Inferiors lookup 1 subtable" uni2080
EndChar

StartChar: one
Encoding: 49 49 21
Width: 404
Flags: W
LayerCount: 2
Fore
SplineSet
-15 701 m 1,0,-1
 303 701 l 1,1,-1
 303 0 l 1,2,-1
 120 0 l 1,3,-1
 120 551 l 1,4,-1
 -15 551 l 1,5,-1
 -15 701 l 1,0,-1
EndSplineSet
Substitution2: "<21,0> Lower Case Numbers lookup 10 subtable" one.osf
Substitution2: "<6,0> Monospaced Numbers lookup 9 subtable" one.tf
Substitution2: "<11,2> Diagonal Fractions lookup 4 subtable" one.numr
Substitution2: "<10,1> Superiors lookup 2 subtable" uni00B9
Substitution2: "<10,2> Inferiors lookup 1 subtable" uni2081
EndChar

StartChar: two
Encoding: 50 50 22
Width: 605
Flags: W
LayerCount: 2
Fore
SplineSet
572 147 m 1,0,-1
 572 0 l 1,1,-1
 38 0 l 1,2,-1
 37 121 l 1,3,-1
 292 383 l 2,4,5
 322 414 322 414 341 445 c 128,-1,6
 360 476 360 476 360 498 c 0,7,8
 360 527 360 527 339 542.5 c 128,-1,9
 318 558 318 558 280 558 c 0,10,11
 238 558 238 558 186.5 534.5 c 128,-1,12
 135 511 135 511 87 469 c 1,13,-1
 17 604 l 1,14,15
 162 709 162 709 308 709 c 0,16,17
 378 709 378 709 433.5 686 c 128,-1,18
 489 663 489 663 520.5 621 c 128,-1,19
 552 579 552 579 552 525 c 256,20,21
 552 471 552 471 516.5 413.5 c 128,-1,22
 481 356 481 356 416 291 c 2,23,-1
 273 147 l 1,24,-1
 572 147 l 1,0,-1
EndSplineSet
Substitution2: "<21,0> Lower Case Numbers lookup 10 subtable" two.osf
Substitution2: "<6,0> Monospaced Numbers lookup 9 subtable" two.tf
Substitution2: "<11,2> Diagonal Fractions lookup 4 subtable" two.numr
Substitution2: "<10,1> Superiors lookup 2 subtable" uni00B2
Substitution2: "<10,2> Inferiors lookup 1 subtable" uni2082
EndChar

StartChar: three
Encoding: 51 51 23
Width: 603
Flags: W
LayerCount: 2
Fore
SplineSet
518.5 350.5 m 128,-1,1
 570 300 570 300 570 221 c 0,2,3
 570 154 570 154 535 102 c 128,-1,4
 500 50 500 50 436 21 c 128,-1,5
 372 -8 372 -8 286 -8 c 0,6,7
 209 -8 209 -8 134.5 15.5 c 128,-1,8
 60 39 60 39 9 78 c 1,9,-1
 77 207 l 1,10,11
 121 170 121 170 171 151 c 128,-1,12
 221 132 221 132 271 132 c 0,13,14
 329 132 329 132 360 154.5 c 128,-1,15
 391 177 391 177 391 219 c 256,16,17
 391 261 391 261 360 283 c 128,-1,18
 329 305 329 305 270 305 c 2,19,-1
 152 305 l 1,20,-1
 152 405 l 1,21,-1
 314 561 l 1,22,-1
 46 561 l 1,23,-1
 46 701 l 1,24,-1
 536 701 l 1,25,-1
 536 595 l 1,26,-1
 345 420 l 1,27,-1
 382 413 l 1,28,0
 467 401 467 401 518.5 350.5 c 128,-1,1
EndSplineSet
Substitution2: "<21,0> Lower Case Numbers lookup 10 subtable" three.osf
Substitution2: "<6,0> Monospaced Numbers lookup 9 subtable" three.tf
Substitution2: "<11,2> Diagonal Fractions lookup 4 subtable" three.numr
Substitution2: "<10,1> Superiors lookup 2 subtable" uni00B3
Substitution2: "<10,2> Inferiors lookup 1 subtable" uni2083
EndChar

StartChar: four
Encoding: 52 52 24
Width: 607
Flags: W
LayerCount: 2
Fore
SplineSet
574 290 m 1,0,-1
 574 151 l 1,1,-1
 484 151 l 1,2,-1
 484 0 l 1,3,-1
 316 0 l 1,4,-1
 316 151 l 1,5,-1
 -1 151 l 1,6,-1
 -1 275 l 1,7,-1
 198 701 l 1,8,-1
 372 701 l 1,9,-1
 185 290 l 1,10,-1
 316 290 l 1,11,-1
 316 439 l 1,12,-1
 484 439 l 1,13,-1
 484 290 l 1,14,-1
 574 290 l 1,0,-1
EndSplineSet
Substitution2: "<21,0> Lower Case Numbers lookup 10 subtable" four.osf
Substitution2: "<6,0> Monospaced Numbers lookup 9 subtable" four.tf
Substitution2: "<11,2> Diagonal Fractions lookup 4 subtable" four.numr
Substitution2: "<10,1> Superiors lookup 2 subtable" uni2074
Substitution2: "<10,2> Inferiors lookup 1 subtable" uni2084
EndChar

StartChar: five
Encoding: 53 53 25
Width: 625
Flags: W
LayerCount: 2
Fore
SplineSet
462.5 420 m 128,-1,1
 524 393 524 393 557.5 345 c 128,-1,2
 591 297 591 297 591 235 c 0,3,4
 591 162 591 162 556 107 c 128,-1,5
 521 52 521 52 456 22 c 128,-1,6
 391 -8 391 -8 305 -8 c 0,7,8
 235 -8 235 -8 160.5 16 c 128,-1,9
 86 40 86 40 28 79 c 1,10,-1
 96 211 l 1,11,12
 193 133 193 133 285 133 c 0,13,14
 337 133 337 133 366 156.5 c 128,-1,15
 395 180 395 180 395 221 c 256,16,17
 395 262 395 262 366.5 283.5 c 128,-1,18
 338 305 338 305 281 305 c 0,19,20
 148 305 148 305 89 301 c 1,21,-1
 89 701 l 1,22,-1
 560 701 l 1,23,-1
 560 554 l 1,24,-1
 257 554 l 1,25,-1
 257 447 l 1,26,-1
 320 447 l 2,27,0
 401 447 401 447 462.5 420 c 128,-1,1
EndSplineSet
Substitution2: "<21,0> Lower Case Numbers lookup 10 subtable" five.osf
Substitution2: "<6,0> Monospaced Numbers lookup 9 subtable" five.tf
Substitution2: "<11,2> Diagonal Fractions lookup 4 subtable" five.numr
Substitution2: "<10,1> Superiors lookup 2 subtable" uni2075
Substitution2: "<10,2> Inferiors lookup 1 subtable" uni2085
EndChar

StartChar: six
Encoding: 54 54 26
Width: 630
Flags: W
LayerCount: 2
Fore
SplineSet
432.5 558.5 m 128,-1,1
 395 570 395 570 355 570 c 0,2,3
 274 570 274 570 233.5 521.5 c 128,-1,4
 193 473 193 473 195 386 c 1,5,6
 248 461 248 461 358 461 c 0,7,8
 425 461 425 461 475.5 432.5 c 128,-1,9
 526 404 526 404 553.5 352.5 c 128,-1,10
 581 301 581 301 581 233 c 0,11,12
 581 160 581 160 549 105.5 c 128,-1,13
 517 51 517 51 458.5 21.5 c 128,-1,14
 400 -8 400 -8 323 -8 c 0,15,16
 231 -8 231 -8 164 34 c 128,-1,17
 97 76 97 76 61 154.5 c 128,-1,18
 25 233 25 233 25 339 c 0,19,20
 25 450 25 450 64.5 534 c 128,-1,21
 104 618 104 618 176 663.5 c 128,-1,22
 248 709 248 709 344 709 c 0,23,24
 402 709 402 709 462.5 693 c 128,-1,25
 523 677 523 677 567 651 c 1,26,-1
 499 525 l 1,27,0
 470 547 470 547 432.5 558.5 c 128,-1,1
241.5 302.5 m 128,-1,29
 214 275 214 275 214 232 c 0,30,31
 214 190 214 190 240 163 c 128,-1,32
 266 136 266 136 316 136 c 0,33,34
 363 136 363 136 390 161.5 c 128,-1,35
 417 187 417 187 417 234 c 0,36,37
 417 279 417 279 391 304.5 c 128,-1,38
 365 330 365 330 319 330 c 0,39,28
 269 330 269 330 241.5 302.5 c 128,-1,29
EndSplineSet
Substitution2: "<21,0> Lower Case Numbers lookup 10 subtable" six.osf
Substitution2: "<6,0> Monospaced Numbers lookup 9 subtable" six.tf
Substitution2: "<11,2> Diagonal Fractions lookup 4 subtable" six.numr
Substitution2: "<10,1> Superiors lookup 2 subtable" uni2076
Substitution2: "<10,2> Inferiors lookup 1 subtable" uni2086
EndChar

StartChar: seven
Encoding: 55 55 27
Width: 589
Flags: W
LayerCount: 2
Fore
SplineSet
13 701 m 1,0,-1
 572 701 l 1,1,-1
 572 574 l 1,2,-1
 308 0 l 1,3,-1
 114 0 l 1,4,-1
 369 554 l 1,5,-1
 175 554 l 1,6,-1
 174 455 l 1,7,-1
 13 455 l 1,8,-1
 13 701 l 1,0,-1
EndSplineSet
Substitution2: "<21,0> Lower Case Numbers lookup 10 subtable" seven.osf
Substitution2: "<6,0> Monospaced Numbers lookup 9 subtable" seven.tf
Substitution2: "<11,2> Diagonal Fractions lookup 4 subtable" seven.numr
Substitution2: "<10,1> Superiors lookup 2 subtable" uni2077
Substitution2: "<10,2> Inferiors lookup 1 subtable" uni2087
EndChar

StartChar: eight
Encoding: 56 56 28
Width: 631
Flags: W
LayerCount: 2
Fore
SplineSet
482 657.5 m 128,-1,1
 549 606 549 606 549 519 c 0,2,3
 549 475 549 475 526.5 436.5 c 128,-1,4
 504 398 504 398 466 375 c 1,5,6
 521 350 521 350 553 302.5 c 128,-1,7
 585 255 585 255 585 197 c 0,8,9
 585 135 585 135 550.5 88.5 c 128,-1,10
 516 42 516 42 452 17 c 128,-1,11
 388 -8 388 -8 303 -8 c 256,12,13
 218 -8 218 -8 154.5 17 c 128,-1,14
 91 42 91 42 56 87.5 c 128,-1,15
 21 133 21 133 21 194 c 0,16,17
 21 253 21 253 56 301.5 c 128,-1,18
 91 350 91 350 149 375 c 1,19,20
 107 400 107 400 82 440 c 128,-1,21
 57 480 57 480 57 524 c 0,22,23
 57 580 57 580 87 622 c 128,-1,24
 117 664 117 664 172.5 686.5 c 128,-1,25
 228 709 228 709 302 709 c 0,26,0
 415 709 415 709 482 657.5 c 128,-1,1
233.5 566 m 128,-1,28
 209 546 209 546 209 509 c 0,29,30
 209 473 209 473 233.5 453.5 c 128,-1,31
 258 434 258 434 303 434 c 0,32,33
 349 434 349 434 373 453.5 c 128,-1,34
 397 473 397 473 397 509 c 0,35,36
 397 546 397 546 373 566 c 128,-1,37
 349 586 349 586 303 586 c 0,38,27
 258 586 258 586 233.5 566 c 128,-1,28
221.5 277.5 m 128,-1,40
 193 255 193 255 193 213 c 256,41,42
 193 171 193 171 221.5 148.5 c 128,-1,43
 250 126 250 126 303 126 c 256,44,45
 356 126 356 126 385 148.5 c 128,-1,46
 414 171 414 171 414 213 c 256,47,48
 414 255 414 255 385 277.5 c 128,-1,49
 356 300 356 300 303 300 c 256,50,39
 250 300 250 300 221.5 277.5 c 128,-1,40
EndSplineSet
Substitution2: "<21,0> Lower Case Numbers lookup 10 subtable" eight.osf
Substitution2: "<6,0> Monospaced Numbers lookup 9 subtable" eight.tf
Substitution2: "<11,2> Diagonal Fractions lookup 4 subtable" eight.numr
Substitution2: "<10,1> Superiors lookup 2 subtable" uni2078
Substitution2: "<10,2> Inferiors lookup 1 subtable" uni2088
EndChar

StartChar: nine
Encoding: 57 57 29
Width: 629
Flags: W
LayerCount: 2
Fore
SplineSet
172 142.5 m 128,-1,1
 209 131 209 131 249 131 c 0,2,3
 329 131 329 131 370 179.5 c 128,-1,4
 411 228 411 228 409 316 c 1,5,6
 356 240 356 240 246 240 c 0,7,8
 179 240 179 240 129 268.5 c 128,-1,9
 79 297 79 297 51.5 348.5 c 128,-1,10
 24 400 24 400 24 468 c 0,11,12
 24 541 24 541 56 595.5 c 128,-1,13
 88 650 88 650 146 679.5 c 128,-1,14
 204 709 204 709 281 709 c 0,15,16
 373 709 373 709 440 667 c 128,-1,17
 507 625 507 625 543 547 c 128,-1,18
 579 469 579 469 579 362 c 0,19,20
 579 251 579 251 539.5 167 c 128,-1,21
 500 83 500 83 428 37.5 c 128,-1,22
 356 -8 356 -8 260 -8 c 0,23,24
 202 -8 202 -8 142 8 c 128,-1,25
 82 24 82 24 38 50 c 1,26,-1
 105 176 l 1,27,0
 135 154 135 154 172 142.5 c 128,-1,1
215 539.5 m 128,-1,29
 189 514 189 514 189 467 c 0,30,31
 189 422 189 422 214 396.5 c 128,-1,32
 239 371 239 371 285 371 c 0,33,34
 335 371 335 371 362.5 398.5 c 128,-1,35
 390 426 390 426 390 470 c 0,36,37
 390 511 390 511 364 538 c 128,-1,38
 338 565 338 565 288 565 c 0,39,28
 241 565 241 565 215 539.5 c 128,-1,29
EndSplineSet
Substitution2: "<21,0> Lower Case Numbers lookup 10 subtable" nine.osf
Substitution2: "<6,0> Monospaced Numbers lookup 9 subtable" nine.tf
Substitution2: "<11,2> Diagonal Fractions lookup 4 subtable" nine.numr
Substitution2: "<10,1> Superiors lookup 2 subtable" uni2079
Substitution2: "<10,2> Inferiors lookup 1 subtable" uni2089
EndChar

StartChar: less
Encoding: 60 60 32
Width: 511
Flags: W
LayerCount: 2
Fore
SplineSet
478 582 m 1,0,-1
 478 455 l 1,1,-1
 147 324 l 1,2,-1
 478 193 l 1,3,-1
 478 66 l 1,4,-1
 32 251 l 1,5,-1
 32 397 l 1,6,-1
 478 582 l 1,0,-1
EndSplineSet
Substitution2: "'rtla' Right to Left Alternates in Latin lookup 0 subtable" greater
EndChar

StartChar: equal
Encoding: 61 61 33
Width: 511
Flags: W
LayerCount: 2
Fore
SplineSet
32 492 m 1,0,-1
 478 492 l 1,1,-1
 478 378 l 1,2,-1
 32 378 l 1,3,-1
 32 492 l 1,0,-1
32 276 m 1,4,-1
 478 276 l 1,5,-1
 478 162 l 1,6,-1
 32 162 l 1,7,-1
 32 276 l 1,4,-1
EndSplineSet
EndChar

StartChar: greater
Encoding: 62 62 34
Width: 511
Flags: W
LayerCount: 2
Fore
SplineSet
33 74 m 1,0,-1
 33 201 l 1,1,-1
 364 332 l 1,2,-1
 33 463 l 1,3,-1
 33 590 l 1,4,-1
 479 405 l 1,5,-1
 479 259 l 1,6,-1
 33 74 l 1,0,-1
EndSplineSet
Substitution2: "'rtla' Right to Left Alternates in Latin lookup 0 subtable" less
EndChar

StartChar: question
Encoding: 63 63 35
Width: 474
Flags: W
LayerCount: 2
Fore
SplineSet
84 643 m 128,-1,1
 145 704 145 704 252 704 c 0,2,3
 353 704 353 704 411 658 c 128,-1,4
 469 612 469 612 469 529 c 0,5,6
 469 476 469 476 445 441 c 128,-1,7
 421 406 421 406 375 366 c 0,8,9
 335 330 335 330 316 303.5 c 128,-1,10
 297 277 297 277 297 240 c 1,11,-1
 164 240 l 1,12,13
 164 280 164 280 175.5 310 c 128,-1,14
 187 340 187 340 203.5 359.5 c 128,-1,15
 220 379 220 379 246 404 c 0,16,17
 275 431 275 431 289 451.5 c 128,-1,18
 303 472 303 472 303 500 c 0,19,20
 303 561 303 561 235 561 c 0,21,22
 160 561 160 561 159 472 c 1,23,-1
 22 473 l 1,24,0
 23 582 23 582 84 643 c 128,-1,1
289 141 m 128,-1,26
 313 117 313 117 313 79 c 256,27,28
 313 41 313 41 289 16.5 c 128,-1,29
 265 -8 265 -8 227 -8 c 0,30,31
 190 -8 190 -8 166 16.5 c 128,-1,32
 142 41 142 41 142 79 c 256,33,34
 142 117 142 117 165.5 141 c 128,-1,35
 189 165 189 165 227 165 c 256,36,25
 265 165 265 165 289 141 c 128,-1,26
EndSplineSet
Substitution2: "<3,3> Small Caps in Latin lookup 11 subtable" question.sc
EndChar

StartChar: at
Encoding: 64 64 36
Width: 912
Flags: W
LayerCount: 2
Fore
SplineSet
709 110 m 0,1,2
 730 110 730 110 749 130.5 c 128,-1,3
 768 151 768 151 779.5 188 c 128,-1,4
 791 225 791 225 791 271 c 0,5,6
 791 367 791 367 751.5 443.5 c 128,-1,7
 712 520 712 520 637.5 564.5 c 128,-1,8
 563 609 563 609 462 609 c 0,9,10
 370 609 370 609 291.5 563 c 128,-1,11
 213 517 213 517 167.5 439 c 128,-1,12
 122 361 122 361 122 268 c 0,13,14
 122 176 122 176 165 102 c 128,-1,15
 208 28 208 28 283 -14 c 128,-1,16
 358 -56 358 -56 450 -56 c 0,17,18
 496 -56 496 -56 547 -40.5 c 128,-1,19
 598 -25 598 -25 638 5 c 1,20,-1
 684 -75 l 1,21,22
 641 -108 641 -108 575 -128.5 c 128,-1,23
 509 -149 509 -149 450 -149 c 0,24,25
 330 -149 330 -149 232.5 -94.5 c 128,-1,26
 135 -40 135 -40 79 55 c 128,-1,27
 23 150 23 150 23 268 c 0,28,29
 23 388 23 388 81.5 486.5 c 128,-1,30
 140 585 140 585 240.5 642.5 c 128,-1,31
 341 700 341 700 462 700 c 256,32,33
 583 700 583 700 680.5 645 c 128,-1,34
 778 590 778 590 833.5 492.5 c 128,-1,35
 889 395 889 395 889 274 c 0,36,37
 889 201 889 201 864.5 145.5 c 128,-1,38
 840 90 840 90 796 59.5 c 128,-1,39
 752 29 752 29 697 29 c 0,40,41
 650 29 650 29 619.5 48 c 128,-1,42
 589 67 589 67 580 106 c 2,43,-1
 578 118 l 1,44,45
 550 78 550 78 511.5 58.5 c 128,-1,46
 473 39 473 39 429 39 c 0,47,48
 373 39 373 39 322.5 68 c 128,-1,49
 272 97 272 97 241.5 150 c 128,-1,50
 211 203 211 203 211 270 c 0,51,52
 211 334 211 334 236.5 388 c 128,-1,53
 262 442 262 442 308.5 473.5 c 128,-1,54
 355 505 355 505 415 505 c 0,55,56
 451 505 451 505 480 492.5 c 128,-1,57
 509 480 509 480 527.5 465 c 128,-1,58
 546 450 546 450 549 443 c 1,59,-1
 549 494 l 1,60,-1
 672 494 l 1,61,-1
 672 159 l 2,62,0
 672 110 672 110 709 110 c 0,1,2
372.5 357 m 128,-1,64
 346 323 346 323 346 275 c 0,65,66
 346 224 346 224 372.5 187.5 c 128,-1,67
 399 151 399 151 442 151 c 0,68,69
 487 151 487 151 514 186.5 c 128,-1,70
 541 222 541 222 541 274 c 0,71,72
 541 324 541 324 513.5 357.5 c 128,-1,73
 486 391 486 391 440 391 c 0,74,63
 399 391 399 391 372.5 357 c 128,-1,64
EndSplineSet
EndChar

StartChar: A
Encoding: 65 65 37
Width: 773
Flags: W
LayerCount: 2
Fore
SplineSet
583 0 m 1,0,-1
 535 124 l 1,1,-1
 232 124 l 1,2,-1
 183 0 l 1,3,-1
 -5 0 l 1,4,-1
 296 701 l 1,5,-1
 484 701 l 1,6,-1
 778 0 l 1,7,-1
 583 0 l 1,0,-1
287 264 m 1,8,-1
 481 264 l 1,9,-1
 385 514 l 1,10,-1
 287 264 l 1,8,-1
EndSplineSet
Substitution2: "<11,2> Diagonal Fractions lookup 7 nested-substitutions 0 subtable" ordfeminine
Substitution2: "<11,2> Diagonal Fractions lookup 5 nested-substitutions 0 subtable" ordfeminine
EndChar

StartChar: B
Encoding: 66 66 38
Width: 716
Flags: W
LayerCount: 2
Fore
SplineSet
538.5 679.5 m 128,-1,1
 597 658 597 658 629 618 c 128,-1,2
 661 578 661 578 661 524 c 0,3,4
 661 469 661 469 628.5 428 c 128,-1,5
 596 387 596 387 540 372 c 1,6,7
 607 359 607 359 645.5 311 c 128,-1,8
 684 263 684 263 684 195 c 0,9,10
 684 136 684 136 651 91.5 c 128,-1,11
 618 47 618 47 557 23.5 c 128,-1,12
 496 0 496 0 414 0 c 2,13,-1
 68 0 l 1,14,-1
 68 701 l 1,15,-1
 401 701 l 2,16,0
 480 701 480 701 538.5 679.5 c 128,-1,1
451 440.5 m 128,-1,18
 473 459 473 459 473 492 c 0,19,20
 473 524 473 524 451 541.5 c 128,-1,21
 429 559 429 559 391 558 c 2,22,-1
 251 558 l 1,23,-1
 251 422 l 1,24,-1
 391 422 l 2,25,17
 429 422 429 422 451 440.5 c 128,-1,18
467 162 m 128,-1,27
 495 182 495 182 495 218 c 0,28,29
 495 251 495 251 467 270.5 c 128,-1,30
 439 290 439 290 391 289 c 2,31,-1
 251 289 l 1,32,-1
 251 142 l 1,33,-1
 391 142 l 2,34,26
 439 142 439 142 467 162 c 128,-1,27
EndSplineSet
EndChar

StartChar: C
Encoding: 67 67 39
Width: 692
Flags: W
LayerCount: 2
Fore
SplineSet
494 531.5 m 128,-1,1
 447 557 447 557 401 557 c 0,2,3
 348 557 348 557 304.5 530.5 c 128,-1,4
 261 504 261 504 236 457.5 c 128,-1,5
 211 411 211 411 211 354 c 256,6,7
 211 297 211 297 236 250.5 c 128,-1,8
 261 204 261 204 304.5 177.5 c 128,-1,9
 348 151 348 151 401 151 c 0,10,11
 444 151 444 151 491 173 c 128,-1,12
 538 195 538 195 575 233 c 1,13,-1
 682 118 l 1,14,15
 625 58 625 58 546.5 22.5 c 128,-1,16
 468 -13 468 -13 391 -13 c 0,17,18
 287 -13 287 -13 203 35 c 128,-1,19
 119 83 119 83 71 166 c 128,-1,20
 23 249 23 249 23 352 c 0,21,22
 23 454 23 454 72 536 c 128,-1,23
 121 618 121 618 206.5 665 c 128,-1,24
 292 712 292 712 398 712 c 0,25,26
 476 712 476 712 552 679.5 c 128,-1,27
 628 647 628 647 681 591 c 1,28,-1
 575 463 l 1,29,0
 541 506 541 506 494 531.5 c 128,-1,1
EndSplineSet
EndChar

StartChar: D
Encoding: 68 68 40
Width: 766
Flags: W
LayerCount: 2
Fore
SplineSet
564.5 657 m 128,-1,1
 649 613 649 613 696 533.5 c 128,-1,2
 743 454 743 454 743 351 c 256,3,4
 743 248 743 248 695.5 168 c 128,-1,5
 648 88 648 88 561.5 44 c 128,-1,6
 475 0 475 0 363 0 c 2,7,-1
 68 0 l 1,8,-1
 68 701 l 1,9,-1
 370 701 l 2,10,0
 480 701 480 701 564.5 657 c 128,-1,1
469 173 m 128,-1,12
 510 198 510 198 533 244 c 128,-1,13
 556 290 556 290 556 349 c 0,14,15
 556 409 556 409 531.5 455 c 128,-1,16
 507 501 507 501 464 526.5 c 128,-1,17
 421 552 421 552 366 552 c 2,18,-1
 251 552 l 1,19,-1
 251 148 l 1,20,-1
 375 148 l 2,21,11
 428 148 428 148 469 173 c 128,-1,12
EndSplineSet
EndChar

StartChar: E
Encoding: 69 69 41
Width: 675
Flags: W
LayerCount: 2
Fore
SplineSet
68 701 m 1,0,-1
 621 701 l 1,1,-1
 621 555 l 1,2,-1
 251 555 l 1,3,-1
 251 424 l 1,4,-1
 585 424 l 1,5,-1
 585 279 l 1,6,-1
 251 278 l 1,7,-1
 251 146 l 1,8,-1
 631 146 l 1,9,-1
 631 0 l 1,10,-1
 68 0 l 1,11,-1
 68 701 l 1,0,-1
EndSplineSet
EndChar

StartChar: F
Encoding: 70 70 42
Width: 607
Flags: W
LayerCount: 2
Fore
SplineSet
68 701 m 1,0,-1
 592 701 l 1,1,-1
 591 555 l 1,2,-1
 251 555 l 1,3,-1
 251 399 l 1,4,-1
 565 399 l 1,5,-1
 565 253 l 1,6,-1
 251 253 l 1,7,-1
 251 0 l 1,8,-1
 68 0 l 1,9,-1
 68 701 l 1,0,-1
EndSplineSet
EndChar

StartChar: G
Encoding: 71 71 43
Width: 743
Flags: W
LayerCount: 2
Fore
SplineSet
409 411 m 1,0,-1
 698 411 l 1,1,-1
 698 79 l 1,2,3
 642 38 642 38 556.5 12.5 c 128,-1,4
 471 -13 471 -13 398 -13 c 0,5,6
 292 -13 292 -13 206.5 34.5 c 128,-1,7
 121 82 121 82 72 165 c 128,-1,8
 23 248 23 248 23 351 c 0,9,10
 23 453 23 453 73.5 535.5 c 128,-1,11
 124 618 124 618 212.5 665 c 128,-1,12
 301 712 301 712 410 712 c 0,13,14
 488 712 488 712 562 683.5 c 128,-1,15
 636 655 636 655 690 607 c 1,16,-1
 586 479 l 1,17,18
 548 515 548 515 502.5 536 c 128,-1,19
 457 557 457 557 409 557 c 0,20,21
 353 557 353 557 308 530 c 128,-1,22
 263 503 263 503 237 456 c 128,-1,23
 211 409 211 409 211 351 c 0,24,25
 211 292 211 292 237 244.5 c 128,-1,26
 263 197 263 197 309 170 c 128,-1,27
 355 143 355 143 411 143 c 0,28,29
 464 143 464 143 532 177 c 1,30,-1
 532 245 l 1,31,-1
 409 245 l 1,32,-1
 409 411 l 1,0,-1
EndSplineSet
EndChar

StartChar: H
Encoding: 72 72 44
Width: 785
Flags: W
LayerCount: 2
Fore
SplineSet
68 701 m 1,0,-1
 251 701 l 1,1,-1
 251 415 l 1,2,-1
 534 415 l 1,3,-1
 534 701 l 1,4,-1
 717 701 l 1,5,-1
 717 0 l 1,6,-1
 534 0 l 1,7,-1
 534 269 l 1,8,-1
 251 269 l 1,9,-1
 251 0 l 1,10,-1
 68 0 l 1,11,-1
 68 701 l 1,0,-1
EndSplineSet
EndChar

StartChar: I
Encoding: 73 73 45
Width: 319
Flags: W
LayerCount: 2
Fore
SplineSet
68 701 m 1,0,-1
 251 701 l 1,1,-1
 251 0 l 1,2,-1
 68 0 l 1,3,-1
 68 701 l 1,0,-1
EndSplineSet
EndChar

StartChar: J
Encoding: 74 74 46
Width: 539
Flags: W
LayerCount: 2
Fore
SplineSet
417.5 54 m 128,-1,1
 352 -8 352 -8 239 -8 c 0,2,3
 92 -8 92 -8 -5 105 c 1,4,-1
 79 230 l 1,5,6
 116 192 116 192 155 171.5 c 128,-1,7
 194 151 194 151 226 151 c 0,8,9
 260 151 260 151 279.5 172 c 128,-1,10
 299 193 299 193 299 232 c 2,11,-1
 299 550 l 1,12,-1
 59 550 l 1,13,-1
 59 701 l 1,14,-1
 483 701 l 1,15,-1
 483 228 l 2,16,0
 483 116 483 116 417.5 54 c 128,-1,1
EndSplineSet
EndChar

StartChar: K
Encoding: 75 75 47
Width: 749
Flags: W
LayerCount: 2
Fore
SplineSet
742 0 m 1,0,-1
 523 0 l 1,1,-1
 339 272 l 1,2,-1
 251 174 l 1,3,-1
 251 0 l 1,4,-1
 68 0 l 1,5,-1
 68 701 l 1,6,-1
 251 701 l 1,7,-1
 251 397 l 1,8,-1
 514 701 l 1,9,-1
 726 701 l 1,10,-1
 466 412 l 1,11,-1
 742 0 l 1,0,-1
EndSplineSet
EndChar

StartChar: L
Encoding: 76 76 48
Width: 563
Flags: W
LayerCount: 2
Fore
SplineSet
68 701 m 1,0,-1
 251 701 l 1,1,-1
 251 156 l 1,2,-1
 548 156 l 1,3,-1
 548 0 l 1,4,-1
 68 0 l 1,5,-1
 68 701 l 1,0,-1
EndSplineSet
EndChar

StartChar: M
Encoding: 77 77 49
Width: 939
Flags: W
LayerCount: 2
Fore
SplineSet
68 701 m 1,0,-1
 267 701 l 1,1,-1
 470 291 l 1,2,-1
 672 701 l 1,3,-1
 871 701 l 1,4,-1
 871 0 l 1,5,-1
 709 0 l 1,6,-1
 708 444 l 1,7,-1
 529 70 l 1,8,-1
 411 70 l 1,9,-1
 231 444 l 1,10,-1
 231 0 l 1,11,-1
 68 0 l 1,12,-1
 68 701 l 1,0,-1
EndSplineSet
EndChar

StartChar: N
Encoding: 78 78 50
Width: 786
Flags: W
LayerCount: 2
Fore
SplineSet
547 701 m 1,0,-1
 717 701 l 1,1,-1
 717 0 l 1,2,-1
 557 0 l 1,3,-1
 239 419 l 1,4,-1
 239 0 l 1,5,-1
 68 0 l 1,6,-1
 68 701 l 1,7,-1
 229 701 l 1,8,-1
 548 279 l 1,9,-1
 547 701 l 1,0,-1
EndSplineSet
EndChar

StartChar: O
Encoding: 79 79 51
Width: 804
Flags: W
LayerCount: 2
Fore
SplineSet
595.5 665 m 128,-1,1
 682 618 682 618 731.5 536 c 128,-1,2
 781 454 781 454 781 352 c 0,3,4
 781 249 781 249 731.5 166 c 128,-1,5
 682 83 682 83 595.5 35 c 128,-1,6
 509 -13 509 -13 402 -13 c 256,7,8
 295 -13 295 -13 208.5 34.5 c 128,-1,9
 122 82 122 82 72.5 165.5 c 128,-1,10
 23 249 23 249 23 352 c 0,11,12
 23 454 23 454 72.5 536 c 128,-1,13
 122 618 122 618 208.5 665 c 128,-1,14
 295 712 295 712 402 712 c 256,15,0
 509 712 509 712 595.5 665 c 128,-1,1
307.5 530 m 128,-1,17
 263 503 263 503 237 455.5 c 128,-1,18
 211 408 211 408 211 351 c 0,19,20
 211 293 211 293 237.5 245.5 c 128,-1,21
 264 198 264 198 308 170.5 c 128,-1,22
 352 143 352 143 404 143 c 256,23,24
 456 143 456 143 499.5 170.5 c 128,-1,25
 543 198 543 198 568 245.5 c 128,-1,26
 593 293 593 293 593 351 c 0,27,28
 593 408 593 408 568 455.5 c 128,-1,29
 543 503 543 503 499.5 530 c 128,-1,30
 456 557 456 557 404 557 c 256,31,16
 352 557 352 557 307.5 530 c 128,-1,17
EndSplineSet
Substitution2: "<11,2> Diagonal Fractions lookup 7 nested-substitutions 0 subtable" ordmasculine
Substitution2: "<11,2> Diagonal Fractions lookup 5 nested-substitutions 0 subtable" ordmasculine
EndChar

StartChar: P
Encoding: 80 80 52
Width: 680
Flags: W
LayerCount: 2
Fore
SplineSet
584 636.5 m 128,-1,1
 658 572 658 572 658 455 c 0,2,3
 658 331 658 331 584 262.5 c 128,-1,4
 510 194 510 194 376 194 c 2,5,-1
 251 194 l 1,6,-1
 251 0 l 1,7,-1
 68 0 l 1,8,-1
 68 701 l 1,9,-1
 376 701 l 2,10,0
 510 701 510 701 584 636.5 c 128,-1,1
453.5 368 m 128,-1,12
 484 396 484 396 484 449 c 0,13,14
 484 500 484 500 453.5 527.5 c 128,-1,15
 423 555 423 555 367 555 c 2,16,-1
 251 555 l 1,17,-1
 251 340 l 1,18,-1
 367 340 l 2,19,11
 423 340 423 340 453.5 368 c 128,-1,12
EndSplineSet
EndChar

StartChar: Q
Encoding: 81 81 53
Width: 808
Flags: W
LayerCount: 2
Fore
SplineSet
816 -89 m 1,0,1
 776 -125 776 -125 720.5 -146 c 128,-1,2
 665 -167 665 -167 612 -167 c 0,3,4
 541 -167 541 -167 482 -126 c 128,-1,5
 423 -85 423 -85 388 -13 c 1,6,7
 284 -10 284 -10 201 38.5 c 128,-1,8
 118 87 118 87 70.5 169 c 128,-1,9
 23 251 23 251 23 352 c 0,10,11
 23 454 23 454 72.5 536 c 128,-1,12
 122 618 122 618 208.5 665 c 128,-1,13
 295 712 295 712 402 712 c 256,14,15
 509 712 509 712 595.5 665 c 128,-1,16
 682 618 682 618 731.5 536 c 128,-1,17
 781 454 781 454 781 352 c 0,18,19
 781 236 781 236 719 146 c 128,-1,20
 657 56 657 56 553 15 c 1,21,22
 590 -28 590 -28 632 -28 c 0,23,24
 656 -28 656 -28 687.5 -14 c 128,-1,25
 719 0 719 0 752 24 c 1,26,-1
 816 -89 l 1,0,1
237.5 245.5 m 128,-1,28
 264 198 264 198 308 170.5 c 128,-1,29
 352 143 352 143 404 143 c 256,30,31
 456 143 456 143 499.5 170.5 c 128,-1,32
 543 198 543 198 568 245.5 c 128,-1,33
 593 293 593 293 593 351 c 0,34,35
 593 408 593 408 568 455.5 c 128,-1,36
 543 503 543 503 499.5 530 c 128,-1,37
 456 557 456 557 404 557 c 256,38,39
 352 557 352 557 307.5 530 c 128,-1,40
 263 503 263 503 237 455.5 c 128,-1,41
 211 408 211 408 211 351 c 0,42,27
 211 293 211 293 237.5 245.5 c 128,-1,28
EndSplineSet
EndChar

StartChar: R
Encoding: 82 82 54
Width: 724
Flags: W
LayerCount: 2
Fore
SplineSet
489 0 m 1,0,-1
 387 194 l 1,1,-1
 383 194 l 1,2,-1
 251 194 l 1,3,-1
 251 0 l 1,4,-1
 68 0 l 1,5,-1
 68 701 l 1,6,-1
 383 701 l 2,7,8
 522 701 522 701 598.5 636.5 c 128,-1,9
 675 572 675 572 675 455 c 0,10,11
 675 376 675 376 643 318.5 c 128,-1,12
 611 261 611 261 550 229 c 1,13,-1
 696 0 l 1,14,-1
 489 0 l 1,0,-1
251 340 m 1,15,-1
 384 340 l 2,16,17
 440 340 440 340 470.5 368 c 128,-1,18
 501 396 501 396 501 449 c 0,19,20
 501 500 501 500 470.5 527.5 c 128,-1,21
 440 555 440 555 384 555 c 2,22,-1
 251 555 l 1,23,-1
 251 340 l 1,15,-1
EndSplineSet
EndChar

StartChar: S
Encoding: 83 83 55
Width: 646
Flags: W
LayerCount: 2
Fore
SplineSet
431.5 544 m 128,-1,1
 368 565 368 565 325 565 c 0,2,3
 291 565 291 565 271.5 552.5 c 128,-1,4
 252 540 252 540 252 516 c 0,5,6
 252 493 252 493 269 477.5 c 128,-1,7
 286 462 286 462 311 452.5 c 128,-1,8
 336 443 336 443 385 428 c 0,9,10
 458 407 458 407 505.5 386 c 128,-1,11
 553 365 553 365 587 321.5 c 128,-1,12
 621 278 621 278 621 208 c 256,13,14
 621 138 621 138 584 88.5 c 128,-1,15
 547 39 547 39 482.5 14 c 128,-1,16
 418 -11 418 -11 339 -11 c 0,17,18
 252 -11 252 -11 165.5 19.5 c 128,-1,19
 79 50 79 50 16 103 c 1,20,-1
 87 246 l 1,21,22
 140 199 140 199 212.5 169 c 128,-1,23
 285 139 285 139 341 139 c 0,24,25
 382 139 382 139 405.5 154 c 128,-1,26
 429 169 429 169 429 198 c 0,27,28
 429 222 429 222 411.5 238 c 128,-1,29
 394 254 394 254 367.5 263.5 c 128,-1,30
 341 273 341 273 293 286 c 0,31,32
 221 306 221 306 174 326.5 c 128,-1,33
 127 347 127 347 93.5 388.5 c 128,-1,34
 60 430 60 430 60 499 c 0,35,36
 60 564 60 564 94.5 613 c 128,-1,37
 129 662 129 662 192.5 688.5 c 128,-1,38
 256 715 256 715 340 715 c 0,39,40
 416 715 416 715 490 693.5 c 128,-1,41
 564 672 564 672 620 636 c 1,42,-1
 551 490 l 1,43,0
 495 523 495 523 431.5 544 c 128,-1,1
EndSplineSet
EndChar

StartChar: T
Encoding: 84 84 56
Width: 614
Flags: W
LayerCount: 2
Fore
SplineSet
7 701 m 1,0,-1
 608 701 l 1,1,-1
 608 550 l 1,2,-1
 398 550 l 1,3,-1
 398 0 l 1,4,-1
 215 0 l 1,5,-1
 215 550 l 1,6,-1
 7 550 l 1,7,-1
 7 701 l 1,0,-1
EndSplineSet
EndChar

StartChar: U
Encoding: 85 85 57
Width: 749
Flags: W
LayerCount: 2
Fore
SplineSet
278 183 m 128,-1,1
 317 143 317 143 377 143 c 0,2,3
 436 143 436 143 472.5 182.5 c 128,-1,4
 509 222 509 222 509 289 c 2,5,-1
 509 701 l 1,6,-1
 692 701 l 1,7,-1
 692 289 l 2,8,9
 692 198 692 198 653.5 129.5 c 128,-1,10
 615 61 615 61 543.5 24 c 128,-1,11
 472 -13 472 -13 376 -13 c 256,12,13
 280 -13 280 -13 207.5 24 c 128,-1,14
 135 61 135 61 95.5 129.5 c 128,-1,15
 56 198 56 198 56 289 c 2,16,-1
 56 701 l 1,17,-1
 239 701 l 1,18,-1
 239 289 l 2,19,0
 239 223 239 223 278 183 c 128,-1,1
EndSplineSet
EndChar

StartChar: V
Encoding: 86 86 58
Width: 732
Flags: W
LayerCount: 2
Fore
SplineSet
-2 701 m 1,0,-1
 195 701 l 1,1,-1
 370 194 l 1,2,-1
 546 701 l 1,3,-1
 734 701 l 1,4,-1
 460 0 l 1,5,-1
 270 0 l 1,6,-1
 -2 701 l 1,0,-1
EndSplineSet
EndChar

StartChar: W
Encoding: 87 87 59
Width: 1113
Flags: W
LayerCount: 2
Fore
SplineSet
927 701 m 1,0,-1
 1115 701 l 1,1,-1
 878 0 l 1,2,-1
 690 0 l 1,3,-1
 557 477 l 1,4,-1
 422 0 l 1,5,-1
 234 0 l 1,6,-1
 -2 701 l 1,7,-1
 195 701 l 1,8,-1
 333 189 l 1,9,-1
 471 701 l 1,10,-1
 650 701 l 1,11,-1
 790 189 l 1,12,-1
 927 701 l 1,0,-1
EndSplineSet
EndChar

StartChar: X
Encoding: 88 88 60
Width: 738
Flags: W
LayerCount: 2
Fore
SplineSet
20 701 m 1,0,-1
 233 701 l 1,1,-1
 364 502 l 1,2,-1
 496 701 l 1,3,-1
 712 701 l 1,4,-1
 481 366 l 1,5,-1
 732 0 l 1,6,-1
 513 0 l 1,7,-1
 364 217 l 1,8,-1
 218 0 l 1,9,-1
 4 0 l 1,10,-1
 253 357 l 1,11,-1
 20 701 l 1,0,-1
EndSplineSet
EndChar

StartChar: Y
Encoding: 89 89 61
Width: 684
Flags: W
LayerCount: 2
Fore
SplineSet
689 701 m 1,0,-1
 436 224 l 1,1,-1
 436 0 l 1,2,-1
 253 0 l 1,3,-1
 253 219 l 1,4,-1
 -5 701 l 1,5,-1
 178 701 l 1,6,-1
 344 400 l 1,7,-1
 506 701 l 1,8,-1
 689 701 l 1,0,-1
EndSplineSet
EndChar

StartChar: Z
Encoding: 90 90 62
Width: 676
Flags: W
LayerCount: 2
Fore
SplineSet
40 701 m 1,0,-1
 642 701 l 1,1,-1
 642 581 l 1,2,-1
 272 147 l 1,3,-1
 648 147 l 1,4,-1
 648 0 l 1,5,-1
 27 0 l 1,6,-1
 27 119 l 1,7,-1
 397 554 l 1,8,-1
 40 554 l 1,9,-1
 40 701 l 1,0,-1
EndSplineSet
EndChar

StartChar: bracketleft
Encoding: 91 91 63
Width: 359
Flags: W
LayerCount: 2
Fore
SplineSet
66 742 m 1,0,-1
 344 742 l 1,1,-1
 344 608 l 1,2,-1
 224 608 l 1,3,-1
 224 10 l 1,4,-1
 344 10 l 1,5,-1
 344 -124 l 1,6,-1
 66 -124 l 1,7,-1
 66 742 l 1,0,-1
EndSplineSet
Substitution2: "'rtla' Right to Left Alternates in Latin lookup 0 subtable" bracketright
EndChar

StartChar: backslash
Encoding: 92 92 64
Width: 355
Flags: W
LayerCount: 2
Fore
SplineSet
69 810 m 1,0,-1
 393 -110 l 1,1,-1
 243 -110 l 1,2,-1
 -81 810 l 1,3,-1
 69 810 l 1,0,-1
EndSplineSet
EndChar

StartChar: bracketright
Encoding: 93 93 65
Width: 359
Flags: W
LayerCount: 2
Fore
SplineSet
293 742 m 1,0,-1
 293 -124 l 1,1,-1
 15 -124 l 1,2,-1
 15 10 l 1,3,-1
 135 10 l 1,4,-1
 135 608 l 1,5,-1
 15 608 l 1,6,-1
 15 742 l 1,7,-1
 293 742 l 1,0,-1
EndSplineSet
Substitution2: "'rtla' Right to Left Alternates in Latin lookup 0 subtable" bracketleft
EndChar

StartChar: asciicircum
Encoding: 94 94 66
Width: 578
Flags: W
LayerCount: 2
Fore
SplineSet
547 138 m 1,0,-1
 420 138 l 1,1,-1
 289 425 l 1,2,-1
 158 138 l 1,3,-1
 31 138 l 1,4,-1
 216 524 l 1,5,-1
 362 524 l 1,6,-1
 547 138 l 1,0,-1
EndSplineSet
EndChar

StartChar: underscore
Encoding: 95 95 67
Width: 585
Flags: W
LayerCount: 2
Fore
SplineSet
0 -106 m 1,0,-1
 585 -106 l 1,1,-1
 585 -204 l 1,2,-1
 0 -204 l 1,3,-1
 0 -106 l 1,0,-1
EndSplineSet
EndChar

StartChar: a
Encoding: 97 97 69
Width: 601
Flags: W
LayerCount: 2
Fore
SplineSet
486 496.5 m 128,-1,1
 548 445 548 445 549 352 c 2,2,-1
 549 0 l 1,3,-1
 374 0 l 1,4,-1
 374 61 l 1,5,6
 320 -8 320 -8 211 -8 c 0,7,8
 125 -8 125 -8 75.5 38.5 c 128,-1,9
 26 85 26 85 26 161 c 0,10,11
 26 238 26 238 79.5 281 c 128,-1,12
 133 324 133 324 233 325 c 2,13,-1
 374 325 l 1,14,-1
 374 331 l 2,15,16
 374 370 374 370 347.5 391 c 128,-1,17
 321 412 321 412 271 412 c 0,18,19
 237 412 237 412 194.5 401 c 128,-1,20
 152 390 152 390 109 369 c 1,21,-1
 60 489 l 1,22,23
 126 519 126 519 186.5 533.5 c 128,-1,24
 247 548 247 548 312 548 c 0,25,0
 424 548 424 548 486 496.5 c 128,-1,1
336 132.5 m 128,-1,27
 366 152 366 152 374 183 c 1,28,-1
 374 230 l 1,29,-1
 268 230 l 2,30,31
 193 230 193 230 193 174 c 0,32,33
 193 146 193 146 212.5 129.5 c 128,-1,34
 232 113 232 113 266 113 c 0,35,26
 306 113 306 113 336 132.5 c 128,-1,27
EndSplineSet
Substitution2: "<3,3> Small Caps in Latin lookup 11 subtable" a.sc
Substitution2: "<11,2> Diagonal Fractions lookup 7 nested-substitutions 0 subtable" ordfeminine
Substitution2: "<11,2> Diagonal Fractions lookup 5 nested-substitutions 0 subtable" ordfeminine
EndChar

StartChar: b
Encoding: 98 98 70
Width: 686
Flags: W
LayerCount: 2
Fore
SplineSet
542 512.5 m 128,-1,1
 599 478 599 478 630.5 414.5 c 128,-1,2
 662 351 662 351 662 268 c 0,3,4
 662 186 662 186 631.5 124 c 128,-1,5
 601 62 601 62 544.5 28 c 128,-1,6
 488 -6 488 -6 414 -6 c 0,7,8
 363 -6 363 -6 321.5 13.5 c 128,-1,9
 280 33 280 33 251 70 c 1,10,-1
 251 0 l 1,11,-1
 73 0 l 1,12,-1
 73 742 l 1,13,-1
 251 742 l 1,14,-1
 251 471 l 1,15,16
 310 547 310 547 410 547 c 0,17,0
 485 547 485 547 542 512.5 c 128,-1,1
450.5 175 m 128,-1,19
 483 212 483 212 483 272 c 256,20,21
 483 332 483 332 450.5 369.5 c 128,-1,22
 418 407 418 407 366 407 c 0,23,24
 315 407 315 407 283 369.5 c 128,-1,25
 251 332 251 332 251 272 c 256,26,27
 251 212 251 212 283 175 c 128,-1,28
 315 138 315 138 366 138 c 0,29,18
 418 138 418 138 450.5 175 c 128,-1,19
EndSplineSet
Substitution2: "<3,3> Small Caps in Latin lookup 11 subtable" b.sc
EndChar

StartChar: c
Encoding: 99 99 71
Width: 562
Flags: W
LayerCount: 2
Fore
SplineSet
311 400 m 0,1,2
 263 400 263 400 233 363.5 c 128,-1,3
 203 327 203 327 203 269 c 0,4,5
 203 210 203 210 233 174 c 128,-1,6
 263 138 263 138 311 138 c 0,7,8
 385 138 385 138 417 199 c 1,9,-1
 548 124 l 1,10,11
 516 62 516 62 452 28 c 128,-1,12
 388 -6 388 -6 302 -6 c 0,13,14
 219 -6 219 -6 156 28 c 128,-1,15
 93 62 93 62 58.5 124 c 128,-1,16
 24 186 24 186 24 268 c 0,17,18
 24 351 24 351 59 414.5 c 128,-1,19
 94 478 94 478 157.5 512.5 c 128,-1,20
 221 547 221 547 304 547 c 0,21,22
 385 547 385 547 448 513.5 c 128,-1,23
 511 480 511 480 546 419 c 1,24,-1
 417 344 l 1,25,0
 379 400 379 400 311 400 c 0,1,2
EndSplineSet
Substitution2: "<3,3> Small Caps in Latin lookup 11 subtable" c.sc
EndChar

StartChar: d
Encoding: 100 100 72
Width: 687
Flags: W
LayerCount: 2
Fore
SplineSet
614 742 m 1,0,-1
 614 0 l 1,1,-1
 436 0 l 1,2,-1
 436 70 l 1,3,4
 408 32 408 32 367.5 12.5 c 128,-1,5
 327 -7 327 -7 276 -7 c 0,6,7
 201 -7 201 -7 144 28 c 128,-1,8
 87 63 87 63 55.5 126.5 c 128,-1,9
 24 190 24 190 24 273 c 0,10,11
 24 355 24 355 55 417 c 128,-1,12
 86 479 86 479 142 513 c 128,-1,13
 198 547 198 547 272 547 c 0,14,15
 324 547 324 547 365.5 527 c 128,-1,16
 407 507 407 507 436 470 c 1,17,-1
 436 742 l 1,18,-1
 614 742 l 1,0,-1
404 170.5 m 128,-1,20
 436 208 436 208 436 268 c 0,21,22
 436 329 436 329 404 366 c 128,-1,23
 372 403 372 403 320 403 c 256,24,25
 268 403 268 403 235.5 365.5 c 128,-1,26
 203 328 203 328 203 268 c 256,27,28
 203 208 203 208 235.5 170.5 c 128,-1,29
 268 133 268 133 320 133 c 256,30,19
 372 133 372 133 404 170.5 c 128,-1,20
EndSplineSet
Substitution2: "<3,3> Small Caps in Latin lookup 11 subtable" d.sc
EndChar

StartChar: e
Encoding: 101 101 73
Width: 603
Flags: W
LayerCount: 2
Fore
SplineSet
509 469 m 128,-1,1
 580 391 580 391 580 255 c 0,2,3
 580 234 580 234 579 223 c 1,4,-1
 203 223 l 1,5,6
 216 177 216 177 248 152.5 c 128,-1,7
 280 128 280 128 326 128 c 0,8,9
 361 128 361 128 393.5 142 c 128,-1,10
 426 156 426 156 453 183 c 1,11,-1
 546 90 l 1,12,13
 504 43 504 43 444.5 18.5 c 128,-1,14
 385 -6 385 -6 310 -6 c 0,15,16
 223 -6 223 -6 158 28 c 128,-1,17
 93 62 93 62 58.5 124 c 128,-1,18
 24 186 24 186 24 268 c 0,19,20
 24 351 24 351 59 414.5 c 128,-1,21
 94 478 94 478 158 512.5 c 128,-1,22
 222 547 222 547 306 547 c 0,23,0
 438 547 438 547 509 469 c 128,-1,1
407 318 m 1,24,25
 407 365 407 365 379.5 393.5 c 128,-1,26
 352 422 352 422 307 422 c 0,27,28
 265 422 265 422 236.5 394 c 128,-1,29
 208 366 208 366 199 318 c 1,30,-1
 407 318 l 1,24,25
EndSplineSet
Substitution2: "<3,3> Small Caps in Latin lookup 11 subtable" e.sc
EndChar

StartChar: f
Encoding: 102 102 74
Width: 396
Flags: W
LayerCount: 2
Fore
SplineSet
294 593 m 128,-1,1
 277 578 277 578 277 550 c 2,2,-1
 277 515 l 1,3,-1
 397 515 l 1,4,-1
 397 397 l 1,5,-1
 277 397 l 1,6,-1
 277 0 l 1,7,-1
 100 0 l 1,8,-1
 100 397 l 1,9,-1
 27 397 l 1,10,-1
 27 515 l 1,11,-1
 100 515 l 1,12,-1
 100 565 l 2,13,14
 100 651 100 651 157.5 700.5 c 128,-1,15
 215 750 215 750 305 750 c 0,16,17
 364 750 364 750 421 729 c 1,18,-1
 398 594 l 1,19,20
 358 608 358 608 338 608 c 0,21,0
 311 608 311 608 294 593 c 128,-1,1
EndSplineSet
Substitution2: "<3,3> Small Caps in Latin lookup 11 subtable" f.sc
EndChar

StartChar: g
Encoding: 103 103 75
Width: 648
Flags: W
LayerCount: 2
Fore
SplineSet
586 541 m 1,0,-1
 586 48 l 2,1,2
 586 -27 586 -27 549 -83.5 c 128,-1,3
 512 -140 512 -140 445.5 -170.5 c 128,-1,4
 379 -201 379 -201 292 -201 c 0,5,6
 224 -201 224 -201 161 -182 c 128,-1,7
 98 -163 98 -163 50 -131 c 1,8,-1
 112 -8 l 1,9,10
 149 -33 149 -33 192 -47 c 128,-1,11
 235 -61 235 -61 279 -61 c 0,12,13
 339 -61 339 -61 374 -33 c 128,-1,14
 409 -5 409 -5 409 43 c 2,15,-1
 409 101 l 1,16,17
 355 30 355 30 255 30 c 0,18,19
 188 30 188 30 135.5 62.5 c 128,-1,20
 83 95 83 95 53.5 154.5 c 128,-1,21
 24 214 24 214 24 291 c 0,22,23
 24 367 24 367 52.5 425 c 128,-1,24
 81 483 81 483 133 515 c 128,-1,25
 185 547 185 547 251 547 c 0,26,27
 301 547 301 547 341.5 528.5 c 128,-1,28
 382 510 382 510 409 475 c 1,29,-1
 409 541 l 1,30,-1
 586 541 l 1,0,-1
379 195 m 128,-1,32
 409 230 409 230 409 286 c 0,33,34
 409 343 409 343 379 378 c 128,-1,35
 349 413 349 413 300 413 c 256,36,37
 251 413 251 413 220.5 377.5 c 128,-1,38
 190 342 190 342 190 286 c 256,39,40
 190 230 190 230 220.5 195 c 128,-1,41
 251 160 251 160 300 160 c 256,42,31
 349 160 349 160 379 195 c 128,-1,32
EndSplineSet
Substitution2: "<3,3> Small Caps in Latin lookup 11 subtable" g.sc
EndChar

StartChar: h
Encoding: 104 104 76
Width: 679
Flags: W
LayerCount: 2
Fore
SplineSet
573.5 492 m 128,-1,1
 627 436 627 436 627 341 c 2,2,-1
 627 0 l 1,3,-1
 449 0 l 1,4,-1
 449 290 l 2,5,6
 449 336 449 336 424.5 362.5 c 128,-1,7
 400 389 400 389 357 389 c 0,8,9
 308 388 308 388 279.5 354.5 c 128,-1,10
 251 321 251 321 251 267 c 2,11,-1
 251 0 l 1,12,-1
 73 0 l 1,13,-1
 73 742 l 1,14,-1
 251 742 l 1,15,-1
 251 453 l 1,16,17
 280 500 280 500 325.5 524 c 128,-1,18
 371 548 371 548 430 548 c 0,19,0
 520 548 520 548 573.5 492 c 128,-1,1
EndSplineSet
Substitution2: "<3,3> Small Caps in Latin lookup 11 subtable" h.sc
EndChar

StartChar: k
Encoding: 107 107 79
Width: 633
Flags: W
LayerCount: 2
Fore
SplineSet
420 0 m 1,0,-1
 306 204 l 1,1,-1
 251 147 l 1,2,-1
 251 0 l 1,3,-1
 73 0 l 1,4,-1
 73 742 l 1,5,-1
 251 742 l 1,6,-1
 251 358 l 1,7,-1
 424 541 l 1,8,-1
 626 541 l 1,9,-1
 428 332 l 1,10,-1
 630 0 l 1,11,-1
 420 0 l 1,0,-1
EndSplineSet
Substitution2: "<3,3> Small Caps in Latin lookup 11 subtable" k.sc
EndChar

StartChar: l
Encoding: 108 108 80
Width: 324
Flags: W
LayerCount: 2
Fore
SplineSet
73 742 m 1,0,-1
 251 742 l 1,1,-1
 251 0 l 1,2,-1
 73 0 l 1,3,-1
 73 742 l 1,0,-1
EndSplineSet
Substitution2: "<3,3> Small Caps in Latin lookup 11 subtable" l.sc
EndChar

StartChar: m
Encoding: 109 109 81
Width: 1037
Flags: W
LayerCount: 2
Fore
SplineSet
931 492 m 128,-1,1
 984 436 984 436 984 341 c 2,2,-1
 984 0 l 1,3,-1
 806 0 l 1,4,-1
 806 290 l 2,5,6
 806 336 806 336 782 362.5 c 128,-1,7
 758 389 758 389 717 389 c 0,8,9
 670 388 670 388 642.5 354.5 c 128,-1,10
 615 321 615 321 615 267 c 2,11,-1
 615 0 l 1,12,-1
 437 0 l 1,13,-1
 437 290 l 2,14,15
 437 336 437 336 413 362.5 c 128,-1,16
 389 389 389 389 348 389 c 0,17,18
 301 388 301 388 273 354.5 c 128,-1,19
 245 321 245 321 245 267 c 2,20,-1
 245 0 l 1,21,-1
 68 0 l 1,22,-1
 68 541 l 1,23,-1
 245 541 l 1,24,-1
 245 452 l 1,25,26
 273 499 273 499 317.5 523.5 c 128,-1,27
 362 548 362 548 421 548 c 0,28,29
 487 548 487 548 534 516 c 128,-1,30
 581 484 581 484 601 427 c 1,31,32
 627 487 627 487 675.5 517.5 c 128,-1,33
 724 548 724 548 790 548 c 0,34,0
 878 548 878 548 931 492 c 128,-1,1
EndSplineSet
Substitution2: "<3,3> Small Caps in Latin lookup 11 subtable" m.sc
EndChar

StartChar: n
Encoding: 110 110 82
Width: 674
Flags: W
LayerCount: 2
Fore
SplineSet
567.5 492 m 128,-1,1
 621 436 621 436 621 341 c 2,2,-1
 621 0 l 1,3,-1
 444 0 l 1,4,-1
 444 290 l 2,5,6
 444 336 444 336 419 362.5 c 128,-1,7
 394 389 394 389 352 389 c 0,8,9
 308 388 308 388 279.5 360 c 128,-1,10
 251 332 251 332 246 286 c 1,11,-1
 246 0 l 1,12,-1
 68 0 l 1,13,-1
 68 541 l 1,14,-1
 246 541 l 1,15,-1
 246 453 l 1,16,17
 275 500 275 500 320.5 524 c 128,-1,18
 366 548 366 548 425 548 c 0,19,0
 514 548 514 548 567.5 492 c 128,-1,1
EndSplineSet
Substitution2: "<3,3> Small Caps in Latin lookup 11 subtable" n.sc
EndChar

StartChar: o
Encoding: 111 111 83
Width: 638
Flags: W
LayerCount: 2
Fore
SplineSet
474 512.5 m 128,-1,1
 541 478 541 478 578 415.5 c 128,-1,2
 615 353 615 353 615 271 c 0,3,4
 615 188 615 188 578 125.5 c 128,-1,5
 541 63 541 63 474 28.5 c 128,-1,6
 407 -6 407 -6 319 -6 c 256,7,8
 231 -6 231 -6 164 28.5 c 128,-1,9
 97 63 97 63 60.5 125.5 c 128,-1,10
 24 188 24 188 24 271 c 0,11,12
 24 353 24 353 60.5 415.5 c 128,-1,13
 97 478 97 478 164 512.5 c 128,-1,14
 231 547 231 547 319 547 c 256,15,0
 407 547 407 547 474 512.5 c 128,-1,1
235 366 m 128,-1,17
 203 329 203 329 203 269 c 0,18,19
 203 208 203 208 235 171 c 128,-1,20
 267 134 267 134 319 134 c 0,21,22
 372 134 372 134 404 171 c 128,-1,23
 436 208 436 208 436 269 c 0,24,25
 436 329 436 329 403.5 366 c 128,-1,26
 371 403 371 403 319 403 c 256,27,16
 267 403 267 403 235 366 c 128,-1,17
EndSplineSet
Substitution2: "<3,3> Small Caps in Latin lookup 11 subtable" o.sc
Substitution2: "<11,2> Diagonal Fractions lookup 7 nested-substitutions 0 subtable" ordmasculine
Substitution2: "<11,2> Diagonal Fractions lookup 5 nested-substitutions 0 subtable" ordmasculine
EndChar

StartChar: p
Encoding: 112 112 84
Width: 686
Flags: W
LayerCount: 2
Fore
SplineSet
542 512.5 m 128,-1,1
 599 478 599 478 630.5 414.5 c 128,-1,2
 662 351 662 351 662 268 c 0,3,4
 662 186 662 186 631.5 124 c 128,-1,5
 601 62 601 62 544.5 28 c 128,-1,6
 488 -6 488 -6 414 -6 c 0,7,8
 363 -6 363 -6 321.5 13.5 c 128,-1,9
 280 33 280 33 251 70 c 1,10,-1
 251 -194 l 1,11,-1
 73 -194 l 1,12,-1
 73 541 l 1,13,-1
 251 541 l 1,14,-1
 251 471 l 1,15,16
 310 547 310 547 410 547 c 0,17,0
 485 547 485 547 542 512.5 c 128,-1,1
450.5 175 m 128,-1,19
 483 212 483 212 483 272 c 256,20,21
 483 332 483 332 450.5 369.5 c 128,-1,22
 418 407 418 407 366 407 c 0,23,24
 315 407 315 407 283 369.5 c 128,-1,25
 251 332 251 332 251 272 c 256,26,27
 251 212 251 212 283 175 c 128,-1,28
 315 138 315 138 366 138 c 0,29,18
 418 138 418 138 450.5 175 c 128,-1,19
EndSplineSet
Substitution2: "<3,3> Small Caps in Latin lookup 11 subtable" p.sc
EndChar

StartChar: q
Encoding: 113 113 85
Width: 687
Flags: W
LayerCount: 2
Fore
SplineSet
614 541 m 1,0,-1
 614 -194 l 1,1,-1
 436 -194 l 1,2,-1
 436 70 l 1,3,4
 408 32 408 32 367.5 12.5 c 128,-1,5
 327 -7 327 -7 276 -7 c 0,6,7
 201 -7 201 -7 144 28 c 128,-1,8
 87 63 87 63 55.5 126.5 c 128,-1,9
 24 190 24 190 24 273 c 0,10,11
 24 355 24 355 55 417 c 128,-1,12
 86 479 86 479 142 513 c 128,-1,13
 198 547 198 547 272 547 c 0,14,15
 324 547 324 547 365.5 527 c 128,-1,16
 407 507 407 507 436 470 c 1,17,-1
 436 541 l 1,18,-1
 614 541 l 1,0,-1
404 170.5 m 128,-1,20
 436 208 436 208 436 268 c 0,21,22
 436 329 436 329 404 366 c 128,-1,23
 372 403 372 403 320 403 c 256,24,25
 268 403 268 403 235.5 365.5 c 128,-1,26
 203 328 203 328 203 268 c 256,27,28
 203 208 203 208 235.5 170.5 c 128,-1,29
 268 133 268 133 320 133 c 256,30,19
 372 133 372 133 404 170.5 c 128,-1,20
EndSplineSet
Substitution2: "<3,3> Small Caps in Latin lookup 11 subtable" q.sc
EndChar

StartChar: r
Encoding: 114 114 86
Width: 430
Flags: W
LayerCount: 2
Fore
SplineSet
318.5 523 m 128,-1,1
 363 548 363 548 420 548 c 1,2,-1
 420 385 l 1,3,4
 411 386 411 386 393 386 c 0,5,6
 330 386 330 386 291 356.5 c 128,-1,7
 252 327 252 327 246 276 c 1,8,-1
 246 0 l 1,9,-1
 68 0 l 1,10,-1
 68 541 l 1,11,-1
 246 541 l 1,12,-1
 246 451 l 1,13,0
 274 498 274 498 318.5 523 c 128,-1,1
EndSplineSet
Substitution2: "<3,3> Small Caps in Latin lookup 11 subtable" r.sc
EndChar

StartChar: s
Encoding: 115 115 87
Width: 517
Flags: W
LayerCount: 2
Fore
SplineSet
257 425 m 0,1,2
 234 425 234 425 220 416.5 c 128,-1,3
 206 408 206 408 206 391 c 0,4,5
 206 373 206 373 228 362 c 128,-1,6
 250 351 250 351 298 338 c 0,7,8
 356 321 356 321 394.5 304.5 c 128,-1,9
 433 288 433 288 461 254.5 c 128,-1,10
 489 221 489 221 489 167 c 0,11,12
 489 85 489 85 425.5 38.5 c 128,-1,13
 362 -8 362 -8 260 -8 c 0,14,15
 191 -8 191 -8 128 11.5 c 128,-1,16
 65 31 65 31 16 69 c 1,17,-1
 72 184 l 1,18,19
 118 152 118 152 168.5 134.5 c 128,-1,20
 219 117 219 117 264 117 c 0,21,22
 290 117 290 117 305.5 125.5 c 128,-1,23
 321 134 321 134 321 150 c 0,24,25
 321 170 321 170 298.5 181 c 128,-1,26
 276 192 276 192 228 205 c 0,27,28
 171 222 171 222 134 238.5 c 128,-1,29
 97 255 97 255 69.5 288 c 128,-1,30
 42 321 42 321 42 374 c 0,31,32
 42 456 42 456 104 502.5 c 128,-1,33
 166 549 166 549 264 549 c 0,34,35
 323 549 323 549 380.5 533 c 128,-1,36
 438 517 438 517 489 486 c 1,37,-1
 429 370 l 1,38,0
 324 425 324 425 257 425 c 0,1,2
EndSplineSet
Substitution2: "<3,3> Small Caps in Latin lookup 11 subtable" s.sc
EndChar

StartChar: t
Encoding: 116 116 88
Width: 437
Flags: W
LayerCount: 2
Fore
SplineSet
420 28 m 1,0,1
 390 11 390 11 351 1.5 c 128,-1,2
 312 -8 312 -8 272 -8 c 0,3,4
 192 -8 192 -8 142.5 38 c 128,-1,5
 93 84 93 84 93 165 c 2,6,-1
 93 397 l 1,7,-1
 18 397 l 1,8,-1
 18 515 l 1,9,-1
 93 515 l 1,10,-1
 93 665 l 1,11,-1
 270 665 l 1,12,-1
 270 515 l 1,13,-1
 410 515 l 1,14,-1
 410 397 l 1,15,-1
 270 397 l 1,16,-1
 270 193 l 2,17,18
 270 136 270 136 317 136 c 0,19,20
 346 136 346 136 386 154 c 1,21,-1
 420 28 l 1,0,1
EndSplineSet
Substitution2: "<3,3> Small Caps in Latin lookup 11 subtable" t.sc
EndChar

StartChar: u
Encoding: 117 117 89
Width: 664
Flags: W
LayerCount: 2
Fore
SplineSet
596 541 m 1,0,-1
 596 0 l 1,1,-1
 418 0 l 1,2,-1
 418 88 l 1,3,4
 363 -6 363 -6 245 -8 c 0,5,6
 157 -8 157 -8 104.5 48.5 c 128,-1,7
 52 105 52 105 52 199 c 2,8,-1
 52 541 l 1,9,-1
 230 541 l 1,10,-1
 230 250 l 2,11,12
 230 204 230 204 253.5 178 c 128,-1,13
 277 152 277 152 317 152 c 0,14,15
 364 153 364 153 391 186.5 c 128,-1,16
 418 220 418 220 418 274 c 2,17,-1
 418 541 l 1,18,-1
 596 541 l 1,0,-1
EndSplineSet
Substitution2: "<3,3> Small Caps in Latin lookup 11 subtable" u.sc
EndChar

StartChar: v
Encoding: 118 118 90
Width: 575
Flags: W
LayerCount: 2
Fore
SplineSet
-5 541 m 1,0,-1
 178 541 l 1,1,-1
 291 165 l 1,2,-1
 405 541 l 1,3,-1
 583 541 l 1,4,-1
 380 0 l 1,5,-1
 197 0 l 1,6,-1
 -5 541 l 1,0,-1
EndSplineSet
Substitution2: "<3,3> Small Caps in Latin lookup 11 subtable" v.sc
EndChar

StartChar: w
Encoding: 119 119 91
Width: 941
Flags: W
LayerCount: 2
Fore
SplineSet
-5 541 m 1,0,-1
 176 541 l 1,1,-1
 284 175 l 1,2,-1
 390 541 l 1,3,-1
 560 541 l 1,4,-1
 667 175 l 1,5,-1
 775 541 l 1,6,-1
 949 541 l 1,7,-1
 751 0 l 1,8,-1
 575 0 l 1,9,-1
 472 334 l 1,10,-1
 368 0 l 1,11,-1
 192 0 l 1,12,-1
 -5 541 l 1,0,-1
EndSplineSet
Substitution2: "<3,3> Small Caps in Latin lookup 11 subtable" w.sc
EndChar

StartChar: x
Encoding: 120 120 92
Width: 611
Flags: W
LayerCount: 2
Fore
SplineSet
15 541 m 1,0,-1
 219 541 l 1,1,-1
 306 389 l 1,2,-1
 400 541 l 1,3,-1
 595 541 l 1,4,-1
 424 277 l 1,5,-1
 607 0 l 1,6,-1
 402 0 l 1,7,-1
 306 165 l 1,8,-1
 199 0 l 1,9,-1
 3 0 l 1,10,-1
 187 277 l 1,11,-1
 15 541 l 1,0,-1
EndSplineSet
Substitution2: "<3,3> Small Caps in Latin lookup 11 subtable" x.sc
EndChar

StartChar: y
Encoding: 121 121 93
Width: 584
Flags: W
LayerCount: 2
Fore
SplineSet
277 -165.5 m 128,-1,1
 225 -202 225 -202 148 -202 c 0,2,3
 103 -202 103 -202 64 -188.5 c 128,-1,4
 25 -175 25 -175 -12 -146 c 1,5,-1
 62 -23 l 1,6,7
 81 -39 81 -39 98 -46 c 128,-1,8
 115 -53 115 -53 134 -53 c 0,9,10
 178 -53 178 -53 199 -12 c 2,11,-1
 212 13 l 1,12,-1
 -12 541 l 1,13,-1
 171 541 l 1,14,-1
 300 189 l 1,15,-1
 415 541 l 1,16,-1
 592 541 l 1,17,-1
 360 -53 l 2,18,0
 329 -129 329 -129 277 -165.5 c 128,-1,1
EndSplineSet
Substitution2: "<3,3> Small Caps in Latin lookup 11 subtable" y.sc
EndChar

StartChar: z
Encoding: 122 122 94
Width: 555
Flags: W
LayerCount: 2
Fore
SplineSet
43 541 m 1,0,-1
 517 540 l 1,1,-1
 517 432 l 1,2,-1
 257 136 l 1,3,-1
 527 136 l 1,4,-1
 527 0 l 1,5,-1
 34 0 l 1,6,-1
 34 108 l 1,7,-1
 294 404 l 1,8,-1
 43 404 l 1,9,-1
 43 541 l 1,0,-1
EndSplineSet
Substitution2: "<3,3> Small Caps in Latin lookup 11 subtable" z.sc
EndChar

StartChar: braceleft
Encoding: 123 123 95
Width: 363
Flags: W
LayerCount: 2
Fore
SplineSet
235.5 350 m 128,-1,1
 213 325 213 325 156 309 c 1,2,3
 213 293 213 293 235.5 268 c 128,-1,4
 258 243 258 243 258 186 c 2,5,-1
 258 72 l 2,6,7
 258 36 258 36 276.5 22 c 128,-1,8
 295 8 295 8 345 8 c 1,9,-1
 345 -126 l 1,10,-1
 277 -126 l 2,11,12
 211 -126 211 -126 172.5 -112.5 c 128,-1,13
 134 -99 134 -99 117 -68 c 128,-1,14
 100 -37 100 -37 100 16 c 2,15,-1
 100 198 l 2,16,17
 100 221 100 221 91.5 230.5 c 128,-1,18
 83 240 83 240 63 240 c 2,19,-1
 24 240 l 1,20,-1
 24 378 l 1,21,-1
 63 378 l 2,22,23
 83 378 83 378 91.5 387.5 c 128,-1,24
 100 397 100 397 100 420 c 2,25,-1
 100 601 l 2,26,27
 100 655 100 655 117 686 c 128,-1,28
 134 717 134 717 172.5 730.5 c 128,-1,29
 211 744 211 744 277 744 c 2,30,-1
 345 744 l 1,31,-1
 345 610 l 1,32,33
 295 610 295 610 276.5 595.5 c 128,-1,34
 258 581 258 581 258 546 c 2,35,-1
 258 431 l 2,36,0
 258 375 258 375 235.5 350 c 128,-1,1
EndSplineSet
Substitution2: "'rtla' Right to Left Alternates in Latin lookup 0 subtable" braceright
EndChar

StartChar: bar
Encoding: 124 124 96
Width: 302
Flags: W
LayerCount: 2
Fore
SplineSet
85 802 m 1,0,-1
 217 802 l 1,1,-1
 217 -109 l 1,2,-1
 85 -109 l 1,3,-1
 85 802 l 1,0,-1
EndSplineSet
EndChar

StartChar: braceright
Encoding: 125 125 97
Width: 363
Flags: W
LayerCount: 2
Fore
SplineSet
339 378 m 1,0,-1
 339 240 l 1,1,-1
 300 240 l 2,2,3
 280 240 280 240 271.5 230.5 c 128,-1,4
 263 221 263 221 263 198 c 2,5,-1
 263 16 l 2,6,7
 263 -37 263 -37 246 -68 c 128,-1,8
 229 -99 229 -99 190.5 -112.5 c 128,-1,9
 152 -126 152 -126 86 -126 c 2,10,-1
 18 -126 l 1,11,-1
 18 8 l 1,12,13
 68 8 68 8 86.5 22 c 128,-1,14
 105 36 105 36 105 72 c 2,15,-1
 105 186 l 2,16,17
 105 243 105 243 127.5 268 c 128,-1,18
 150 293 150 293 207 309 c 1,19,20
 150 325 150 325 127.5 350 c 128,-1,21
 105 375 105 375 105 431 c 2,22,-1
 105 546 l 2,23,24
 105 581 105 581 86.5 595.5 c 128,-1,25
 68 610 68 610 18 610 c 1,26,-1
 18 744 l 1,27,-1
 86 744 l 2,28,29
 152 744 152 744 190.5 730.5 c 128,-1,30
 229 717 229 717 246 686 c 128,-1,31
 263 655 263 655 263 601 c 2,32,-1
 263 420 l 2,33,34
 263 397 263 397 271.5 387.5 c 128,-1,35
 280 378 280 378 300 378 c 2,36,-1
 339 378 l 1,0,-1
EndSplineSet
Substitution2: "'rtla' Right to Left Alternates in Latin lookup 0 subtable" braceleft
EndChar

StartChar: asciitilde
Encoding: 126 126 98
Width: 511
Flags: W
LayerCount: 2
Fore
SplineSet
428 278 m 128,-1,1
 400 235 400 235 342 235 c 0,2,3
 315 235 315 235 294 243.5 c 128,-1,4
 273 252 273 252 249 267 c 0,5,6
 220 285 220 285 206 285 c 0,7,8
 175 285 175 285 175 240 c 1,9,-1
 55 240 l 1,10,11
 55 328 55 328 83.5 371.5 c 128,-1,12
 112 415 112 415 170 415 c 0,13,14
 196 415 196 415 217 406.5 c 128,-1,15
 238 398 238 398 262 383 c 0,16,17
 265 381 265 381 274.5 375.5 c 128,-1,18
 284 370 284 370 292 367.5 c 128,-1,19
 300 365 300 365 306 365 c 0,20,21
 337 365 337 365 337 410 c 1,22,-1
 456 410 l 1,23,0
 456 321 456 321 428 278 c 128,-1,1
EndSplineSet
EndChar

StartChar: exclamdown
Encoding: 161 161 100
Width: 258
Flags: W
LayerCount: 2
Fore
SplineSet
77 399 m 128,-1,1
 53 423 53 423 53 461 c 256,2,3
 53 499 53 499 77 523.5 c 128,-1,4
 101 548 101 548 139 548 c 0,5,6
 176 548 176 548 200 523.5 c 128,-1,7
 224 499 224 499 224 461 c 256,8,9
 224 423 224 423 200.5 399 c 128,-1,10
 177 375 177 375 139 375 c 256,11,0
 101 375 101 375 77 399 c 128,-1,1
220 -157 m 1,12,-1
 51 -157 l 1,13,-1
 51 22 l 1,14,-1
 82 297 l 1,15,-1
 189 297 l 1,16,-1
 220 22 l 1,17,-1
 220 -157 l 1,12,-1
EndSplineSet
Substitution2: "<3,3> Small Caps in Latin lookup 11 subtable" exclamdown.sc
EndChar

StartChar: cent
Encoding: 162 162 101
Width: 600
Flags: W
LayerCount: 2
Fore
SplineSet
478.5 44.5 m 128,-1,1
 434 13 434 13 375 1 c 1,2,-1
 375 -155 l 1,3,-1
 243 -155 l 1,4,-1
 243 -1 l 1,5,6
 142 16 142 16 83 88 c 128,-1,7
 24 160 24 160 24 268 c 0,8,9
 24 378 24 378 83 451 c 128,-1,10
 142 524 142 524 243 542 c 1,11,-1
 243 701 l 1,12,-1
 375 701 l 1,13,-1
 375 540 l 1,14,15
 431 528 431 528 475 497 c 128,-1,16
 519 466 519 466 546 419 c 1,17,-1
 417 344 l 1,18,19
 379 400 379 400 311 400 c 0,20,21
 263 400 263 400 233 363.5 c 128,-1,22
 203 327 203 327 203 269 c 0,23,24
 203 210 203 210 233 174 c 128,-1,25
 263 138 263 138 311 138 c 0,26,27
 385 138 385 138 417 199 c 1,28,-1
 548 124 l 1,29,0
 523 76 523 76 478.5 44.5 c 128,-1,1
EndSplineSet
EndChar

StartChar: sterling
Encoding: 163 163 102
Width: 564
Flags: W
LayerCount: 2
Fore
SplineSet
287 140 m 1,0,-1
 543 140 l 1,1,-1
 543 0 l 1,2,-1
 27 0 l 1,3,-1
 27 140 l 1,4,-1
 103 140 l 1,5,-1
 103 311 l 1,6,-1
 27 311 l 1,7,-1
 27 377 l 1,8,-1
 103 377 l 1,9,-1
 103 472 l 2,10,11
 103 585 103 585 165.5 647 c 128,-1,12
 228 709 228 709 343 709 c 0,13,14
 404 709 404 709 460 686.5 c 128,-1,15
 516 664 516 664 557 623 c 1,16,-1
 489 487 l 1,17,18
 423 553 423 553 363 553 c 0,19,20
 287 553 287 553 287 468 c 2,21,-1
 287 377 l 1,22,-1
 453 377 l 1,23,-1
 453 311 l 1,24,-1
 287 311 l 1,25,-1
 287 140 l 1,0,-1
EndSplineSet
EndChar

StartChar: currency
Encoding: 164 164 103
Width: 701
Flags: W
LayerCount: 2
Fore
SplineSet
576 192 m 1,1,-1
 677 91 l 1,2,-1
 578 -10 l 1,3,-1
 473 94 l 1,4,5
 415 64 415 64 350 64 c 0,6,7
 284 64 284 64 228 95 c 1,8,-1
 123 -10 l 1,9,-1
 24 91 l 1,10,-1
 125 192 l 1,11,12
 90 252 90 252 90 321 c 0,13,14
 90 387 90 387 122 446 c 1,15,-1
 24 544 l 1,16,-1
 123 645 l 1,17,-1
 222 546 l 1,18,19
 281 580 281 580 350 580 c 0,20,21
 420 580 420 580 479 546 c 1,22,-1
 578 645 l 1,23,-1
 677 544 l 1,24,-1
 579 446 l 1,25,26
 611 387 611 387 611 321 c 0,27,0
 611 252 611 252 576 192 c 1,1,-1
436 239.5 m 128,-1,29
 472 273 472 273 472 321 c 0,30,31
 472 370 472 370 436 404.5 c 128,-1,32
 400 439 400 439 350 439 c 256,33,34
 300 439 300 439 264.5 404.5 c 128,-1,35
 229 370 229 370 229 321 c 0,36,37
 229 273 229 273 264.5 239.5 c 128,-1,38
 300 206 300 206 350 206 c 256,39,28
 400 206 400 206 436 239.5 c 128,-1,29
EndSplineSet
EndChar

StartChar: yen
Encoding: 165 165 104
Width: 694
Flags: W
LayerCount: 2
Fore
SplineSet
694 701 m 1,0,-1
 495 326 l 1,1,-1
 630 326 l 1,2,-1
 630 260 l 1,3,-1
 460 260 l 1,4,-1
 441 224 l 1,5,-1
 441 209 l 1,6,-1
 630 209 l 1,7,-1
 630 143 l 1,8,-1
 441 143 l 1,9,-1
 441 0 l 1,10,-1
 258 0 l 1,11,-1
 258 143 l 1,12,-1
 67 143 l 1,13,-1
 67 209 l 1,14,-1
 258 209 l 1,15,-1
 258 219 l 1,16,-1
 236 260 l 1,17,-1
 67 260 l 1,18,-1
 67 326 l 1,19,-1
 201 326 l 1,20,-1
 0 701 l 1,21,-1
 183 701 l 1,22,-1
 349 400 l 1,23,-1
 511 701 l 1,24,-1
 694 701 l 1,0,-1
EndSplineSet
EndChar

StartChar: brokenbar
Encoding: 166 166 105
Width: 302
Flags: W
LayerCount: 2
Fore
SplineSet
85 802 m 1,0,-1
 217 802 l 1,1,-1
 217 460 l 1,2,-1
 85 460 l 1,3,-1
 85 802 l 1,0,-1
85 233 m 1,4,-1
 217 233 l 1,5,-1
 217 -109 l 1,6,-1
 85 -109 l 1,7,-1
 85 233 l 1,4,-1
EndSplineSet
EndChar

StartChar: section
Encoding: 167 167 106
Width: 549
Flags: W
LayerCount: 2
Fore
SplineSet
286 575 m 0,1,2
 257 575 257 575 241 565.5 c 128,-1,3
 225 556 225 556 225 540 c 0,4,5
 225 519 225 519 250.5 506 c 128,-1,6
 276 493 276 493 329 477 c 0,7,8
 389 458 389 458 428.5 440.5 c 128,-1,9
 468 423 468 423 496.5 390 c 128,-1,10
 525 357 525 357 525 307 c 0,11,12
 525 264 525 264 498 228.5 c 128,-1,13
 471 193 471 193 426 173 c 1,14,15
 460 153 460 153 475 131.5 c 128,-1,16
 490 110 490 110 490 74 c 0,17,18
 490 27 490 27 462 -10 c 128,-1,19
 434 -47 434 -47 382.5 -67.5 c 128,-1,20
 331 -88 331 -88 263 -88 c 0,21,22
 196 -88 196 -88 132 -68.5 c 128,-1,23
 68 -49 68 -49 16 -11 c 1,24,-1
 66 101 l 1,25,26
 116 68 116 68 165.5 50.5 c 128,-1,27
 215 33 215 33 258 33 c 0,28,29
 290 33 290 33 307.5 43 c 128,-1,30
 325 53 325 53 325 69 c 0,31,32
 325 89 325 89 301 101.5 c 128,-1,33
 277 114 277 114 224 130 c 0,34,35
 165 149 165 149 126 166.5 c 128,-1,36
 87 184 87 184 59 216.5 c 128,-1,37
 31 249 31 249 31 299 c 0,38,39
 31 345 31 345 58 379 c 128,-1,40
 85 413 85 413 135 432 c 1,41,42
 95 453 95 453 80 476 c 128,-1,43
 65 499 65 499 65 532 c 0,44,45
 65 579 65 579 92 616 c 128,-1,46
 119 653 119 653 168.5 673.5 c 128,-1,47
 218 694 218 694 284 694 c 0,48,49
 398 694 398 694 510 632 c 1,50,-1
 457 521 l 1,51,0
 351 575 351 575 286 575 c 0,1,2
208 339 m 128,-1,53
 190 329 190 329 190 311 c 0,54,55
 190 288 190 288 218 273.5 c 128,-1,56
 246 259 246 259 289 259 c 0,57,58
 324 259 324 259 342.5 269.5 c 128,-1,59
 361 280 361 280 361 298 c 0,60,61
 361 320 361 320 332 334.5 c 128,-1,62
 303 349 303 349 260 349 c 0,63,52
 226 349 226 349 208 339 c 128,-1,53
EndSplineSet
EndChar

StartChar: copyright
Encoding: 169 169 108
Width: 723
Flags: W
LayerCount: 2
Fore
SplineSet
532.5 643.5 m 128,-1,1
 610 598 610 598 655 520 c 128,-1,2
 700 442 700 442 700 350 c 0,3,4
 700 259 700 259 655 180.5 c 128,-1,5
 610 102 610 102 532 55.5 c 128,-1,6
 454 9 454 9 360 9 c 0,7,8
 267 9 267 9 189.5 55 c 128,-1,9
 112 101 112 101 67.5 179 c 128,-1,10
 23 257 23 257 23 348 c 256,11,12
 23 439 23 439 68 517.5 c 128,-1,13
 113 596 113 596 190.5 642.5 c 128,-1,14
 268 689 268 689 362 689 c 0,15,0
 455 689 455 689 532.5 643.5 c 128,-1,1
231.5 571 m 128,-1,17
 173 536 173 536 139 477 c 128,-1,18
 105 418 105 418 105 348 c 256,19,20
 105 278 105 278 138.5 219.5 c 128,-1,21
 172 161 172 161 230.5 126.5 c 128,-1,22
 289 92 289 92 360 92 c 0,23,24
 432 92 432 92 491 127 c 128,-1,25
 550 162 550 162 584.5 221 c 128,-1,26
 619 280 619 280 619 350 c 256,27,28
 619 420 619 420 585 478.5 c 128,-1,29
 551 537 551 537 492 571.5 c 128,-1,30
 433 606 433 606 362 606 c 0,31,16
 290 606 290 606 231.5 571 c 128,-1,17
412.5 430.5 m 128,-1,33
 391 442 391 442 370 442 c 0,34,35
 332 442 332 442 306 416 c 128,-1,36
 280 390 280 390 280 351 c 0,37,38
 280 311 280 311 306 284.5 c 128,-1,39
 332 258 332 258 370 258 c 0,40,41
 390 258 390 258 412 268 c 128,-1,42
 434 278 434 278 451 296 c 1,43,-1
 500 242 l 1,44,45
 474 214 474 214 438 198 c 128,-1,46
 402 182 402 182 365 182 c 0,47,48
 317 182 317 182 277.5 203.5 c 128,-1,49
 238 225 238 225 215.5 263.5 c 128,-1,50
 193 302 193 302 193 349 c 256,51,52
 193 396 193 396 216 433.5 c 128,-1,53
 239 471 239 471 279 492.5 c 128,-1,54
 319 514 319 514 368 514 c 0,55,56
 404 514 404 514 440 499 c 128,-1,57
 476 484 476 484 500 458 c 1,58,-1
 451 399 l 1,59,32
 434 419 434 419 412.5 430.5 c 128,-1,33
EndSplineSet
EndChar

StartChar: ordfeminine
Encoding: 170 170 109
Width: 394
Flags: W
LayerCount: 2
Fore
SplineSet
316.5 756 m 128,-1,1
 357 725 357 725 357 668 c 2,2,-1
 357 458 l 1,3,-1
 238 458 l 1,4,-1
 238 498 l 1,5,6
 204 453 204 453 134 453 c 0,7,8
 81 453 81 453 50.5 480.5 c 128,-1,9
 20 508 20 508 20 554 c 256,10,11
 20 600 20 600 54 625 c 128,-1,12
 88 650 88 650 152 651 c 2,13,-1
 237 651 l 1,14,-1
 237 654 l 2,15,16
 237 698 237 698 176 698 c 0,17,18
 132 698 132 698 70 674 c 1,19,-1
 42 754 l 1,20,21
 133 787 133 787 204 787 c 0,22,0
 276 787 276 787 316.5 756 c 128,-1,1
237 561 m 1,24,-1
 237 595 l 1,25,-1
 177 595 l 2,26,27
 135 595 135 595 135 563 c 0,28,29
 135 547 135 547 145.5 538 c 128,-1,30
 156 529 156 529 175 529 c 0,31,23
 217 529 217 529 237 561 c 1,24,-1
EndSplineSet
EndChar

StartChar: logicalnot
Encoding: 172 172 111
Width: 580
Flags: W
LayerCount: 2
Fore
SplineSet
517 430 m 1,0,-1
 517 136 l 1,1,-1
 389 136 l 1,2,-1
 389 316 l 1,3,-1
 32 316 l 1,4,-1
 32 430 l 1,5,-1
 517 430 l 1,0,-1
EndSplineSet
EndChar

StartChar: uni00AD
Encoding: 173 173 112
Width: 375
Flags: W
LayerCount: 2
Fore
SplineSet
55 364 m 1,0,-1
 320 364 l 1,1,-1
 320 250 l 1,2,-1
 55 250 l 1,3,-1
 55 364 l 1,0,-1
EndSplineSet
EndChar

StartChar: registered
Encoding: 174 174 113
Width: 723
Flags: W
LayerCount: 2
Fore
SplineSet
532.5 643.5 m 128,-1,1
 610 598 610 598 655 520 c 128,-1,2
 700 442 700 442 700 350 c 0,3,4
 700 259 700 259 655 180.5 c 128,-1,5
 610 102 610 102 532 55.5 c 128,-1,6
 454 9 454 9 360 9 c 0,7,8
 267 9 267 9 189.5 55 c 128,-1,9
 112 101 112 101 67.5 179 c 128,-1,10
 23 257 23 257 23 348 c 256,11,12
 23 439 23 439 68 517.5 c 128,-1,13
 113 596 113 596 190.5 642.5 c 128,-1,14
 268 689 268 689 362 689 c 0,15,0
 455 689 455 689 532.5 643.5 c 128,-1,1
491 127 m 128,-1,17
 550 162 550 162 584.5 221 c 128,-1,18
 619 280 619 280 619 350 c 256,19,20
 619 420 619 420 585 478.5 c 128,-1,21
 551 537 551 537 492 571.5 c 128,-1,22
 433 606 433 606 362 606 c 0,23,24
 290 606 290 606 231.5 571 c 128,-1,25
 173 536 173 536 139 477 c 128,-1,26
 105 418 105 418 105 348 c 256,27,28
 105 278 105 278 138.5 219.5 c 128,-1,29
 172 161 172 161 230.5 126.5 c 128,-1,30
 289 92 289 92 360 92 c 0,31,16
 432 92 432 92 491 127 c 128,-1,17
489.5 345.5 m 128,-1,33
 475 319 475 319 447 306 c 1,34,-1
 514 202 l 1,35,-1
 421 202 l 1,36,-1
 374 290 l 1,37,-1
 371 290 l 1,38,-1
 314 290 l 1,39,-1
 314 202 l 1,40,-1
 233 202 l 1,41,-1
 233 519 l 1,42,-1
 371 519 l 2,43,44
 435 519 435 519 469.5 490 c 128,-1,45
 504 461 504 461 504 408 c 0,46,32
 504 372 504 372 489.5 345.5 c 128,-1,33
314 354 m 1,47,-1
 371 354 l 2,48,49
 397 354 397 354 411.5 367.5 c 128,-1,50
 426 381 426 381 426 405 c 0,51,52
 426 430 426 430 411.5 442.5 c 128,-1,53
 397 455 397 455 371 455 c 2,54,-1
 314 455 l 1,55,-1
 314 354 l 1,47,-1
EndSplineSet
EndChar

StartChar: degree
Encoding: 176 176 115
Width: 377
Flags: W
LayerCount: 2
Fore
SplineSet
287 783.5 m 128,-1,1
 322 749 322 749 322 700 c 256,2,3
 322 651 322 651 287 616 c 128,-1,4
 252 581 252 581 203 581 c 256,5,6
 154 581 154 581 119 616 c 128,-1,7
 84 651 84 651 84 700 c 256,8,9
 84 749 84 749 119 783.5 c 128,-1,10
 154 818 154 818 203 818 c 256,11,0
 252 818 252 818 287 783.5 c 128,-1,1
167 734.5 m 128,-1,13
 152 720 152 720 152 700 c 256,14,15
 152 680 152 680 167 665.5 c 128,-1,16
 182 651 182 651 203 651 c 256,17,18
 224 651 224 651 238.5 665.5 c 128,-1,19
 253 680 253 680 253 700 c 256,20,21
 253 720 253 720 238.5 734.5 c 128,-1,22
 224 749 224 749 203 749 c 256,23,12
 182 749 182 749 167 734.5 c 128,-1,13
EndSplineSet
EndChar

StartChar: plusminus
Encoding: 177 177 116
Width: 511
Flags: W
LayerCount: 2
Fore
SplineSet
312 457 m 1,0,-1
 478 457 l 1,1,-1
 478 348 l 1,2,-1
 312 348 l 1,3,-1
 312 188 l 1,4,-1
 199 188 l 1,5,-1
 199 348 l 1,6,-1
 32 348 l 1,7,-1
 32 457 l 1,8,-1
 199 457 l 1,9,-1
 199 618 l 1,10,-1
 312 618 l 1,11,-1
 312 457 l 1,0,-1
32 -1 m 1,12,-1
 32 113 l 1,13,-1
 478 113 l 1,14,-1
 478 -1 l 1,15,-1
 32 -1 l 1,12,-1
EndSplineSet
EndChar

StartChar: paragraph
Encoding: 182 182 121
Width: 653
Flags: W
LayerCount: 2
Fore
SplineSet
197 320 m 2,0,1
 122 320 122 320 76.5 352.5 c 128,-1,2
 31 385 31 385 12.5 432.5 c 128,-1,3
 -6 480 -6 480 -6 527 c 0,4,5
 -6 585 -6 585 19 633.5 c 128,-1,6
 44 682 44 682 99 712 c 128,-1,7
 154 742 154 742 238 742 c 2,8,-1
 585 742 l 1,9,-1
 585 -107 l 1,10,-1
 453 -107 l 1,11,-1
 453 640 l 1,12,-1
 355 640 l 1,13,-1
 355 -107 l 1,14,-1
 223 -107 l 1,15,-1
 223 320 l 1,16,-1
 197 320 l 2,0,1
EndSplineSet
EndChar

StartChar: ordmasculine
Encoding: 186 186 125
Width: 414
Flags: W
LayerCount: 2
Fore
SplineSet
343 741 m 128,-1,1
 394 696 394 696 394 620 c 0,2,3
 394 545 394 545 342.5 499.5 c 128,-1,4
 291 454 291 454 206 454 c 0,5,6
 122 454 122 454 71 499.5 c 128,-1,7
 20 545 20 545 20 620 c 0,8,9
 20 696 20 696 71 741 c 128,-1,10
 122 786 122 786 206 786 c 0,11,0
 292 786 292 786 343 741 c 128,-1,1
159.5 672 m 128,-1,13
 142 652 142 652 142 618 c 0,14,15
 142 586 142 586 159.5 566 c 128,-1,16
 177 546 177 546 206 546 c 256,17,18
 235 546 235 546 253 566 c 128,-1,19
 271 586 271 586 271 618 c 0,20,21
 271 652 271 652 253 672 c 128,-1,22
 235 692 235 692 206 692 c 256,23,12
 177 692 177 692 159.5 672 c 128,-1,13
EndSplineSet
EndChar

StartChar: questiondown
Encoding: 191 191 130
Width: 474
Flags: W
LayerCount: 2
Fore
SplineSet
185 399 m 128,-1,1
 161 423 161 423 161 461 c 256,2,3
 161 499 161 499 185 523.5 c 128,-1,4
 209 548 209 548 247 548 c 0,5,6
 284 548 284 548 308 523.5 c 128,-1,7
 332 499 332 499 332 461 c 256,8,9
 332 423 332 423 308.5 399 c 128,-1,10
 285 375 285 375 247 375 c 256,11,0
 209 375 209 375 185 399 c 128,-1,1
390.5 -103 m 128,-1,13
 330 -164 330 -164 222 -164 c 0,14,15
 121 -164 121 -164 63 -118 c 128,-1,16
 5 -72 5 -72 5 11 c 0,17,18
 5 64 5 64 29 99 c 128,-1,19
 53 134 53 134 99 174 c 0,20,21
 139 210 139 210 158 236.5 c 128,-1,22
 177 263 177 263 177 300 c 1,23,-1
 310 300 l 1,24,25
 310 260 310 260 298.5 230 c 128,-1,26
 287 200 287 200 270.5 180.5 c 128,-1,27
 254 161 254 161 228 136 c 0,28,29
 199 109 199 109 185 88.5 c 128,-1,30
 171 68 171 68 171 40 c 0,31,32
 171 -21 171 -21 239 -21 c 0,33,34
 314 -21 314 -21 315 68 c 1,35,-1
 452 67 l 1,36,12
 451 -42 451 -42 390.5 -103 c 128,-1,13
EndSplineSet
Substitution2: "<3,3> Small Caps in Latin lookup 11 subtable" questiondown.sc
EndChar

StartChar: AE
Encoding: 198 198 137
Width: 1106
Flags: W
LayerCount: 2
Fore
SplineSet
682 146 m 1,0,-1
 1062 146 l 1,1,-1
 1062 0 l 1,2,-1
 499 0 l 1,3,-1
 499 144 l 1,4,-1
 261 144 l 1,5,-1
 185 0 l 1,6,-1
 -5 0 l 1,7,-1
 392 701 l 1,8,-1
 1052 701 l 1,9,-1
 1052 555 l 1,10,-1
 682 555 l 1,11,-1
 682 424 l 1,12,-1
 1016 424 l 1,13,-1
 1016 279 l 1,14,-1
 682 279 l 1,15,-1
 682 146 l 1,0,-1
331 278 m 1,16,-1
 499 278 l 1,17,-1
 499 558 l 1,18,-1
 479 558 l 1,19,-1
 331 278 l 1,16,-1
EndSplineSet
EndChar

StartChar: Ccedilla
Encoding: 199 199 138
Width: 692
Flags: W
LayerCount: 2
Fore
SplineSet
565.5 31.5 m 128,-1,1
 498 -3 498 -3 428 -11 c 1,2,-1
 412 -56 l 1,3,4
 454 -65 454 -65 474 -86.5 c 128,-1,5
 494 -108 494 -108 494 -137 c 0,6,7
 494 -185 494 -185 457.5 -209.5 c 128,-1,8
 421 -234 421 -234 366 -234 c 256,9,10
 311 -234 311 -234 256 -214 c 1,11,-1
 284 -134 l 1,12,13
 307 -143 307 -143 335 -143 c 0,14,15
 353 -143 353 -143 364 -137 c 128,-1,16
 375 -131 375 -131 375 -121 c 0,17,18
 375 -110 375 -110 360 -104 c 128,-1,19
 345 -98 345 -98 322 -98 c 2,20,-1
 298 -98 l 1,21,-1
 327 -8 l 1,22,23
 239 6 239 6 170 56 c 128,-1,24
 101 106 101 106 62 183 c 128,-1,25
 23 260 23 260 23 352 c 0,26,27
 23 454 23 454 72 536 c 128,-1,28
 121 618 121 618 206.5 665 c 128,-1,29
 292 712 292 712 398 712 c 0,30,31
 476 712 476 712 552 679.5 c 128,-1,32
 628 647 628 647 681 591 c 1,33,-1
 575 463 l 1,34,35
 541 506 541 506 494 531.5 c 128,-1,36
 447 557 447 557 401 557 c 0,37,38
 348 557 348 557 304.5 530.5 c 128,-1,39
 261 504 261 504 236 457.5 c 128,-1,40
 211 411 211 411 211 354 c 256,41,42
 211 297 211 297 236 250.5 c 128,-1,43
 261 204 261 204 304.5 177.5 c 128,-1,44
 348 151 348 151 401 151 c 0,45,46
 444 151 444 151 491 173 c 128,-1,47
 538 195 538 195 575 233 c 1,48,-1
 682 118 l 1,49,0
 633 66 633 66 565.5 31.5 c 128,-1,1
EndSplineSet
EndChar

StartChar: multiply
Encoding: 215 215 154
Width: 511
Flags: W
LayerCount: 2
Fore
SplineSet
453 445 m 1,0,-1
 336 327 l 1,1,-1
 453 210 l 1,2,-1
 373 129 l 1,3,-1
 256 247 l 1,4,-1
 138 129 l 1,5,-1
 58 210 l 1,6,-1
 175 327 l 1,7,-1
 58 445 l 1,8,-1
 138 525 l 1,9,-1
 256 408 l 1,10,-1
 373 525 l 1,11,-1
 453 445 l 1,0,-1
EndSplineSet
EndChar

StartChar: Oslash
Encoding: 216 216 155
Width: 804
Flags: W
LayerCount: 2
Fore
SplineSet
742.5 510 m 128,-1,1
 781 436 781 436 781 348 c 0,2,3
 781 247 781 247 731.5 165.5 c 128,-1,4
 682 84 682 84 595.5 37 c 128,-1,5
 509 -10 509 -10 402 -10 c 0,6,7
 322 -10 322 -10 253 16 c 1,8,-1
 209 -55 l 1,9,-1
 94 -55 l 1,10,-1
 167 63 l 1,11,12
 99 112 99 112 61 186 c 128,-1,13
 23 260 23 260 23 348 c 0,14,15
 23 449 23 449 72.5 530.5 c 128,-1,16
 122 612 122 612 208.5 658 c 128,-1,17
 295 704 295 704 402 704 c 0,18,19
 478 704 478 704 548 679 c 1,20,-1
 595 755 l 1,21,-1
 711 755 l 1,22,-1
 635 633 l 1,23,0
 704 584 704 584 742.5 510 c 128,-1,1
224 274.5 m 128,-1,25
 237 240 237 240 260 213 c 1,26,-1
 461 539 l 1,27,28
 434 548 434 548 404 548 c 0,29,30
 352 548 352 548 307.5 521.5 c 128,-1,31
 263 495 263 495 237 449.5 c 128,-1,32
 211 404 211 404 211 348 c 0,33,24
 211 309 211 309 224 274.5 c 128,-1,25
499 172 m 128,-1,35
 542 199 542 199 567.5 245.5 c 128,-1,36
 593 292 593 292 593 348 c 0,37,38
 593 427 593 427 543 485 c 1,39,-1
 340 156 l 1,40,41
 371 145 371 145 404 145 c 0,42,34
 456 145 456 145 499 172 c 128,-1,35
EndSplineSet
EndChar

StartChar: Thorn
Encoding: 222 222 161
Width: 689
Flags: W
LayerCount: 2
Fore
SplineSet
588 544.5 m 128,-1,1
 667 480 667 480 667 367 c 0,2,3
 667 248 667 248 588.5 179.5 c 128,-1,4
 510 111 510 111 371 111 c 2,5,-1
 251 111 l 1,6,-1
 251 0 l 1,7,-1
 68 0 l 1,8,-1
 68 701 l 1,9,-1
 251 701 l 1,10,-1
 251 609 l 1,11,-1
 371 609 l 2,12,0
 509 609 509 609 588 544.5 c 128,-1,1
449.5 281.5 m 128,-1,14
 480 310 480 310 480 362 c 0,15,16
 480 412 480 412 449.5 439.5 c 128,-1,17
 419 467 419 467 363 467 c 2,18,-1
 251 467 l 1,19,-1
 251 253 l 1,20,-1
 363 253 l 2,21,13
 419 253 419 253 449.5 281.5 c 128,-1,14
EndSplineSet
EndChar

StartChar: germandbls
Encoding: 223 223 162
Width: 663
Flags: W
LayerCount: 2
Fore
SplineSet
89 628.5 m 128,-1,1
 122 687 122 687 183.5 718.5 c 128,-1,2
 245 750 245 750 328 750 c 0,3,4
 406 750 406 750 465 725 c 128,-1,5
 524 700 524 700 556.5 655 c 128,-1,6
 589 610 589 610 589 550 c 0,7,8
 589 498 589 498 563.5 453 c 128,-1,9
 538 408 538 408 495 383 c 1,10,11
 556 366 556 366 593.5 321 c 128,-1,12
 631 276 631 276 631 214 c 0,13,14
 631 150 631 150 596.5 101.5 c 128,-1,15
 562 53 562 53 499 26.5 c 128,-1,16
 436 0 436 0 352 0 c 2,17,-1
 303 0 l 1,18,-1
 303 128 l 1,19,-1
 342 128 l 2,20,21
 398 128 398 128 428.5 151 c 128,-1,22
 459 174 459 174 459 216 c 256,23,24
 459 258 459 258 426 280 c 128,-1,25
 393 302 393 302 332 302 c 2,26,-1
 313 302 l 1,27,-1
 313 429 l 1,28,29
 363 429 363 429 390 453 c 128,-1,30
 417 477 417 477 417 523 c 0,31,32
 417 568 417 568 394.5 591.5 c 128,-1,33
 372 615 372 615 330 615 c 0,34,35
 284 615 284 615 259 587 c 128,-1,36
 234 559 234 559 234 506 c 2,37,-1
 234 0 l 1,38,-1
 56 0 l 1,39,-1
 56 492 l 2,40,0
 56 570 56 570 89 628.5 c 128,-1,1
EndSplineSet
Substitution2: "<3,3> Small Caps in Latin lookup 11 subtable" germandbls.sc
EndChar

StartChar: ae
Encoding: 230 230 169
Width: 965
Flags: W
LayerCount: 2
Fore
SplineSet
599.5 154.5 m 128,-1,1
 635 128 635 128 682 128 c 0,2,3
 717 128 717 128 750 142 c 128,-1,4
 783 156 783 156 810 183 c 1,5,-1
 903 90 l 1,6,7
 861 43 861 43 800.5 18.5 c 128,-1,8
 740 -6 740 -6 666 -6 c 0,9,10
 590 -6 590 -6 533 22.5 c 128,-1,11
 476 51 476 51 444 105 c 1,12,13
 412 50 412 50 356 20.5 c 128,-1,14
 300 -9 300 -9 223 -9 c 0,15,16
 132 -9 132 -9 79 37 c 128,-1,17
 26 83 26 83 26 159 c 0,18,19
 26 236 26 236 79.5 276.5 c 128,-1,20
 133 317 133 317 234 319 c 2,21,-1
 376 319 l 1,22,-1
 376 338 l 2,23,24
 374 374 374 374 347 393 c 128,-1,25
 320 412 320 412 272 412 c 0,26,27
 236 412 236 412 191.5 401 c 128,-1,28
 147 390 147 390 101 369 c 1,29,-1
 60 490 l 1,30,31
 194 548 194 548 313 548 c 256,32,33
 432 548 432 548 493 489 c 1,34,35
 559 547 559 547 662 547 c 0,36,37
 751 547 751 547 816 508 c 128,-1,38
 881 469 881 469 913.5 397.5 c 128,-1,39
 946 326 946 326 942 231 c 1,40,-1
 558 231 l 1,41,-1
 559 221 l 2,42,0
 564 181 564 181 599.5 154.5 c 128,-1,1
735.5 394.5 m 128,-1,44
 707 425 707 425 663 425 c 0,45,46
 620 425 620 425 591.5 395.5 c 128,-1,47
 563 366 563 366 555 317 c 1,48,-1
 764 317 l 1,49,43
 764 364 764 364 735.5 394.5 c 128,-1,44
213 217.5 m 128,-1,51
 193 202 193 202 193 174 c 0,52,53
 193 144 193 144 213 126.5 c 128,-1,54
 233 109 233 109 267 109 c 0,55,56
 303 109 303 109 331 125 c 128,-1,57
 359 141 359 141 377 173 c 1,58,-1
 376 233 l 1,59,-1
 271 233 l 2,60,50
 233 233 233 233 213 217.5 c 128,-1,51
EndSplineSet
Substitution2: "<3,3> Small Caps in Latin lookup 11 subtable" ae.sc
EndChar

StartChar: ccedilla
Encoding: 231 231 170
Width: 562
Flags: W
LayerCount: 2
Fore
SplineSet
468.5 37 m 128,-1,1
 417 4 417 4 347 -3 c 1,2,-1
 328 -56 l 1,3,4
 370 -65 370 -65 390 -86.5 c 128,-1,5
 410 -108 410 -108 410 -137 c 0,6,7
 410 -185 410 -185 373.5 -209.5 c 128,-1,8
 337 -234 337 -234 282 -234 c 256,9,10
 227 -234 227 -234 172 -214 c 1,11,-1
 200 -134 l 1,12,13
 223 -143 223 -143 251 -143 c 0,14,15
 269 -143 269 -143 280 -137 c 128,-1,16
 291 -131 291 -131 291 -121 c 0,17,18
 291 -110 291 -110 276 -104 c 128,-1,19
 261 -98 261 -98 238 -98 c 2,20,-1
 214 -98 l 1,21,-1
 246 -2 l 1,22,23
 144 15 144 15 84 87 c 128,-1,24
 24 159 24 159 24 268 c 0,25,26
 24 351 24 351 59 414.5 c 128,-1,27
 94 478 94 478 157.5 512.5 c 128,-1,28
 221 547 221 547 304 547 c 0,29,30
 385 547 385 547 448 513.5 c 128,-1,31
 511 480 511 480 546 419 c 1,32,-1
 417 344 l 1,33,34
 379 400 379 400 311 400 c 0,35,36
 263 400 263 400 233 363.5 c 128,-1,37
 203 327 203 327 203 269 c 0,38,39
 203 210 203 210 233 174 c 128,-1,40
 263 138 263 138 311 138 c 0,41,42
 385 138 385 138 417 199 c 1,43,-1
 548 124 l 1,44,0
 520 70 520 70 468.5 37 c 128,-1,1
EndSplineSet
Substitution2: "<3,3> Small Caps in Latin lookup 11 subtable" ccedilla.sc
EndChar

StartChar: eth
Encoding: 240 240 179
Width: 605
Flags: W
LayerCount: 2
Fore
SplineSet
542 464.5 m 128,-1,1
 582 379 582 379 582 287 c 0,2,3
 582 198 582 198 545 131 c 128,-1,4
 508 64 508 64 440.5 27.5 c 128,-1,5
 373 -9 373 -9 283 -9 c 0,6,7
 204 -9 204 -9 145 20 c 128,-1,8
 86 49 86 49 53.5 102.5 c 128,-1,9
 21 156 21 156 21 226 c 0,10,11
 21 292 21 292 49 342 c 128,-1,12
 77 392 77 392 128.5 419 c 128,-1,13
 180 446 180 446 248 446 c 0,14,15
 296 446 296 446 339.5 430.5 c 128,-1,16
 383 415 383 415 407 389 c 1,17,18
 403 433 403 433 374.5 477 c 128,-1,19
 346 521 346 521 299 561 c 1,20,-1
 122 480 l 1,21,-1
 89 548 l 1,22,-1
 228 612 l 1,23,24
 167 650 167 650 101 676 c 1,25,-1
 220 750 l 1,26,27
 296 721 296 721 363 674 c 1,28,-1
 504 739 l 1,29,-1
 537 669 l 1,30,-1
 429 620 l 1,31,0
 502 550 502 550 542 464.5 c 128,-1,1
364.5 166 m 128,-1,33
 392 191 392 191 392 233 c 256,34,35
 392 275 392 275 364 300.5 c 128,-1,36
 336 326 336 326 290 326 c 256,37,38
 244 326 244 326 217.5 301 c 128,-1,39
 191 276 191 276 191 235 c 0,40,41
 191 192 191 192 218 166.5 c 128,-1,42
 245 141 245 141 291 141 c 256,43,32
 337 141 337 141 364.5 166 c 128,-1,33
EndSplineSet
Substitution2: "<3,3> Small Caps in Latin lookup 11 subtable" eth.sc
EndChar

StartChar: divide
Encoding: 247 247 186
Width: 511
Flags: W
LayerCount: 2
Fore
SplineSet
312 566.5 m 128,-1,1
 334 544 334 544 334 509 c 256,2,3
 334 474 334 474 312 451.5 c 128,-1,4
 290 429 290 429 255 429 c 256,5,6
 220 429 220 429 197.5 451.5 c 128,-1,7
 175 474 175 474 175 509 c 256,8,9
 175 544 175 544 197.5 566.5 c 128,-1,10
 220 589 220 589 255 589 c 256,11,0
 290 589 290 589 312 566.5 c 128,-1,1
32 384 m 1,12,-1
 478 384 l 1,13,-1
 478 270 l 1,14,-1
 32 270 l 1,15,-1
 32 384 l 1,12,-1
312 208.5 m 128,-1,17
 334 186 334 186 334 151 c 256,18,19
 334 116 334 116 312 93.5 c 128,-1,20
 290 71 290 71 255 71 c 256,21,22
 220 71 220 71 197.5 93.5 c 128,-1,23
 175 116 175 116 175 151 c 256,24,25
 175 186 175 186 197.5 208.5 c 128,-1,26
 220 231 220 231 255 231 c 256,27,16
 290 231 290 231 312 208.5 c 128,-1,17
EndSplineSet
EndChar

StartChar: oslash
Encoding: 248 248 187
Width: 638
Flags: W
LayerCount: 2
Fore
SplineSet
588 397 m 128,-1,1
 615 341 615 341 615 271 c 0,2,3
 615 188 615 188 578 125.5 c 128,-1,4
 541 63 541 63 474 28.5 c 128,-1,5
 407 -6 407 -6 319 -6 c 0,6,7
 249 -6 249 -6 191 16 c 1,8,-1
 121 -86 l 1,9,-1
 36 -86 l 1,10,-1
 129 50 l 1,11,12
 78 86 78 86 51 143 c 128,-1,13
 24 200 24 200 24 271 c 0,14,15
 24 353 24 353 60.5 415.5 c 128,-1,16
 97 478 97 478 164 512.5 c 128,-1,17
 231 547 231 547 319 547 c 0,18,19
 392 547 392 547 451 523 c 1,20,-1
 521 627 l 1,21,-1
 606 627 l 1,22,-1
 512 489 l 1,23,0
 561 453 561 453 588 397 c 128,-1,1
215 177 m 1,25,-1
 371 407 l 1,26,27
 347 418 347 418 319 418 c 0,28,29
 262 418 262 418 226.5 377 c 128,-1,30
 191 336 191 336 191 269 c 0,31,24
 191 213 191 213 215 177 c 1,25,-1
411.5 160.5 m 128,-1,33
 447 202 447 202 447 269 c 0,34,35
 447 322 447 322 424 360 c 1,36,-1
 268 129 l 1,37,38
 293 119 293 119 319 119 c 0,39,32
 376 119 376 119 411.5 160.5 c 128,-1,33
EndSplineSet
Substitution2: "<3,3> Small Caps in Latin lookup 11 subtable" oslash.sc
EndChar

StartChar: thorn
Encoding: 254 254 193
Width: 686
Flags: W
LayerCount: 2
Fore
SplineSet
318.5 527.5 m 128,-1,1
 359 547 359 547 410 547 c 0,2,3
 485 547 485 547 542 512.5 c 128,-1,4
 599 478 599 478 630.5 414.5 c 128,-1,5
 662 351 662 351 662 268 c 0,6,7
 662 186 662 186 631.5 124 c 128,-1,8
 601 62 601 62 544.5 28 c 128,-1,9
 488 -6 488 -6 414 -6 c 0,10,11
 362 -6 362 -6 320.5 13.5 c 128,-1,12
 279 33 279 33 251 70 c 1,13,-1
 251 -194 l 1,14,-1
 73 -194 l 1,15,-1
 73 742 l 1,16,-1
 251 742 l 1,17,-1
 251 471 l 1,18,0
 278 508 278 508 318.5 527.5 c 128,-1,1
283 369.5 m 128,-1,20
 251 332 251 332 251 272 c 256,21,22
 251 212 251 212 283 175 c 128,-1,23
 315 138 315 138 366 138 c 0,24,25
 418 138 418 138 450.5 175 c 128,-1,26
 483 212 483 212 483 272 c 256,27,28
 483 332 483 332 450.5 369.5 c 128,-1,29
 418 407 418 407 366 407 c 0,30,19
 315 407 315 407 283 369.5 c 128,-1,20
EndSplineSet
Substitution2: "<3,3> Small Caps in Latin lookup 11 subtable" thorn.sc
EndChar

StartChar: Aogonek
Encoding: 260 260 199
Width: 773
Flags: W
LayerCount: 2
Fore
SplineSet
705 -116 m 1,1,-1
 734 -211 l 1,2,3
 685 -233 685 -233 637 -233 c 0,4,5
 584 -233 584 -233 554.5 -204 c 128,-1,6
 525 -175 525 -175 525 -127 c 0,7,8
 525 -95 525 -95 539.5 -62.5 c 128,-1,9
 554 -30 554 -30 583 0 c 1,10,-1
 535 124 l 1,11,-1
 232 124 l 1,12,-1
 183 0 l 1,13,-1
 -5 0 l 1,14,-1
 296 701 l 1,15,-1
 484 701 l 1,16,-1
 778 0 l 1,17,-1
 731 0 l 1,18,19
 692 -28 692 -28 673 -51 c 128,-1,20
 654 -74 654 -74 654 -97 c 0,21,22
 654 -110 654 -110 660 -117 c 128,-1,23
 666 -124 666 -124 677 -124 c 0,24,0
 689 -124 689 -124 705 -116 c 1,1,-1
287 264 m 1,25,-1
 481 264 l 1,26,-1
 385 514 l 1,27,-1
 287 264 l 1,25,-1
EndSplineSet
EndChar

StartChar: aogonek
Encoding: 261 261 200
Width: 601
Flags: W
LayerCount: 2
Fore
SplineSet
458 -51 m 128,-1,1
 439 -74 439 -74 439 -97 c 0,2,3
 439 -110 439 -110 445 -117 c 128,-1,4
 451 -124 451 -124 462 -124 c 0,5,6
 474 -124 474 -124 490 -116 c 1,7,-1
 519 -211 l 1,8,9
 470 -233 470 -233 422 -233 c 0,10,11
 369 -233 369 -233 339.5 -204 c 128,-1,12
 310 -175 310 -175 310 -127 c 0,13,14
 310 -55 310 -55 374 6 c 1,15,-1
 374 61 l 1,16,17
 320 -8 320 -8 211 -8 c 0,18,19
 125 -8 125 -8 75.5 38.5 c 128,-1,20
 26 85 26 85 26 161 c 0,21,22
 26 238 26 238 79.5 281 c 128,-1,23
 133 324 133 324 233 325 c 2,24,-1
 374 325 l 1,25,-1
 374 331 l 2,26,27
 374 370 374 370 347.5 391 c 128,-1,28
 321 412 321 412 271 412 c 0,29,30
 237 412 237 412 194.5 401 c 128,-1,31
 152 390 152 390 109 369 c 1,32,-1
 60 489 l 1,33,34
 126 519 126 519 186.5 533.5 c 128,-1,35
 247 548 247 548 312 548 c 0,36,37
 424 548 424 548 486 496.5 c 128,-1,38
 548 445 548 445 549 352 c 2,39,-1
 549 0 l 1,40,-1
 516 0 l 1,41,0
 477 -28 477 -28 458 -51 c 128,-1,1
336 132.5 m 128,-1,43
 366 152 366 152 374 183 c 1,44,-1
 374 230 l 1,45,-1
 268 230 l 2,46,47
 193 230 193 230 193 174 c 0,48,49
 193 146 193 146 212.5 129.5 c 128,-1,50
 232 113 232 113 266 113 c 0,51,42
 306 113 306 113 336 132.5 c 128,-1,43
EndSplineSet
Substitution2: "<3,3> Small Caps in Latin lookup 11 subtable" aogonek.sc
EndChar

StartChar: Dcroat
Encoding: 272 272 211
Width: 766
Flags: W
LayerCount: 2
Fore
SplineSet
564.5 657 m 128,-1,1
 649 613 649 613 696 533.5 c 128,-1,2
 743 454 743 454 743 351 c 256,3,4
 743 248 743 248 695.5 168 c 128,-1,5
 648 88 648 88 561.5 44 c 128,-1,6
 475 0 475 0 363 0 c 2,7,-1
 68 0 l 1,8,-1
 68 308 l 1,9,-1
 2 308 l 1,10,-1
 2 393 l 1,11,-1
 68 393 l 1,12,-1
 68 701 l 1,13,-1
 370 701 l 2,14,0
 480 701 480 701 564.5 657 c 128,-1,1
469 173 m 128,-1,16
 510 198 510 198 533 244 c 128,-1,17
 556 290 556 290 556 349 c 0,18,19
 556 409 556 409 531.5 455 c 128,-1,20
 507 501 507 501 464 526.5 c 128,-1,21
 421 552 421 552 366 552 c 2,22,-1
 251 552 l 1,23,-1
 251 393 l 1,24,-1
 412 393 l 1,25,-1
 412 308 l 1,26,-1
 251 308 l 1,27,-1
 251 148 l 1,28,-1
 375 148 l 2,29,15
 428 148 428 148 469 173 c 128,-1,16
EndSplineSet
EndChar

StartChar: dcroat
Encoding: 273 273 212
Width: 686
Flags: W
LayerCount: 2
Fore
SplineSet
678 576 m 1,0,-1
 613 576 l 1,1,-1
 613 -1 l 1,2,-1
 436 -1 l 1,3,-1
 436 69 l 1,4,5
 407 33 407 33 366 13 c 128,-1,6
 325 -7 325 -7 275 -7 c 0,7,8
 200 -7 200 -7 143 26 c 128,-1,9
 86 59 86 59 55 118.5 c 128,-1,10
 24 178 24 178 24 256 c 0,11,12
 24 333 24 333 54.5 391.5 c 128,-1,13
 85 450 85 450 141 482 c 128,-1,14
 197 514 197 514 270 514 c 0,15,16
 321 514 321 514 363.5 494 c 128,-1,17
 406 474 406 474 436 437 c 1,18,-1
 436 576 l 1,19,-1
 263 576 l 1,20,-1
 263 663 l 1,21,-1
 436 663 l 1,22,-1
 436 742 l 1,23,-1
 613 742 l 1,24,-1
 613 663 l 1,25,-1
 678 663 l 1,26,-1
 678 576 l 1,0,-1
403.5 166 m 128,-1,28
 436 199 436 199 436 252 c 0,29,30
 436 304 436 304 403.5 337 c 128,-1,31
 371 370 371 370 320 370 c 0,32,33
 268 370 268 370 235.5 337.5 c 128,-1,34
 203 305 203 305 203 252 c 256,35,36
 203 199 203 199 235.5 166 c 128,-1,37
 268 133 268 133 320 133 c 0,38,27
 371 133 371 133 403.5 166 c 128,-1,28
EndSplineSet
Substitution2: "<3,3> Small Caps in Latin lookup 11 subtable" dcroat.sc
EndChar

StartChar: Eogonek
Encoding: 280 280 219
Width: 675
Flags: W
LayerCount: 2
Fore
SplineSet
634 -211 m 1,0,1
 585 -233 585 -233 537 -233 c 0,2,3
 484 -233 484 -233 454.5 -204 c 128,-1,4
 425 -175 425 -175 425 -127 c 0,5,6
 425 -95 425 -95 439.5 -62.5 c 128,-1,7
 454 -30 454 -30 483 0 c 1,8,-1
 68 0 l 1,9,-1
 68 701 l 1,10,-1
 621 701 l 1,11,-1
 621 555 l 1,12,-1
 251 555 l 1,13,-1
 251 424 l 1,14,-1
 585 424 l 1,15,-1
 585 279 l 1,16,-1
 251 278 l 1,17,-1
 251 146 l 1,18,-1
 631 146 l 1,19,-1
 631 0 l 1,20,21
 592 -28 592 -28 573 -51 c 128,-1,22
 554 -74 554 -74 554 -97 c 0,23,24
 554 -110 554 -110 560 -117 c 128,-1,25
 566 -124 566 -124 577 -124 c 0,26,27
 589 -124 589 -124 605 -116 c 1,28,-1
 634 -211 l 1,0,1
EndSplineSet
EndChar

StartChar: eogonek
Encoding: 281 281 220
Width: 603
Flags: W
LayerCount: 2
Fore
SplineSet
509 469 m 128,-1,1
 580 391 580 391 580 255 c 0,2,3
 580 234 580 234 579 223 c 1,4,-1
 203 223 l 1,5,6
 216 177 216 177 248 152.5 c 128,-1,7
 280 128 280 128 326 128 c 0,8,9
 361 128 361 128 393.5 142 c 128,-1,10
 426 156 426 156 453 183 c 1,11,-1
 546 90 l 1,12,13
 533 74 533 74 509 56 c 0,14,15
 471 20 471 20 447.5 -21 c 128,-1,16
 424 -62 424 -62 424 -93 c 256,17,18
 424 -124 424 -124 446 -124 c 0,19,20
 461 -124 461 -124 475 -116 c 1,21,-1
 504 -211 l 1,22,23
 453 -233 453 -233 409 -233 c 0,24,25
 358 -233 358 -233 326.5 -205.5 c 128,-1,26
 295 -178 295 -178 295 -125 c 0,27,28
 295 -63 295 -63 348 -4 c 1,29,30
 324 -6 324 -6 310 -6 c 0,31,32
 223 -6 223 -6 158 28 c 128,-1,33
 93 62 93 62 58.5 124 c 128,-1,34
 24 186 24 186 24 268 c 0,35,36
 24 351 24 351 59 414.5 c 128,-1,37
 94 478 94 478 158 512.5 c 128,-1,38
 222 547 222 547 306 547 c 0,39,0
 438 547 438 547 509 469 c 128,-1,1
407 318 m 1,40,41
 407 365 407 365 379.5 393.5 c 128,-1,42
 352 422 352 422 307 422 c 0,43,44
 265 422 265 422 236.5 394 c 128,-1,45
 208 366 208 366 199 318 c 1,46,-1
 407 318 l 1,40,41
EndSplineSet
Substitution2: "<3,3> Small Caps in Latin lookup 11 subtable" eogonek.sc
EndChar

StartChar: Hbar
Encoding: 294 294 233
Width: 843
Flags: W
LayerCount: 2
Fore
SplineSet
837 603 m 1,0,-1
 837 517 l 1,1,-1
 745 517 l 1,2,-1
 745 0 l 1,3,-1
 562 0 l 1,4,-1
 562 269 l 1,5,-1
 279 269 l 1,6,-1
 279 0 l 1,7,-1
 96 0 l 1,8,-1
 96 517 l 1,9,-1
 4 517 l 1,10,-1
 4 603 l 1,11,-1
 96 603 l 1,12,-1
 96 701 l 1,13,-1
 279 701 l 1,14,-1
 279 603 l 1,15,-1
 562 603 l 1,16,-1
 562 701 l 1,17,-1
 745 701 l 1,18,-1
 745 603 l 1,19,-1
 837 603 l 1,0,-1
562 415 m 1,20,-1
 562 517 l 1,21,-1
 279 517 l 1,22,-1
 279 415 l 1,23,-1
 562 415 l 1,20,-1
EndSplineSet
EndChar

StartChar: hbar
Encoding: 295 295 234
Width: 679
Flags: W
LayerCount: 2
Fore
SplineSet
573 457.5 m 128,-1,1
 627 401 627 401 627 307 c 2,2,-1
 627 0 l 1,3,-1
 449 0 l 1,4,-1
 449 256 l 2,5,6
 449 302 449 302 424.5 328 c 128,-1,7
 400 354 400 354 357 354 c 0,8,9
 308 354 308 354 279.5 320 c 128,-1,10
 251 286 251 286 251 232 c 2,11,-1
 251 0 l 1,12,-1
 73 0 l 1,13,-1
 73 576 l 1,14,-1
 9 576 l 1,15,-1
 9 663 l 1,16,-1
 73 663 l 1,17,-1
 73 742 l 1,18,-1
 251 742 l 1,19,-1
 251 663 l 1,20,-1
 424 663 l 1,21,-1
 424 576 l 1,22,-1
 251 576 l 1,23,-1
 251 419 l 1,24,25
 280 466 280 466 325.5 490 c 128,-1,26
 371 514 371 514 430 514 c 0,27,0
 519 514 519 514 573 457.5 c 128,-1,1
EndSplineSet
Substitution2: "<3,3> Small Caps in Latin lookup 11 subtable" hbar.sc
EndChar

StartChar: Iogonek
Encoding: 302 302 241
Width: 319
Flags: W
LayerCount: 2
Fore
SplineSet
154 -51 m 128,-1,1
 135 -74 135 -74 135 -97 c 0,2,3
 135 -110 135 -110 141 -117 c 128,-1,4
 147 -124 147 -124 158 -124 c 0,5,6
 170 -124 170 -124 186 -116 c 1,7,-1
 215 -211 l 1,8,9
 166 -233 166 -233 118 -233 c 0,10,11
 65 -233 65 -233 35.5 -204 c 128,-1,12
 6 -175 6 -175 6 -127 c 0,13,14
 6 -57 6 -57 68 4 c 1,15,-1
 68 701 l 1,16,-1
 251 701 l 1,17,-1
 251 0 l 1,18,-1
 212 0 l 1,19,0
 173 -28 173 -28 154 -51 c 128,-1,1
EndSplineSet
EndChar

StartChar: iogonek
Encoding: 303 303 242
Width: 313
Flags: W
LayerCount: 2
Fore
SplineSet
87.5 627 m 128,-1,1
 61 654 61 654 61 695 c 0,2,3
 61 737 61 737 87.5 763.5 c 128,-1,4
 114 790 114 790 155 790 c 256,5,6
 196 790 196 790 222.5 763.5 c 128,-1,7
 249 737 249 737 249 695 c 0,8,9
 249 654 249 654 222.5 627 c 128,-1,10
 196 600 196 600 155 600 c 256,11,0
 114 600 114 600 87.5 627 c 128,-1,1
68 541 m 1,12,-1
 245 541 l 1,13,-1
 245 0 l 1,14,-1
 211 0 l 1,15,16
 172 -28 172 -28 153 -51 c 128,-1,17
 134 -74 134 -74 134 -97 c 0,18,19
 134 -110 134 -110 140 -117 c 128,-1,20
 146 -124 146 -124 157 -124 c 0,21,22
 169 -124 169 -124 185 -116 c 1,23,-1
 214 -211 l 1,24,25
 165 -233 165 -233 117 -233 c 0,26,27
 64 -233 64 -233 34.5 -204 c 128,-1,28
 5 -175 5 -175 5 -127 c 0,29,30
 5 -57 5 -57 68 5 c 1,31,-1
 68 541 l 1,12,-1
EndSplineSet
Substitution2: "<3,3> Small Caps in Latin lookup 11 subtable" iogonek.sc
EndChar

StartChar: dotlessi
Encoding: 305 305 244
Width: 313
Flags: W
LayerCount: 2
Fore
SplineSet
68 541 m 1,0,-1
 245 541 l 1,1,-1
 245 0 l 1,2,-1
 68 0 l 1,3,-1
 68 541 l 1,0,-1
EndSplineSet
Substitution2: "<3,3> Small Caps in Latin lookup 11 subtable" dotlessi.sc
EndChar

StartChar: kgreenlandic
Encoding: 312 312 251
Width: 627
Flags: W
LayerCount: 2
Fore
SplineSet
413 0 m 1,0,-1
 299 204 l 1,1,-1
 245 147 l 1,2,-1
 245 0 l 1,3,-1
 68 0 l 1,4,-1
 68 541 l 1,5,-1
 245 541 l 1,6,-1
 245 349 l 1,7,-1
 418 541 l 1,8,-1
 620 541 l 1,9,-1
 422 332 l 1,10,-1
 624 0 l 1,11,-1
 413 0 l 1,0,-1
EndSplineSet
Substitution2: "<3,3> Small Caps in Latin lookup 11 subtable" kgreenlandic.sc
EndChar

StartChar: Lslash
Encoding: 321 321 260
Width: 608
Flags: W
LayerCount: 2
Fore
SplineSet
296 156 m 1,0,-1
 593 156 l 1,1,-1
 593 0 l 1,2,-1
 113 0 l 1,3,-1
 113 303 l 1,4,-1
 18 254 l 1,5,-1
 18 352 l 1,6,-1
 113 401 l 1,7,-1
 113 701 l 1,8,-1
 296 701 l 1,9,-1
 296 496 l 1,10,-1
 405 552 l 1,11,-1
 405 454 l 1,12,-1
 296 398 l 1,13,-1
 296 156 l 1,0,-1
EndSplineSet
EndChar

StartChar: lslash
Encoding: 322 322 261
Width: 422
Flags: W
LayerCount: 2
Fore
SplineSet
405 544 m 1,0,-1
 405 443 l 1,1,-1
 301 389 l 1,2,-1
 301 0 l 1,3,-1
 123 0 l 1,4,-1
 123 297 l 1,5,-1
 18 243 l 1,6,-1
 18 344 l 1,7,-1
 123 398 l 1,8,-1
 123 742 l 1,9,-1
 301 742 l 1,10,-1
 301 490 l 1,11,-1
 405 544 l 1,0,-1
EndSplineSet
Substitution2: "<3,3> Small Caps in Latin lookup 11 subtable" lslash.sc
EndChar

StartChar: Eng
Encoding: 330 330 269
Width: 786
Flags: W
LayerCount: 2
Fore
SplineSet
717 701 m 1,0,-1
 717 0 l 1,1,2
 713 -101 713 -101 647.5 -158.5 c 128,-1,3
 582 -216 582 -216 473 -216 c 0,4,5
 370 -216 370 -216 292 -160 c 1,6,-1
 359 -21 l 1,7,8
 389 -39 389 -39 418.5 -48 c 128,-1,9
 448 -57 448 -57 472 -57 c 0,10,11
 505 -57 505 -57 524.5 -39.5 c 128,-1,12
 544 -22 544 -22 548 12 c 1,13,-1
 239 420 l 1,14,-1
 239 0 l 1,15,-1
 68 0 l 1,16,-1
 68 701 l 1,17,-1
 229 701 l 1,18,-1
 547 279 l 1,19,-1
 547 701 l 1,20,-1
 717 701 l 1,0,-1
EndSplineSet
EndChar

StartChar: eng
Encoding: 331 331 270
Width: 674
Flags: W
LayerCount: 2
Fore
SplineSet
567.5 492 m 128,-1,1
 621 436 621 436 621 341 c 2,2,-1
 621 -20 l 2,3,4
 621 -104 621 -104 566 -152.5 c 128,-1,5
 511 -201 511 -201 426 -201 c 0,6,7
 346 -201 346 -201 286 -167 c 1,8,-1
 331 -40 l 1,9,10
 363 -59 363 -59 391 -59 c 0,11,12
 415 -59 415 -59 429.5 -44.5 c 128,-1,13
 444 -30 444 -30 444 -1 c 2,14,-1
 444 290 l 2,15,16
 444 336 444 336 419 362.5 c 128,-1,17
 394 389 394 389 352 389 c 0,18,19
 308 388 308 388 279.5 360 c 128,-1,20
 251 332 251 332 246 286 c 1,21,-1
 246 0 l 1,22,-1
 68 0 l 1,23,-1
 68 541 l 1,24,-1
 246 541 l 1,25,-1
 246 453 l 1,26,27
 275 500 275 500 320.5 524 c 128,-1,28
 366 548 366 548 425 548 c 0,29,0
 514 548 514 548 567.5 492 c 128,-1,1
EndSplineSet
Substitution2: "<3,3> Small Caps in Latin lookup 11 subtable" eng.sc
EndChar

StartChar: OE
Encoding: 338 338 277
Width: 1114
Flags: W
LayerCount: 2
Fore
SplineSet
1070 146 m 1,0,-1
 1070 0 l 1,1,-1
 401 0 l 2,2,3
 295 0 295 0 208.5 45.5 c 128,-1,4
 122 91 122 91 72.5 170.5 c 128,-1,5
 23 250 23 250 23 349 c 256,6,7
 23 448 23 448 72 528.5 c 128,-1,8
 121 609 121 609 207.5 655 c 128,-1,9
 294 701 294 701 401 701 c 2,10,-1
 1060 701 l 1,11,-1
 1060 555 l 1,12,-1
 690 555 l 1,13,-1
 690 424 l 1,14,-1
 1024 424 l 1,15,-1
 1024 279 l 1,16,-1
 690 279 l 1,17,-1
 690 146 l 1,18,-1
 1070 146 l 1,0,-1
507 151 m 1,19,-1
 507 548 l 1,20,-1
 402 548 l 2,21,22
 348 548 348 548 304.5 522 c 128,-1,23
 261 496 261 496 236 450.5 c 128,-1,24
 211 405 211 405 211 348 c 0,25,26
 211 292 211 292 236 247 c 128,-1,27
 261 202 261 202 304.5 176 c 128,-1,28
 348 150 348 150 402 150 c 2,29,-1
 507 151 l 1,19,-1
EndSplineSet
EndChar

StartChar: oe
Encoding: 339 339 278
Width: 1017
Flags: W
LayerCount: 2
Fore
SplineSet
867 508 m 128,-1,1
 932 469 932 469 964.5 397.5 c 128,-1,2
 997 326 997 326 993 231 c 1,3,-1
 605 231 l 1,4,5
 617 182 617 182 650.5 155 c 128,-1,6
 684 128 684 128 732 128 c 0,7,8
 804 128 804 128 862 183 c 1,9,-1
 955 90 l 1,10,11
 867 -6 867 -6 717 -6 c 0,12,13
 651 -6 651 -6 601 17 c 128,-1,14
 551 40 551 40 520 83 c 1,15,16
 487 40 487 40 436 17 c 128,-1,17
 385 -6 385 -6 319 -6 c 0,18,19
 231 -6 231 -6 164 28.5 c 128,-1,20
 97 63 97 63 60.5 125.5 c 128,-1,21
 24 188 24 188 24 271 c 0,22,23
 24 353 24 353 60.5 415.5 c 128,-1,24
 97 478 97 478 164 512.5 c 128,-1,25
 231 547 231 547 319 547 c 0,26,27
 385 547 385 547 436 524 c 128,-1,28
 487 501 487 501 521 457 c 1,29,30
 553 500 553 500 601.5 523.5 c 128,-1,31
 650 547 650 547 712 547 c 0,32,0
 802 547 802 547 867 508 c 128,-1,1
787.5 394.5 m 128,-1,34
 759 425 759 425 714 425 c 0,35,36
 671 425 671 425 641.5 395.5 c 128,-1,37
 612 366 612 366 603 317 c 1,38,-1
 815 317 l 1,39,33
 816 364 816 364 787.5 394.5 c 128,-1,34
403.5 171 m 128,-1,41
 436 208 436 208 436 268 c 0,42,43
 436 329 436 329 404 366 c 128,-1,44
 372 403 372 403 319 403 c 0,45,46
 267 403 267 403 235 366 c 128,-1,47
 203 329 203 329 203 268 c 0,48,49
 203 208 203 208 235 171 c 128,-1,50
 267 134 267 134 319 134 c 256,51,40
 371 134 371 134 403.5 171 c 128,-1,41
EndSplineSet
Substitution2: "<3,3> Small Caps in Latin lookup 11 subtable" oe.sc
EndChar

StartChar: Scedilla
Encoding: 350 350 289
Width: 646
Flags: W
LayerCount: 2
Fore
SplineSet
556.5 59 m 128,-1,1
 492 3 492 3 388 -8 c 1,2,-1
 371 -56 l 1,3,4
 413 -65 413 -65 433 -86.5 c 128,-1,5
 453 -108 453 -108 453 -137 c 0,6,7
 453 -185 453 -185 416.5 -209.5 c 128,-1,8
 380 -234 380 -234 325 -234 c 256,9,10
 270 -234 270 -234 215 -214 c 1,11,-1
 243 -134 l 1,12,13
 266 -143 266 -143 294 -143 c 0,14,15
 312 -143 312 -143 323 -137 c 128,-1,16
 334 -131 334 -131 334 -121 c 0,17,18
 334 -110 334 -110 319 -104 c 128,-1,19
 304 -98 304 -98 281 -98 c 2,20,-1
 257 -98 l 1,21,-1
 286 -8 l 1,22,23
 211 0 211 0 140 29 c 128,-1,24
 69 58 69 58 16 103 c 1,25,-1
 87 246 l 1,26,27
 140 199 140 199 212.5 169 c 128,-1,28
 285 139 285 139 341 139 c 0,29,30
 382 139 382 139 405.5 154 c 128,-1,31
 429 169 429 169 429 198 c 0,32,33
 429 222 429 222 411.5 238 c 128,-1,34
 394 254 394 254 367.5 263.5 c 128,-1,35
 341 273 341 273 293 286 c 0,36,37
 221 306 221 306 174 326.5 c 128,-1,38
 127 347 127 347 93.5 388.5 c 128,-1,39
 60 430 60 430 60 499 c 0,40,41
 60 564 60 564 94.5 613 c 128,-1,42
 129 662 129 662 192.5 688.5 c 128,-1,43
 256 715 256 715 340 715 c 0,44,45
 416 715 416 715 490 693.5 c 128,-1,46
 564 672 564 672 620 636 c 1,47,-1
 551 490 l 1,48,49
 495 523 495 523 431.5 544 c 128,-1,50
 368 565 368 565 325 565 c 0,51,52
 291 565 291 565 271.5 552.5 c 128,-1,53
 252 540 252 540 252 516 c 0,54,55
 252 493 252 493 269 477.5 c 128,-1,56
 286 462 286 462 311 452.5 c 128,-1,57
 336 443 336 443 385 428 c 0,58,59
 458 407 458 407 505.5 386 c 128,-1,60
 553 365 553 365 587 321.5 c 128,-1,61
 621 278 621 278 621 208 c 0,62,0
 621 115 621 115 556.5 59 c 128,-1,1
EndSplineSet
EndChar

StartChar: scedilla
Encoding: 351 351 290
Width: 517
Flags: W
LayerCount: 2
Fore
SplineSet
228 362 m 128,-1,1
 250 351 250 351 298 338 c 0,2,3
 356 321 356 321 394.5 304.5 c 128,-1,4
 433 288 433 288 461 254.5 c 128,-1,5
 489 221 489 221 489 167 c 0,6,7
 489 97 489 97 441.5 52.5 c 128,-1,8
 394 8 394 8 313 -4 c 1,9,-1
 295 -56 l 1,10,11
 337 -65 337 -65 357 -86.5 c 128,-1,12
 377 -108 377 -108 377 -137 c 0,13,14
 377 -185 377 -185 340.5 -209.5 c 128,-1,15
 304 -234 304 -234 249 -234 c 256,16,17
 194 -234 194 -234 139 -214 c 1,18,-1
 167 -134 l 1,19,20
 189 -143 189 -143 218 -143 c 0,21,22
 236 -143 236 -143 247 -137 c 128,-1,23
 258 -131 258 -131 258 -121 c 0,24,25
 258 -110 258 -110 243 -104 c 128,-1,26
 228 -98 228 -98 205 -98 c 2,27,-1
 181 -98 l 1,28,-1
 211 -5 l 1,29,30
 97 6 97 6 16 69 c 1,31,-1
 72 184 l 1,32,33
 118 152 118 152 168.5 134.5 c 128,-1,34
 219 117 219 117 264 117 c 0,35,36
 290 117 290 117 305.5 125.5 c 128,-1,37
 321 134 321 134 321 150 c 0,38,39
 321 170 321 170 298.5 181 c 128,-1,40
 276 192 276 192 228 205 c 0,41,42
 171 222 171 222 134 238.5 c 128,-1,43
 97 255 97 255 69.5 288 c 128,-1,44
 42 321 42 321 42 374 c 0,45,46
 42 456 42 456 104 502.5 c 128,-1,47
 166 549 166 549 264 549 c 0,48,49
 323 549 323 549 380.5 533 c 128,-1,50
 438 517 438 517 489 486 c 1,51,-1
 429 370 l 1,52,53
 324 425 324 425 257 425 c 0,54,55
 234 425 234 425 220 416.5 c 128,-1,56
 206 408 206 408 206 391 c 0,57,0
 206 373 206 373 228 362 c 128,-1,1
EndSplineSet
Substitution2: "<3,3> Small Caps in Latin lookup 11 subtable" scedilla.sc
EndChar

StartChar: uni0162
Encoding: 354 354 293
Width: 614
Flags: W
LayerCount: 2
Fore
SplineSet
365 0 m 1,0,-1
 345 -56 l 1,1,2
 387 -65 387 -65 407 -86.5 c 128,-1,3
 427 -108 427 -108 427 -137 c 0,4,5
 427 -185 427 -185 390.5 -209.5 c 128,-1,6
 354 -234 354 -234 299 -234 c 256,7,8
 244 -234 244 -234 189 -214 c 1,9,-1
 217 -134 l 1,10,11
 240 -143 240 -143 268 -143 c 0,12,13
 286 -143 286 -143 297 -137 c 128,-1,14
 308 -131 308 -131 308 -121 c 0,15,16
 308 -110 308 -110 293 -104 c 128,-1,17
 278 -98 278 -98 255 -98 c 2,18,-1
 231 -98 l 1,19,-1
 263 0 l 1,20,-1
 215 0 l 1,21,-1
 215 550 l 1,22,-1
 7 550 l 1,23,-1
 7 701 l 1,24,-1
 608 701 l 1,25,-1
 608 550 l 1,26,-1
 398 550 l 1,27,-1
 398 0 l 1,28,-1
 365 0 l 1,0,-1
EndSplineSet
EndChar

StartChar: uni0163
Encoding: 355 355 294
Width: 437
Flags: W
LayerCount: 2
Fore
SplineSet
370 -86.5 m 128,-1,1
 390 -108 390 -108 390 -137 c 0,2,3
 390 -185 390 -185 353.5 -209.5 c 128,-1,4
 317 -234 317 -234 262 -234 c 256,5,6
 207 -234 207 -234 152 -214 c 1,7,-1
 180 -134 l 1,8,9
 203 -143 203 -143 231 -143 c 0,10,11
 249 -143 249 -143 260 -137 c 128,-1,12
 271 -131 271 -131 271 -121 c 0,13,14
 271 -110 271 -110 256 -104 c 128,-1,15
 241 -98 241 -98 218 -98 c 2,16,-1
 194 -98 l 1,17,-1
 225 -3 l 1,18,19
 164 9 164 9 128.5 52.5 c 128,-1,20
 93 96 93 96 93 165 c 2,21,-1
 93 397 l 1,22,-1
 18 397 l 1,23,-1
 18 515 l 1,24,-1
 93 515 l 1,25,-1
 93 665 l 1,26,-1
 270 665 l 1,27,-1
 270 515 l 1,28,-1
 410 515 l 1,29,-1
 410 397 l 1,30,-1
 270 397 l 1,31,-1
 270 193 l 2,32,33
 270 136 270 136 317 136 c 0,34,35
 346 136 346 136 386 154 c 1,36,-1
 420 28 l 1,37,38
 381 6 381 6 327 -4 c 1,39,-1
 308 -56 l 1,40,0
 350 -65 350 -65 370 -86.5 c 128,-1,1
EndSplineSet
Substitution2: "<3,3> Small Caps in Latin lookup 11 subtable" uni0163.sc
EndChar

StartChar: Tbar
Encoding: 358 358 297
Width: 614
Flags: W
LayerCount: 2
Fore
SplineSet
608 550 m 1,0,-1
 398 550 l 1,1,-1
 398 361 l 1,2,-1
 525 361 l 1,3,-1
 525 263 l 1,4,-1
 398 263 l 1,5,-1
 398 0 l 1,6,-1
 215 0 l 1,7,-1
 215 263 l 1,8,-1
 87 263 l 1,9,-1
 87 361 l 1,10,-1
 215 361 l 1,11,-1
 215 550 l 1,12,-1
 7 550 l 1,13,-1
 7 701 l 1,14,-1
 608 701 l 1,15,-1
 608 550 l 1,0,-1
EndSplineSet
EndChar

StartChar: tbar
Encoding: 359 359 298
Width: 437
Flags: W
LayerCount: 2
Fore
SplineSet
420 28 m 1,0,1
 390 11 390 11 351 1.5 c 128,-1,2
 312 -8 312 -8 272 -8 c 0,3,4
 192 -8 192 -8 142.5 38 c 128,-1,5
 93 84 93 84 93 165 c 2,6,-1
 93 239 l 1,7,-1
 18 239 l 1,8,-1
 18 342 l 1,9,-1
 93 342 l 1,10,-1
 93 412 l 1,11,-1
 18 412 l 1,12,-1
 18 515 l 1,13,-1
 93 515 l 1,14,-1
 93 665 l 1,15,-1
 270 665 l 1,16,-1
 270 515 l 1,17,-1
 410 515 l 1,18,-1
 410 412 l 1,19,-1
 270 412 l 1,20,-1
 270 342 l 1,21,-1
 410 342 l 1,22,-1
 410 239 l 1,23,-1
 270 239 l 1,24,-1
 270 193 l 2,25,26
 270 136 270 136 317 136 c 0,27,28
 346 136 346 136 386 154 c 1,29,-1
 420 28 l 1,0,1
EndSplineSet
Substitution2: "<3,3> Small Caps in Latin lookup 11 subtable" tbar.sc
EndChar

StartChar: Uogonek
Encoding: 370 370 309
Width: 749
Flags: W
LayerCount: 2
Fore
SplineSet
692 701 m 1,0,-1
 692 289 l 2,1,2
 692 211 692 211 664 149.5 c 128,-1,3
 636 88 636 88 583 49 c 1,4,5
 548 15 548 15 526.5 -24.5 c 128,-1,6
 505 -64 505 -64 505 -93 c 0,7,8
 505 -124 505 -124 527 -124 c 0,9,10
 542 -124 542 -124 556 -116 c 1,11,-1
 585 -211 l 1,12,13
 534 -233 534 -233 490 -233 c 0,14,15
 439 -233 439 -233 407.5 -205.5 c 128,-1,16
 376 -178 376 -178 376 -125 c 0,17,18
 376 -65 376 -65 423 -11 c 1,19,20
 393 -13 393 -13 376 -13 c 0,21,22
 280 -13 280 -13 207.5 24 c 128,-1,23
 135 61 135 61 95.5 129.5 c 128,-1,24
 56 198 56 198 56 289 c 2,25,-1
 56 701 l 1,26,-1
 239 701 l 1,27,-1
 239 289 l 2,28,29
 239 223 239 223 278 183 c 128,-1,30
 317 143 317 143 377 143 c 0,31,32
 436 143 436 143 472.5 182.5 c 128,-1,33
 509 222 509 222 509 289 c 2,34,-1
 509 701 l 1,35,-1
 692 701 l 1,0,-1
EndSplineSet
EndChar

StartChar: uogonek
Encoding: 371 371 310
Width: 664
Flags: W
LayerCount: 2
Fore
SplineSet
503 -51 m 128,-1,1
 484 -74 484 -74 484 -97 c 0,2,3
 484 -110 484 -110 490 -117 c 128,-1,4
 496 -124 496 -124 507 -124 c 0,5,6
 519 -124 519 -124 535 -116 c 1,7,-1
 564 -211 l 1,8,9
 515 -233 515 -233 467 -233 c 0,10,11
 414 -233 414 -233 384.5 -204 c 128,-1,12
 355 -175 355 -175 355 -127 c 0,13,14
 355 -57 355 -57 418 5 c 1,15,-1
 418 88 l 1,16,17
 363 -6 363 -6 245 -8 c 0,18,19
 157 -8 157 -8 104.5 48.5 c 128,-1,20
 52 105 52 105 52 199 c 2,21,-1
 52 541 l 1,22,-1
 230 541 l 1,23,-1
 230 250 l 2,24,25
 230 204 230 204 253.5 178 c 128,-1,26
 277 152 277 152 317 152 c 0,27,28
 364 153 364 153 391 186.5 c 128,-1,29
 418 220 418 220 418 274 c 2,30,-1
 418 541 l 1,31,-1
 596 541 l 1,32,-1
 596 0 l 1,33,-1
 561 0 l 1,34,0
 522 -28 522 -28 503 -51 c 128,-1,1
EndSplineSet
Substitution2: "<3,3> Small Caps in Latin lookup 11 subtable" uogonek.sc
EndChar

StartChar: uni018F
Encoding: 399 399 322
Width: 791
Flags: W
LayerCount: 2
Fore
SplineSet
203 37.5 m 128,-1,1
 119 88 119 88 73 180 c 128,-1,2
 27 272 27 272 27 391 c 1,3,-1
 574 391 l 1,4,5
 563 464 563 464 514 510.5 c 128,-1,6
 465 557 465 557 398 557 c 0,7,8
 349 557 349 557 306.5 532 c 128,-1,9
 264 507 264 507 237 465 c 1,10,-1
 110 594 l 1,11,12
 163 651 163 651 235 681.5 c 128,-1,13
 307 712 307 712 396 712 c 0,14,15
 500 712 500 712 583.5 665 c 128,-1,16
 667 618 667 618 715 536 c 128,-1,17
 763 454 763 454 763 352 c 0,18,19
 763 249 763 249 715 166 c 128,-1,20
 667 83 667 83 583 35 c 128,-1,21
 499 -13 499 -13 396 -13 c 0,22,0
 287 -13 287 -13 203 37.5 c 128,-1,1
504.5 178.5 m 128,-1,24
 549 214 549 214 567 274 c 1,25,-1
 226 274 l 1,26,27
 244 214 244 214 290 178.5 c 128,-1,28
 336 143 336 143 398 143 c 256,29,23
 460 143 460 143 504.5 178.5 c 128,-1,24
EndSplineSet
EndChar

StartChar: florin
Encoding: 402 402 323
Width: 413
Flags: W
LayerCount: 2
Fore
SplineSet
317 593.5 m 128,-1,1
 298 576 298 576 294 547 c 2,2,-1
 284 466 l 1,3,-1
 405 466 l 1,4,-1
 391 350 l 1,5,-1
 270 350 l 1,6,-1
 225 -23 l 2,7,8
 214 -105 214 -105 157.5 -153.5 c 128,-1,9
 101 -202 101 -202 14 -202 c 0,10,11
 -20 -202 -20 -202 -55 -191.5 c 128,-1,12
 -90 -181 -90 -181 -112 -163 c 1,13,-1
 -68 -39 l 1,14,15
 -55 -50 -55 -50 -38.5 -55.5 c 128,-1,16
 -22 -61 -22 -61 -8 -61 c 0,17,18
 17 -61 17 -61 32 -44 c 128,-1,19
 47 -27 47 -27 51 4 c 2,20,-1
 94 350 l 1,21,-1
 21 350 l 1,22,-1
 35 466 l 1,23,-1
 108 466 l 1,24,-1
 121 573 l 2,25,26
 132 655 132 655 190 703.5 c 128,-1,27
 248 752 248 752 336 752 c 0,28,29
 377 752 377 752 418.5 741.5 c 128,-1,30
 460 731 460 731 488 713 c 1,31,-1
 428 589 l 1,32,33
 414 600 414 600 397 605.5 c 128,-1,34
 380 611 380 611 365 611 c 0,35,0
 336 611 336 611 317 593.5 c 128,-1,1
EndSplineSet
EndChar

StartChar: Ohorn
Encoding: 416 416 324
Width: 833
Flags: W
LayerCount: 2
Fore
SplineSet
800 742 m 0,1,2
 800 689 800 689 771.5 649 c 128,-1,3
 743 609 743 609 692 590 c 1,4,5
 735 542 735 542 758 481.5 c 128,-1,6
 781 421 781 421 781 352 c 0,7,8
 781 249 781 249 731.5 166 c 128,-1,9
 682 83 682 83 595.5 35 c 128,-1,10
 509 -13 509 -13 402 -13 c 256,11,12
 295 -13 295 -13 208.5 34.5 c 128,-1,13
 122 82 122 82 72.5 165.5 c 128,-1,14
 23 249 23 249 23 352 c 0,15,16
 23 454 23 454 72.5 536 c 128,-1,17
 122 618 122 618 208.5 665 c 128,-1,18
 295 712 295 712 402 712 c 0,19,20
 496 712 496 712 576 675 c 0,21,22
 587 671 587 671 602 671 c 0,23,24
 630 671 630 671 646 690 c 128,-1,25
 662 709 662 709 662 737 c 0,26,27
 662 771 662 771 640 802 c 1,28,-1
 772 850 l 1,29,0
 800 794 800 794 800 742 c 0,1,2
499.5 170.5 m 128,-1,31
 543 198 543 198 568 245.5 c 128,-1,32
 593 293 593 293 593 351 c 0,33,34
 593 408 593 408 568 455.5 c 128,-1,35
 543 503 543 503 499.5 530 c 128,-1,36
 456 557 456 557 404 557 c 256,37,38
 352 557 352 557 307.5 530 c 128,-1,39
 263 503 263 503 237 455.5 c 128,-1,40
 211 408 211 408 211 351 c 0,41,42
 211 293 211 293 237.5 245.5 c 128,-1,43
 264 198 264 198 308 170.5 c 128,-1,44
 352 143 352 143 404 143 c 256,45,30
 456 143 456 143 499.5 170.5 c 128,-1,31
EndSplineSet
EndChar

StartChar: ohorn
Encoding: 417 417 325
Width: 679
Flags: W
LayerCount: 2
Fore
SplineSet
695 582 m 0,1,2
 695 525 695 525 662.5 483 c 128,-1,3
 630 441 630 441 572 425 c 1,4,5
 615 359 615 359 615 271 c 0,6,7
 615 188 615 188 578 125.5 c 128,-1,8
 541 63 541 63 474 28.5 c 128,-1,9
 407 -6 407 -6 319 -6 c 256,10,11
 231 -6 231 -6 164 28.5 c 128,-1,12
 97 63 97 63 60.5 125.5 c 128,-1,13
 24 188 24 188 24 271 c 0,14,15
 24 353 24 353 60.5 415.5 c 128,-1,16
 97 478 97 478 164 512.5 c 128,-1,17
 231 547 231 547 319 547 c 0,18,19
 394 547 394 547 459 520 c 1,20,-1
 461 519 l 1,21,-1
 466 517 l 2,22,23
 479 511 479 511 497 511 c 0,24,25
 525 511 525 511 541 530 c 128,-1,26
 557 549 557 549 557 577 c 0,27,28
 557 611 557 611 535 642 c 1,29,-1
 667 690 l 1,30,0
 695 634 695 634 695 582 c 0,1,2
404 171 m 128,-1,32
 436 208 436 208 436 269 c 0,33,34
 436 329 436 329 403.5 366 c 128,-1,35
 371 403 371 403 319 403 c 256,36,37
 267 403 267 403 235 366 c 128,-1,38
 203 329 203 329 203 269 c 0,39,40
 203 208 203 208 235 171 c 128,-1,41
 267 134 267 134 319 134 c 0,42,31
 372 134 372 134 404 171 c 128,-1,32
EndSplineSet
Substitution2: "<3,3> Small Caps in Latin lookup 11 subtable" ohorn.sc
EndChar

StartChar: Uhorn
Encoding: 431 431 326
Width: 797
Flags: W
LayerCount: 2
Fore
SplineSet
817 752 m 0,1,2
 817 698 817 698 785 663 c 128,-1,3
 753 628 753 628 692 614 c 1,4,-1
 692 289 l 2,5,6
 692 198 692 198 653.5 129.5 c 128,-1,7
 615 61 615 61 543.5 24 c 128,-1,8
 472 -13 472 -13 376 -13 c 256,9,10
 280 -13 280 -13 207.5 24 c 128,-1,11
 135 61 135 61 95.5 129.5 c 128,-1,12
 56 198 56 198 56 289 c 2,13,-1
 56 701 l 1,14,-1
 239 701 l 1,15,-1
 239 289 l 2,16,17
 239 223 239 223 278 183 c 128,-1,18
 317 143 317 143 377 143 c 0,19,20
 436 143 436 143 472.5 182.5 c 128,-1,21
 509 222 509 222 509 289 c 2,22,-1
 509 701 l 1,23,-1
 628 701 l 2,24,25
 657 701 657 701 671.5 715 c 128,-1,26
 686 729 686 729 686 752 c 0,27,28
 686 777 686 777 670 803 c 1,29,-1
 795 850 l 1,30,0
 817 797 817 797 817 752 c 0,1,2
EndSplineSet
EndChar

StartChar: uhorn
Encoding: 432 432 327
Width: 687
Flags: W
LayerCount: 2
Fore
SplineSet
712 592 m 0,1,2
 712 540 712 540 682 505 c 128,-1,3
 652 470 652 470 596 456 c 1,4,-1
 596 0 l 1,5,-1
 418 0 l 1,6,-1
 418 88 l 1,7,8
 363 -6 363 -6 245 -8 c 0,9,10
 157 -8 157 -8 104.5 48.5 c 128,-1,11
 52 105 52 105 52 199 c 2,12,-1
 52 541 l 1,13,-1
 230 541 l 1,14,-1
 230 250 l 2,15,16
 230 204 230 204 253.5 178 c 128,-1,17
 277 152 277 152 317 152 c 0,18,19
 364 153 364 153 391 186.5 c 128,-1,20
 418 220 418 220 418 274 c 2,21,-1
 418 541 l 1,22,-1
 523 541 l 2,23,24
 552 541 552 541 566.5 555 c 128,-1,25
 581 569 581 569 581 592 c 0,26,27
 581 617 581 617 565 643 c 1,28,-1
 690 690 l 1,29,0
 712 637 712 637 712 592 c 0,1,2
EndSplineSet
Substitution2: "<3,3> Small Caps in Latin lookup 11 subtable" uhorn.sc
EndChar

StartChar: uni01EA
Encoding: 490 490 339
Width: 804
Flags: W
LayerCount: 2
Fore
SplineSet
735.5 173 m 128,-1,1
 690 92 690 92 611 44 c 1,2,3
 578 10 578 10 558 -27.5 c 128,-1,4
 538 -65 538 -65 538 -93 c 0,5,6
 538 -124 538 -124 560 -124 c 0,7,8
 575 -124 575 -124 589 -116 c 1,9,-1
 618 -211 l 1,10,11
 567 -233 567 -233 523 -233 c 0,12,13
 472 -233 472 -233 440.5 -205.5 c 128,-1,14
 409 -178 409 -178 409 -125 c 0,15,16
 409 -65 409 -65 457 -10 c 1,17,18
 430 -13 430 -13 402 -13 c 0,19,20
 295 -13 295 -13 208.5 34.5 c 128,-1,21
 122 82 122 82 72.5 165.5 c 128,-1,22
 23 249 23 249 23 352 c 0,23,24
 23 454 23 454 72.5 536 c 128,-1,25
 122 618 122 618 208.5 665 c 128,-1,26
 295 712 295 712 402 712 c 256,27,28
 509 712 509 712 595.5 665 c 128,-1,29
 682 618 682 618 731.5 536 c 128,-1,30
 781 454 781 454 781 352 c 0,31,0
 781 254 781 254 735.5 173 c 128,-1,1
237.5 245.5 m 128,-1,33
 264 198 264 198 308 170.5 c 128,-1,34
 352 143 352 143 404 143 c 256,35,36
 456 143 456 143 499.5 170.5 c 128,-1,37
 543 198 543 198 568 245.5 c 128,-1,38
 593 293 593 293 593 351 c 0,39,40
 593 408 593 408 568 455.5 c 128,-1,41
 543 503 543 503 499.5 530 c 128,-1,42
 456 557 456 557 404 557 c 256,43,44
 352 557 352 557 307.5 530 c 128,-1,45
 263 503 263 503 237 455.5 c 128,-1,46
 211 408 211 408 211 351 c 0,47,32
 211 293 211 293 237.5 245.5 c 128,-1,33
EndSplineSet
EndChar

StartChar: uni01EB
Encoding: 491 491 340
Width: 638
Flags: W
LayerCount: 2
Fore
SplineSet
455.5 -20.5 m 128,-1,1
 432 -62 432 -62 432 -93 c 256,2,3
 432 -124 432 -124 454 -124 c 0,4,5
 469 -124 469 -124 483 -116 c 1,6,-1
 512 -211 l 1,7,8
 461 -233 461 -233 417 -233 c 0,9,10
 366 -233 366 -233 334.5 -205.5 c 128,-1,11
 303 -178 303 -178 303 -125 c 0,12,13
 303 -63 303 -63 356 -4 c 1,14,15
 332 -6 332 -6 319 -6 c 0,16,17
 231 -6 231 -6 164 28.5 c 128,-1,18
 97 63 97 63 60.5 125.5 c 128,-1,19
 24 188 24 188 24 271 c 0,20,21
 24 353 24 353 60.5 415.5 c 128,-1,22
 97 478 97 478 164 512.5 c 128,-1,23
 231 547 231 547 319 547 c 256,24,25
 407 547 407 547 474 512.5 c 128,-1,26
 541 478 541 478 578 415.5 c 128,-1,27
 615 353 615 353 615 271 c 0,28,29
 615 203 615 203 590 148 c 128,-1,30
 565 93 565 93 518 56 c 0,31,0
 479 21 479 21 455.5 -20.5 c 128,-1,1
235 171 m 128,-1,33
 267 134 267 134 319 134 c 0,34,35
 372 134 372 134 404 171 c 128,-1,36
 436 208 436 208 436 269 c 0,37,38
 436 329 436 329 403.5 366 c 128,-1,39
 371 403 371 403 319 403 c 256,40,41
 267 403 267 403 235 366 c 128,-1,42
 203 329 203 329 203 269 c 0,43,32
 203 208 203 208 235 171 c 128,-1,33
EndSplineSet
Substitution2: "<3,3> Small Caps in Latin lookup 11 subtable" uni01EB.sc
EndChar

StartChar: uni0237
Encoding: 567 567 383
Width: 312
Flags: W
LayerCount: 2
Fore
SplineSet
16 -60 m 0,1,2
 42 -60 42 -60 56 -43 c 128,-1,3
 70 -26 70 -26 70 7 c 2,4,-1
 70 541 l 1,5,-1
 248 541 l 1,6,-1
 248 -20 l 2,7,8
 248 -104 248 -104 196.5 -152.5 c 128,-1,9
 145 -201 145 -201 57 -201 c 0,10,11
 -6 -201 -6 -201 -63 -180 c 1,12,-1
 -28 -53 l 1,13,0
 -2 -60 -2 -60 16 -60 c 0,1,2
EndSplineSet
EndChar

StartChar: uni0259
Encoding: 601 601 384
Width: 603
Flags: W
LayerCount: 2
Fore
SplineSet
445 513 m 128,-1,1
 510 479 510 479 544.5 417 c 128,-1,2
 579 355 579 355 579 273 c 0,3,4
 579 190 579 190 544 126.5 c 128,-1,5
 509 63 509 63 445 28.5 c 128,-1,6
 381 -6 381 -6 297 -6 c 0,7,8
 165 -6 165 -6 94 72 c 128,-1,9
 23 150 23 150 23 286 c 0,10,11
 23 307 23 307 24 318 c 1,12,-1
 400 318 l 1,13,14
 387 364 387 364 355 388.5 c 128,-1,15
 323 413 323 413 277 413 c 0,16,17
 242 413 242 413 209.5 399 c 128,-1,18
 177 385 177 385 150 358 c 1,19,-1
 57 451 l 1,20,21
 99 498 99 498 158.5 522.5 c 128,-1,22
 218 547 218 547 293 547 c 0,23,0
 380 547 380 547 445 513 c 128,-1,1
367 147 m 128,-1,25
 395 175 395 175 404 223 c 1,26,-1
 196 223 l 1,27,28
 196 176 196 176 223.5 147.5 c 128,-1,29
 251 119 251 119 296 119 c 0,30,24
 339 119 339 119 367 147 c 128,-1,25
EndSplineSet
Substitution2: "<3,3> Small Caps in Latin lookup 11 subtable" uni0259.sc
EndChar

StartChar: uni02BB
Encoding: 699 699 385
Width: 237
Flags: W
LayerCount: 2
Fore
SplineSet
187 484 m 1,0,-1
 50 515 l 1,1,-1
 80 700 l 1,2,-1
 187 700 l 1,3,-1
 187 484 l 1,0,-1
EndSplineSet
EndChar

StartChar: uni02BC
Encoding: 700 700 386
Width: 209
Flags: W
LayerCount: 2
Fore
SplineSet
44 701 m 1,0,-1
 164 701 l 1,1,-1
 141 438 l 1,2,-1
 44 438 l 1,3,-1
 44 701 l 1,0,-1
EndSplineSet
EndChar

StartChar: uni02BE
Encoding: 702 702 387
Width: 226
Flags: W
LayerCount: 2
Fore
SplineSet
58 646 m 1,0,1
 79 646 79 646 94 660.5 c 128,-1,2
 109 675 109 675 109 695 c 0,3,4
 109 716 109 716 94 730.5 c 128,-1,5
 79 745 79 745 58 745 c 1,6,-1
 58 816 l 1,7,8
 108 816 108 816 143.5 780.5 c 128,-1,9
 179 745 179 745 179 695 c 256,10,11
 179 645 179 645 143.5 610 c 128,-1,12
 108 575 108 575 58 575 c 1,13,-1
 58 646 l 1,0,1
EndSplineSet
EndChar

StartChar: uni02BF
Encoding: 703 703 388
Width: 225
Flags: W
LayerCount: 2
Fore
SplineSet
167 646 m 1,0,1
 146 646 146 646 131 660.5 c 128,-1,2
 116 675 116 675 116 695 c 0,3,4
 116 716 116 716 131 730.5 c 128,-1,5
 146 745 146 745 167 745 c 1,6,-1
 167 816 l 1,7,8
 117 816 117 816 81.5 780.5 c 128,-1,9
 46 745 46 745 46 695 c 256,10,11
 46 645 46 645 81.5 610 c 128,-1,12
 117 575 117 575 167 575 c 1,13,-1
 167 646 l 1,0,1
EndSplineSet
EndChar

StartChar: uni02C8
Encoding: 712 712 391
Width: 158
Flags: W
LayerCount: 2
Fore
SplineSet
20 508 m 1,0,-1
 20 701 l 1,1,-1
 138 701 l 1,2,-1
 138 508 l 1,3,-1
 20 508 l 1,0,-1
EndSplineSet
EndChar

StartChar: uni02CC
Encoding: 716 716 395
Width: 160
Flags: W
LayerCount: 2
Fore
SplineSet
20 -223 m 1,0,-1
 20 -30 l 1,1,-1
 140 -30 l 1,2,-1
 140 -223 l 1,3,-1
 20 -223 l 1,0,-1
EndSplineSet
EndChar

StartChar: gravecomb
Encoding: 768 768 402
Width: 0
Flags: W
LayerCount: 2
Fore
SplineSet
-162 770 m 1,0,-1
 -56 609 l 1,1,-1
 -179 599 l 1,2,-1
 -310 714 l 1,3,-1
 -162 770 l 1,0,-1
EndSplineSet
Substitution2: "<3,3> Small Caps in Latin lookup 11 subtable" gravecomb.sc
EndChar

StartChar: acutecomb
Encoding: 769 769 403
Width: 0
Flags: W
LayerCount: 2
Fore
SplineSet
-163 770 m 1,0,-1
 -16 714 l 1,1,-1
 -161 599 l 1,2,-1
 -283 609 l 1,3,-1
 -163 770 l 1,0,-1
EndSplineSet
Substitution2: "<3,3> Small Caps in Latin lookup 11 subtable" acutecomb.sc
EndChar

StartChar: uni0302
Encoding: 770 770 404
Width: 0
Flags: W
LayerCount: 2
Fore
SplineSet
-16 610 m 1,0,-1
 -144 610 l 1,1,-1
 -203 677 l 1,2,-1
 -263 610 l 1,3,-1
 -391 610 l 1,4,-1
 -282 763 l 1,5,-1
 -125 763 l 1,6,-1
 -16 610 l 1,0,-1
EndSplineSet
Substitution2: "<3,3> Small Caps in Latin lookup 11 subtable" uni0302.sc
EndChar

StartChar: tildecomb
Encoding: 771 771 405
Width: 0
Flags: W
LayerCount: 2
Fore
SplineSet
-43 638 m 128,-1,1
 -66 598 -66 598 -117 598 c 0,2,3
 -141 598 -141 598 -161 605.5 c 128,-1,4
 -181 613 -181 613 -208 627 c 0,5,6
 -236 643 -236 643 -250 643 c 0,7,8
 -278 643 -278 643 -278 601 c 1,9,-1
 -379 601 l 1,10,11
 -379 679 -379 679 -356 719.5 c 128,-1,12
 -333 760 -333 760 -281 760 c 0,13,14
 -258 760 -258 760 -237 752 c 128,-1,15
 -216 744 -216 744 -191 731 c 0,16,17
 -161 715 -161 715 -149 715 c 0,18,19
 -120 715 -120 715 -120 756 c 1,20,-1
 -20 756 l 1,21,0
 -20 678 -20 678 -43 638 c 128,-1,1
EndSplineSet
Substitution2: "<3,3> Small Caps in Latin lookup 11 subtable" tildecomb.sc
EndChar

StartChar: uni0304
Encoding: 772 772 406
Width: 0
Flags: W
LayerCount: 2
Fore
SplineSet
-315 744 m 1,0,-1
 -6 744 l 1,1,-1
 -6 639 l 1,2,-1
 -315 639 l 1,3,-1
 -315 744 l 1,0,-1
EndSplineSet
Substitution2: "<3,3> Small Caps in Latin lookup 11 subtable" uni0304.sc
EndChar

StartChar: uni0306
Encoding: 774 774 407
Width: 0
Flags: W
LayerCount: 2
Fore
SplineSet
-224 719.5 m 128,-1,1
 -209 704 -209 704 -186 704 c 0,2,3
 -164 704 -164 704 -148.5 719.5 c 128,-1,4
 -133 735 -133 735 -131 761 c 1,5,-1
 -21 761 l 1,6,7
 -24 688 -24 688 -69 644 c 128,-1,8
 -114 600 -114 600 -186 600 c 256,9,10
 -258 600 -258 600 -303.5 644 c 128,-1,11
 -349 688 -349 688 -352 761 c 1,12,-1
 -241 761 l 1,13,0
 -239 735 -239 735 -224 719.5 c 128,-1,1
EndSplineSet
Substitution2: "<3,3> Small Caps in Latin lookup 11 subtable" uni0306.sc
EndChar

StartChar: uni0307
Encoding: 775 775 408
Width: 0
Flags: W
LayerCount: 2
Fore
SplineSet
-64.5 763.5 m 128,-1,1
 -38 737 -38 737 -38 695 c 0,2,3
 -38 654 -38 654 -64.5 627 c 128,-1,4
 -91 600 -91 600 -132 600 c 256,5,6
 -173 600 -173 600 -199.5 627 c 128,-1,7
 -226 654 -226 654 -226 695 c 0,8,9
 -226 737 -226 737 -199.5 763.5 c 128,-1,10
 -173 790 -173 790 -132 790 c 256,11,0
 -91 790 -91 790 -64.5 763.5 c 128,-1,1
EndSplineSet
Substitution2: "<3,3> Small Caps in Latin lookup 11 subtable" uni0307.sc
EndChar

StartChar: uni0308
Encoding: 776 776 409
Width: 0
Flags: W
LayerCount: 2
Fore
SplineSet
-272.5 744 m 128,-1,1
 -251 722 -251 722 -251 688 c 0,2,3
 -251 655 -251 655 -272.5 633.5 c 128,-1,4
 -294 612 -294 612 -327 612 c 256,5,6
 -360 612 -360 612 -381.5 633.5 c 128,-1,7
 -403 655 -403 655 -403 688 c 0,8,9
 -403 722 -403 722 -381.5 744 c 128,-1,10
 -360 766 -360 766 -327 766 c 256,11,0
 -294 766 -294 766 -272.5 744 c 128,-1,1
-80.5 744 m 128,-1,13
 -59 722 -59 722 -59 688 c 0,14,15
 -59 655 -59 655 -80.5 633.5 c 128,-1,16
 -102 612 -102 612 -135 612 c 0,17,18
 -169 612 -169 612 -190 633.5 c 128,-1,19
 -211 655 -211 655 -211 688 c 0,20,21
 -211 723 -211 723 -190 744.5 c 128,-1,22
 -169 766 -169 766 -135 766 c 0,23,12
 -102 766 -102 766 -80.5 744 c 128,-1,13
EndSplineSet
Substitution2: "<3,3> Small Caps in Latin lookup 11 subtable" uni0308.sc
EndChar

StartChar: hookabovecomb
Encoding: 777 777 410
Width: 0
Flags: W
LayerCount: 2
Fore
SplineSet
-60 790.5 m 128,-1,1
 -30 765 -30 765 -30 722 c 0,2,3
 -30 687 -30 687 -52.5 651 c 128,-1,4
 -75 615 -75 615 -116 583 c 1,5,-1
 -195 616 l 1,6,7
 -174 634 -174 634 -162.5 654.5 c 128,-1,8
 -151 675 -151 675 -151 692 c 0,9,10
 -151 704 -151 704 -159 711.5 c 128,-1,11
 -167 719 -167 719 -179 719 c 0,12,13
 -199 719 -199 719 -216 705 c 1,14,-1
 -262 778 l 1,15,16
 -204 816 -204 816 -142 816 c 0,17,0
 -90 816 -90 816 -60 790.5 c 128,-1,1
EndSplineSet
Substitution2: "<3,3> Small Caps in Latin lookup 11 subtable" hookabovecomb.sc
EndChar

StartChar: uni030A
Encoding: 778 778 411
Width: 0
Flags: W
LayerCount: 2
Fore
SplineSet
-82.5 780.5 m 128,-1,1
 -48 746 -48 746 -48 697 c 256,2,3
 -48 648 -48 648 -82.5 613.5 c 128,-1,4
 -117 579 -117 579 -166 579 c 256,5,6
 -215 579 -215 579 -249.5 613.5 c 128,-1,7
 -284 648 -284 648 -284 697 c 256,8,9
 -284 746 -284 746 -249.5 780.5 c 128,-1,10
 -215 815 -215 815 -166 815 c 256,11,0
 -117 815 -117 815 -82.5 780.5 c 128,-1,1
-198 728 m 128,-1,13
 -211 715 -211 715 -211 697 c 256,14,15
 -211 679 -211 679 -198 666.5 c 128,-1,16
 -185 654 -185 654 -166 654 c 256,17,18
 -147 654 -147 654 -134 666.5 c 128,-1,19
 -121 679 -121 679 -121 697 c 256,20,21
 -121 715 -121 715 -134 728 c 128,-1,22
 -147 741 -147 741 -166 741 c 256,23,12
 -185 741 -185 741 -198 728 c 128,-1,13
EndSplineSet
EndChar

StartChar: uni030B
Encoding: 779 779 412
Width: 0
Flags: W
LayerCount: 2
Fore
SplineSet
-363 773 m 1,0,-1
 -228 723 l 1,1,-1
 -318 599 l 1,2,-1
 -443 608 l 1,3,-1
 -363 773 l 1,0,-1
-166 773 m 1,4,-1
 -31 723 l 1,5,-1
 -121 599 l 1,6,-1
 -246 608 l 1,7,-1
 -166 773 l 1,4,-1
EndSplineSet
Substitution2: "<3,3> Small Caps in Latin lookup 11 subtable" uni030B.sc
EndChar

StartChar: uni030C
Encoding: 780 780 413
Width: 0
Flags: W
LayerCount: 2
Fore
SplineSet
-161 763 m 1,0,-1
 -33 763 l 1,1,-1
 -142 610 l 1,2,-1
 -299 610 l 1,3,-1
 -408 763 l 1,4,-1
 -280 763 l 1,5,-1
 -221 696 l 1,6,-1
 -161 763 l 1,0,-1
EndSplineSet
Substitution2: "<3,3> Small Caps in Latin lookup 11 subtable" uni030C.sc
EndChar

StartChar: uni030F
Encoding: 783 783 414
Width: 0
Flags: W
LayerCount: 2
Fore
SplineSet
-332 773 m 1,0,-1
 -252 608 l 1,1,-1
 -377 599 l 1,2,-1
 -467 723 l 1,3,-1
 -332 773 l 1,0,-1
-135 773 m 1,4,-1
 -55 608 l 1,5,-1
 -180 599 l 1,6,-1
 -270 723 l 1,7,-1
 -135 773 l 1,4,-1
EndSplineSet
Substitution2: "<3,3> Small Caps in Latin lookup 11 subtable" uni030F.sc
EndChar

StartChar: uni0311
Encoding: 785 785 415
Width: 0
Flags: W
LayerCount: 2
Fore
SplineSet
-352 600 m 1,0,1
 -349 673 -349 673 -303.5 717 c 128,-1,2
 -258 761 -258 761 -186 761 c 0,3,4
 -115 761 -115 761 -69.5 717 c 128,-1,5
 -24 673 -24 673 -21 600 c 1,6,-1
 -131 600 l 1,7,8
 -133 626 -133 626 -148.5 641.5 c 128,-1,9
 -164 657 -164 657 -186 657 c 0,10,11
 -209 657 -209 657 -224 641.5 c 128,-1,12
 -239 626 -239 626 -241 600 c 1,13,-1
 -352 600 l 1,0,1
EndSplineSet
Substitution2: "<3,3> Small Caps in Latin lookup 11 subtable" uni0311.sc
EndChar

StartChar: uni0312
Encoding: 786 786 416
Width: 0
Flags: W
LayerCount: 2
Fore
SplineSet
-69 610 m 1,0,-1
 -214 610 l 1,1,-1
 -140 784 l 1,2,-1
 -37 784 l 1,3,-1
 -69 610 l 1,0,-1
EndSplineSet
EndChar

StartChar: uni031B
Encoding: 795 795 417
Width: 0
Flags: W
LayerCount: 2
Fore
SplineSet
-47 592 m 0,1,2
 -47 523 -47 523 -99 485 c 128,-1,3
 -151 447 -151 447 -247 447 c 1,4,-1
 -236 541 l 1,5,6
 -207 541 -207 541 -192.5 555 c 128,-1,7
 -178 569 -178 569 -178 592 c 0,8,9
 -178 617 -178 617 -194 643 c 1,10,-1
 -69 690 l 1,11,0
 -47 637 -47 637 -47 592 c 0,1,2
EndSplineSet
EndChar

StartChar: dotbelowcomb
Encoding: 803 803 418
Width: 0
Flags: W
LayerCount: 2
Fore
SplineSet
-64.5 -94.5 m 128,-1,1
 -38 -121 -38 -121 -38 -163 c 0,2,3
 -38 -204 -38 -204 -64.5 -231 c 128,-1,4
 -91 -258 -91 -258 -132 -258 c 256,5,6
 -173 -258 -173 -258 -199.5 -231 c 128,-1,7
 -226 -204 -226 -204 -226 -163 c 0,8,9
 -226 -121 -226 -121 -199.5 -94.5 c 128,-1,10
 -173 -68 -173 -68 -132 -68 c 256,11,0
 -91 -68 -91 -68 -64.5 -94.5 c 128,-1,1
EndSplineSet
Substitution2: "<3,3> Small Caps in Latin lookup 11 subtable" dotbelowcomb.sc
EndChar

StartChar: uni0324
Encoding: 804 804 419
Width: 0
Flags: W
LayerCount: 2
Fore
SplineSet
-260.5 -88 m 128,-1,1
 -239 -110 -239 -110 -239 -144 c 0,2,3
 -239 -177 -239 -177 -260.5 -198.5 c 128,-1,4
 -282 -220 -282 -220 -315 -220 c 256,5,6
 -348 -220 -348 -220 -369.5 -198.5 c 128,-1,7
 -391 -177 -391 -177 -391 -144 c 0,8,9
 -391 -110 -391 -110 -369.5 -88 c 128,-1,10
 -348 -66 -348 -66 -315 -66 c 256,11,0
 -282 -66 -282 -66 -260.5 -88 c 128,-1,1
-68.5 -88 m 128,-1,13
 -47 -110 -47 -110 -47 -144 c 0,14,15
 -47 -177 -47 -177 -68.5 -198.5 c 128,-1,16
 -90 -220 -90 -220 -123 -220 c 0,17,18
 -157 -220 -157 -220 -178 -198.5 c 128,-1,19
 -199 -177 -199 -177 -199 -144 c 0,20,21
 -199 -109 -199 -109 -178 -87.5 c 128,-1,22
 -157 -66 -157 -66 -123 -66 c 0,23,12
 -90 -66 -90 -66 -68.5 -88 c 128,-1,13
EndSplineSet
Substitution2: "<3,3> Small Caps in Latin lookup 11 subtable" uni0324.sc
EndChar

StartChar: uni0326
Encoding: 806 806 420
Width: 0
Flags: W
LayerCount: 2
Fore
SplineSet
-191 -60 m 1,0,-1
 -46 -60 l 1,1,-1
 -120 -234 l 1,2,-1
 -223 -234 l 1,3,-1
 -191 -60 l 1,0,-1
EndSplineSet
EndChar

StartChar: uni0327
Encoding: 807 807 421
Width: 0
Flags: W
LayerCount: 2
Fore
SplineSet
-94 0 m 1,0,-1
 -114 -56 l 1,1,2
 -72 -65 -72 -65 -52 -86.5 c 128,-1,3
 -32 -108 -32 -108 -32 -137 c 0,4,5
 -32 -185 -32 -185 -68.5 -209.5 c 128,-1,6
 -105 -234 -105 -234 -160 -234 c 256,7,8
 -215 -234 -215 -234 -270 -214 c 1,9,-1
 -242 -134 l 1,10,11
 -220 -143 -220 -143 -191 -143 c 0,12,13
 -173 -143 -173 -143 -162 -137 c 128,-1,14
 -151 -131 -151 -131 -151 -121 c 0,15,16
 -151 -110 -151 -110 -166 -104 c 128,-1,17
 -181 -98 -181 -98 -204 -98 c 2,18,-1
 -228 -98 l 1,19,-1
 -193 9 l 1,20,-1
 -94 0 l 1,0,-1
EndSplineSet
Substitution2: "<3,3> Small Caps in Latin lookup 11 subtable" uni0327.sc
EndChar

StartChar: uni0328
Encoding: 808 808 422
Width: 0
Flags: W
LayerCount: 2
Fore
SplineSet
-47 0 m 1,0,1
 -86 -28 -86 -28 -105 -51 c 128,-1,2
 -124 -74 -124 -74 -124 -97 c 0,3,4
 -124 -110 -124 -110 -118 -117 c 128,-1,5
 -112 -124 -112 -124 -101 -124 c 0,6,7
 -89 -124 -89 -124 -73 -116 c 1,8,-1
 -44 -211 l 1,9,10
 -93 -233 -93 -233 -141 -233 c 0,11,12
 -194 -233 -194 -233 -223.5 -204 c 128,-1,13
 -253 -175 -253 -175 -253 -127 c 0,14,15
 -253 -84 -253 -84 -227 -40.5 c 128,-1,16
 -201 3 -201 3 -148 40 c 1,17,-1
 -47 0 l 1,0,1
EndSplineSet
EndChar

StartChar: uni032E
Encoding: 814 814 423
Width: 0
Flags: W
LayerCount: 2
Fore
SplineSet
-224 -100.5 m 128,-1,1
 -209 -116 -209 -116 -186 -116 c 0,2,3
 -164 -116 -164 -116 -148.5 -100.5 c 128,-1,4
 -133 -85 -133 -85 -131 -59 c 1,5,-1
 -21 -59 l 1,6,7
 -24 -132 -24 -132 -69 -176 c 128,-1,8
 -114 -220 -114 -220 -186 -220 c 256,9,10
 -258 -220 -258 -220 -303.5 -176 c 128,-1,11
 -349 -132 -349 -132 -352 -59 c 1,12,-1
 -241 -59 l 1,13,0
 -239 -85 -239 -85 -224 -100.5 c 128,-1,1
EndSplineSet
EndChar

StartChar: uni0331
Encoding: 817 817 424
Width: 0
Flags: W
LayerCount: 2
Fore
SplineSet
-345 -77 m 1,0,-1
 -36 -77 l 1,1,-1
 -36 -182 l 1,2,-1
 -345 -182 l 1,3,-1
 -345 -77 l 1,0,-1
EndSplineSet
EndChar

StartChar: uni0335
Encoding: 821 821 425
Width: 0
Flags: W
LayerCount: 2
Fore
SplineSet
-400 485 m 1,0,-1
 -8 485 l 1,1,-1
 -8 387 l 1,2,-1
 -400 387 l 1,3,-1
 -400 485 l 1,0,-1
EndSplineSet
EndChar

StartChar: uni0336
Encoding: 822 822 426
Width: 0
Flags: W
LayerCount: 2
Fore
SplineSet
-521 485 m 1,0,-1
 -83 485 l 1,1,-1
 -83 387 l 1,2,-1
 -521 387 l 1,3,-1
 -521 485 l 1,0,-1
EndSplineSet
EndChar

StartChar: uni0337
Encoding: 823 823 427
Width: 0
Flags: W
LayerCount: 2
Fore
SplineSet
-6 565 m 1,0,-1
 -173 90 l 1,1,-1
 -322 90 l 1,2,-1
 -155 565 l 1,3,-1
 -6 565 l 1,0,-1
EndSplineSet
EndChar

StartChar: uni0338
Encoding: 824 824 428
Width: 0
Flags: W
LayerCount: 2
Fore
SplineSet
-354 0 m 1,0,-1
 -93 742 l 1,1,-1
 57 742 l 1,2,-1
 -204 0 l 1,3,-1
 -354 0 l 1,0,-1
EndSplineSet
EndChar

StartChar: uni0394
Encoding: 916 916 429
Width: 773
Flags: W
LayerCount: 2
Fore
SplineSet
484 701 m 1,0,-1
 778 0 l 1,1,-1
 -5 0 l 1,2,-1
 296 701 l 1,3,-1
 484 701 l 1,0,-1
236 135 m 1,4,-1
 531 135 l 1,5,-1
 385 514 l 1,6,-1
 236 135 l 1,4,-1
EndSplineSet
EndChar

StartChar: uni03A9
Encoding: 937 937 430
Width: 854
Flags: W
LayerCount: 2
Fore
SplineSet
591.5 252.5 m 128,-1,1
 626 307 626 307 626 368 c 0,2,3
 626 420 626 420 601.5 463.5 c 128,-1,4
 577 507 577 507 531.5 532 c 128,-1,5
 486 557 486 557 427 557 c 256,6,7
 368 557 368 557 323 532 c 128,-1,8
 278 507 278 507 253.5 463.5 c 128,-1,9
 229 420 229 420 229 368 c 0,10,11
 229 307 229 307 263.5 252 c 128,-1,12
 298 197 298 197 361 164 c 1,13,-1
 361 0 l 1,14,-1
 7 0 l 1,15,-1
 7 146 l 1,16,-1
 191 146 l 1,17,18
 133 192 133 192 100 257 c 128,-1,19
 67 322 67 322 67 391 c 0,20,21
 67 480 67 480 114.5 552.5 c 128,-1,22
 162 625 162 625 244 667 c 128,-1,23
 326 709 326 709 427 709 c 256,24,25
 528 709 528 709 610.5 667 c 128,-1,26
 693 625 693 625 740.5 552 c 128,-1,27
 788 479 788 479 788 390 c 0,28,29
 788 322 788 322 755 257 c 128,-1,30
 722 192 722 192 664 146 c 1,31,-1
 847 146 l 1,32,-1
 847 0 l 1,33,-1
 494 0 l 1,34,-1
 494 164 l 1,35,0
 557 198 557 198 591.5 252.5 c 128,-1,1
EndSplineSet
EndChar

StartChar: uni03BC
Encoding: 956 956 431
Width: 685
Flags: W
LayerCount: 2
Fore
SplineSet
617 541 m 1,0,-1
 617 0 l 1,1,-1
 439 0 l 1,2,-1
 439 88 l 1,3,4
 384 -6 384 -6 266 -8 c 2,5,-1
 251 -8 l 1,6,-1
 251 -194 l 1,7,-1
 73 -194 l 1,8,-1
 73 541 l 1,9,-1
 251 541 l 1,10,-1
 251 250 l 2,11,12
 251 204 251 204 274.5 178 c 128,-1,13
 298 152 298 152 338 152 c 0,14,15
 385 153 385 153 412 186.5 c 128,-1,16
 439 220 439 220 439 274 c 2,17,-1
 439 541 l 1,18,-1
 617 541 l 1,0,-1
EndSplineSet
EndChar

StartChar: pi
Encoding: 960 960 432
Width: 730
Flags: W
LayerCount: 2
Fore
SplineSet
594 414 m 1,0,-1
 594 0 l 1,1,-1
 447 0 l 1,2,-1
 447 414 l 1,3,-1
 363 414 l 1,4,-1
 319 0 l 1,5,-1
 172 0 l 1,6,-1
 216 414 l 1,7,-1
 187 414 l 2,8,9
 158 414 158 414 139.5 397 c 128,-1,10
 121 380 121 380 122 354 c 0,11,12
 122 340 122 340 127.5 321.5 c 128,-1,13
 133 303 133 303 143 286 c 1,14,-1
 21 243 l 1,15,16
 4 276 4 276 -6.5 314.5 c 128,-1,17
 -17 353 -17 353 -17 386 c 0,18,19
 -17 430 -17 430 6.5 465.5 c 128,-1,20
 30 501 30 501 71 521 c 128,-1,21
 112 541 112 541 164 541 c 2,22,-1
 717 541 l 1,23,-1
 718 414 l 1,24,-1
 594 414 l 1,0,-1
EndSplineSet
EndChar

StartChar: uni1E08
Encoding: 7688 7688 433
Width: 692
Flags: W
LayerCount: 2
Fore
SplineSet
532 866 m 1,0,-1
 387 751 l 1,1,-1
 265 761 l 1,2,-1
 385 922 l 1,3,-1
 532 866 l 1,0,-1
565.5 31.5 m 128,-1,5
 498 -3 498 -3 428 -11 c 1,6,-1
 412 -56 l 1,7,8
 454 -65 454 -65 474 -86.5 c 128,-1,9
 494 -108 494 -108 494 -137 c 0,10,11
 494 -185 494 -185 457.5 -209.5 c 128,-1,12
 421 -234 421 -234 366 -234 c 256,13,14
 311 -234 311 -234 256 -214 c 1,15,-1
 284 -134 l 1,16,17
 307 -143 307 -143 335 -143 c 0,18,19
 353 -143 353 -143 364 -137 c 128,-1,20
 375 -131 375 -131 375 -121 c 0,21,22
 375 -110 375 -110 360 -104 c 128,-1,23
 345 -98 345 -98 322 -98 c 2,24,-1
 298 -98 l 1,25,-1
 327 -8 l 1,26,27
 239 6 239 6 170 56 c 128,-1,28
 101 106 101 106 62 183 c 128,-1,29
 23 260 23 260 23 352 c 0,30,31
 23 454 23 454 72 536 c 128,-1,32
 121 618 121 618 206.5 665 c 128,-1,33
 292 712 292 712 398 712 c 0,34,35
 476 712 476 712 552 679.5 c 128,-1,36
 628 647 628 647 681 591 c 1,37,-1
 575 463 l 1,38,39
 541 506 541 506 494 531.5 c 128,-1,40
 447 557 447 557 401 557 c 0,41,42
 348 557 348 557 304.5 530.5 c 128,-1,43
 261 504 261 504 236 457.5 c 128,-1,44
 211 411 211 411 211 354 c 256,45,46
 211 297 211 297 236 250.5 c 128,-1,47
 261 204 261 204 304.5 177.5 c 128,-1,48
 348 151 348 151 401 151 c 0,49,50
 444 151 444 151 491 173 c 128,-1,51
 538 195 538 195 575 233 c 1,52,-1
 682 118 l 1,53,4
 633 66 633 66 565.5 31.5 c 128,-1,5
EndSplineSet
EndChar

StartChar: uni1E09
Encoding: 7689 7689 434
Width: 562
Flags: W
LayerCount: 2
Fore
SplineSet
459 714 m 1,0,-1
 314 599 l 1,1,-1
 192 609 l 1,2,-1
 312 770 l 1,3,-1
 459 714 l 1,0,-1
468.5 37 m 128,-1,5
 417 4 417 4 347 -3 c 1,6,-1
 328 -56 l 1,7,8
 370 -65 370 -65 390 -86.5 c 128,-1,9
 410 -108 410 -108 410 -137 c 0,10,11
 410 -185 410 -185 373.5 -209.5 c 128,-1,12
 337 -234 337 -234 282 -234 c 256,13,14
 227 -234 227 -234 172 -214 c 1,15,-1
 200 -134 l 1,16,17
 223 -143 223 -143 251 -143 c 0,18,19
 269 -143 269 -143 280 -137 c 128,-1,20
 291 -131 291 -131 291 -121 c 0,21,22
 291 -110 291 -110 276 -104 c 128,-1,23
 261 -98 261 -98 238 -98 c 2,24,-1
 214 -98 l 1,25,-1
 246 -2 l 1,26,27
 144 15 144 15 84 87 c 128,-1,28
 24 159 24 159 24 268 c 0,29,30
 24 351 24 351 59 414.5 c 128,-1,31
 94 478 94 478 157.5 512.5 c 128,-1,32
 221 547 221 547 304 547 c 0,33,34
 385 547 385 547 448 513.5 c 128,-1,35
 511 480 511 480 546 419 c 1,36,-1
 417 344 l 1,37,38
 379 400 379 400 311 400 c 0,39,40
 263 400 263 400 233 363.5 c 128,-1,41
 203 327 203 327 203 269 c 0,42,43
 203 210 203 210 233 174 c 128,-1,44
 263 138 263 138 311 138 c 0,45,46
 385 138 385 138 417 199 c 1,47,-1
 548 124 l 1,48,4
 520 70 520 70 468.5 37 c 128,-1,5
EndSplineSet
Substitution2: "<3,3> Small Caps in Latin lookup 11 subtable" uni1E09.sc
EndChar

StartChar: uni1E1C
Encoding: 7708 7708 443
Width: 675
Flags: W
LayerCount: 2
Fore
SplineSet
213.5 799 m 128,-1,1
 168 843 168 843 165 916 c 1,2,-1
 276 916 l 1,3,4
 278 890 278 890 293 874.5 c 128,-1,5
 308 859 308 859 331 859 c 0,6,7
 353 859 353 859 368.5 874.5 c 128,-1,8
 384 890 384 890 386 916 c 1,9,-1
 496 916 l 1,10,11
 493 843 493 843 448 799 c 128,-1,12
 403 755 403 755 331 755 c 256,13,0
 259 755 259 755 213.5 799 c 128,-1,1
408 0 m 1,14,-1
 388 -56 l 1,15,16
 430 -65 430 -65 450 -86.5 c 128,-1,17
 470 -108 470 -108 470 -137 c 0,18,19
 470 -185 470 -185 433.5 -209.5 c 128,-1,20
 397 -234 397 -234 342 -234 c 256,21,22
 287 -234 287 -234 232 -214 c 1,23,-1
 260 -134 l 1,24,25
 283 -143 283 -143 311 -143 c 0,26,27
 329 -143 329 -143 340 -137 c 128,-1,28
 351 -131 351 -131 351 -121 c 0,29,30
 351 -110 351 -110 336 -104 c 128,-1,31
 321 -98 321 -98 298 -98 c 2,32,-1
 274 -98 l 1,33,-1
 306 0 l 1,34,-1
 68 0 l 1,35,-1
 68 701 l 1,36,-1
 621 701 l 1,37,-1
 621 555 l 1,38,-1
 251 555 l 1,39,-1
 251 424 l 1,40,-1
 585 424 l 1,41,-1
 585 279 l 1,42,-1
 251 278 l 1,43,-1
 251 146 l 1,44,-1
 631 146 l 1,45,-1
 631 0 l 1,46,-1
 408 0 l 1,14,-1
EndSplineSet
EndChar

StartChar: uni1E1D
Encoding: 7709 7709 444
Width: 603
Flags: W
LayerCount: 2
Fore
SplineSet
178.5 644 m 128,-1,1
 133 688 133 688 130 761 c 1,2,-1
 241 761 l 1,3,4
 243 735 243 735 258 719.5 c 128,-1,5
 273 704 273 704 296 704 c 0,6,7
 318 704 318 704 333.5 719.5 c 128,-1,8
 349 735 349 735 351 761 c 1,9,-1
 461 761 l 1,10,11
 458 688 458 688 413 644 c 128,-1,12
 368 600 368 600 296 600 c 256,13,0
 224 600 224 600 178.5 644 c 128,-1,1
509 469 m 128,-1,15
 580 391 580 391 580 255 c 0,16,17
 580 234 580 234 579 223 c 1,18,-1
 203 223 l 1,19,20
 216 177 216 177 248 152.5 c 128,-1,21
 280 128 280 128 326 128 c 0,22,23
 361 128 361 128 393.5 142 c 128,-1,24
 426 156 426 156 453 183 c 1,25,-1
 546 90 l 1,26,27
 477 12 477 12 361 -3 c 1,28,-1
 342 -56 l 1,29,30
 384 -65 384 -65 404 -86.5 c 128,-1,31
 424 -108 424 -108 424 -137 c 0,32,33
 424 -185 424 -185 387.5 -209.5 c 128,-1,34
 351 -234 351 -234 296 -234 c 256,35,36
 241 -234 241 -234 186 -214 c 1,37,-1
 214 -134 l 1,38,39
 237 -143 237 -143 265 -143 c 0,40,41
 283 -143 283 -143 294 -137 c 128,-1,42
 305 -131 305 -131 305 -121 c 0,43,44
 305 -110 305 -110 290 -104 c 128,-1,45
 275 -98 275 -98 252 -98 c 2,46,-1
 228 -98 l 1,47,-1
 259 -3 l 1,48,49
 149 11 149 11 86.5 83.5 c 128,-1,50
 24 156 24 156 24 268 c 0,51,52
 24 351 24 351 59 414.5 c 128,-1,53
 94 478 94 478 158 512.5 c 128,-1,54
 222 547 222 547 306 547 c 0,55,14
 438 547 438 547 509 469 c 128,-1,15
407 318 m 1,56,57
 407 365 407 365 379.5 393.5 c 128,-1,58
 352 422 352 422 307 422 c 0,59,60
 265 422 265 422 236.5 394 c 128,-1,61
 208 366 208 366 199 318 c 1,62,-1
 407 318 l 1,56,57
EndSplineSet
Substitution2: "<3,3> Small Caps in Latin lookup 11 subtable" uni1E1D.sc
EndChar

StartChar: uni1E9E
Encoding: 7838 7838 506
Width: 711
Flags: W
LayerCount: 2
Fore
SplineSet
649.5 327 m 128,-1,1
 687 278 687 278 687 207 c 0,2,3
 687 111 687 111 618 55.5 c 128,-1,4
 549 0 549 0 420 0 c 2,5,-1
 338 0 l 1,6,-1
 338 142 l 1,7,-1
 396 142 l 2,8,9
 444 142 444 142 471 162.5 c 128,-1,10
 498 183 498 183 498 220 c 256,11,12
 498 257 498 257 471.5 277.5 c 128,-1,13
 445 298 445 298 396 298 c 2,14,-1
 368 298 l 1,15,-1
 368 410 l 1,16,-1
 480 544 l 1,17,18
 443 558 443 558 395 558 c 0,19,20
 319 558 319 558 276.5 514 c 128,-1,21
 234 470 234 470 234 392 c 2,22,-1
 234 0 l 1,23,-1
 51 0 l 1,24,-1
 51 380 l 2,25,26
 51 535 51 535 138.5 622 c 128,-1,27
 226 709 226 709 382 709 c 0,28,29
 522 709 522 709 629 635 c 1,30,-1
 629 502 l 1,31,-1
 543 397 l 1,32,0
 612 376 612 376 649.5 327 c 128,-1,1
EndSplineSet
EndChar

StartChar: figuredash
Encoding: 8210 8210 603
Width: 617
Flags: W
LayerCount: 2
Fore
SplineSet
0 364 m 1,0,-1
 617 364 l 1,1,-1
 617 250 l 1,2,-1
 0 250 l 1,3,-1
 0 364 l 1,0,-1
EndSplineSet
EndChar

StartChar: endash
Encoding: 8211 8211 604
Width: 408
Flags: W
LayerCount: 2
Fore
SplineSet
0 364 m 1,0,-1
 408 364 l 1,1,-1
 408 250 l 1,2,-1
 0 250 l 1,3,-1
 0 364 l 1,0,-1
EndSplineSet
EndChar

StartChar: emdash
Encoding: 8212 8212 605
Width: 645
Flags: W
LayerCount: 2
Fore
SplineSet
0 364 m 1,0,-1
 645 364 l 1,1,-1
 645 250 l 1,2,-1
 0 250 l 1,3,-1
 0 364 l 1,0,-1
EndSplineSet
EndChar

StartChar: quoteleft
Encoding: 8216 8216 607
Width: 243
Flags: W
LayerCount: 2
Fore
SplineSet
190 541 m 0,1,2
 190 504 190 504 166 480 c 128,-1,3
 142 456 142 456 105 456 c 0,4,5
 69 456 69 456 44.5 478.5 c 128,-1,6
 20 501 20 501 20 541 c 0,7,8
 20 571 20 571 43 609 c 2,9,-1
 123 742 l 1,10,-1
 208 742 l 1,11,-1
 156 609 l 1,12,0
 190 585 190 585 190 541 c 0,1,2
EndSplineSet
Substitution2: "<3,3> Small Caps in Latin lookup 11 subtable" quoteleft.sc
EndChar

StartChar: quoteright
Encoding: 8217 8217 608
Width: 243
Flags: W
LayerCount: 2
Fore
SplineSet
183.5 719.5 m 128,-1,1
 208 697 208 697 208 657 c 0,2,3
 208 627 208 627 185 589 c 2,4,-1
 105 456 l 1,5,-1
 20 456 l 1,6,-1
 72 589 l 1,7,8
 38 613 38 613 38 657 c 0,9,10
 38 694 38 694 62 718 c 128,-1,11
 86 742 86 742 123 742 c 0,12,0
 159 742 159 742 183.5 719.5 c 128,-1,1
EndSplineSet
Substitution2: "<3,3> Small Caps in Latin lookup 11 subtable" quoteright.sc
EndChar

StartChar: quotesinglbase
Encoding: 8218 8218 609
Width: 243
Flags: W
LayerCount: 2
Fore
SplineSet
183.5 141.5 m 128,-1,1
 208 119 208 119 208 79 c 0,2,3
 208 49 208 49 185 11 c 2,4,-1
 105 -122 l 1,5,-1
 20 -122 l 1,6,-1
 72 11 l 1,7,8
 38 35 38 35 38 79 c 0,9,10
 38 116 38 116 62 140 c 128,-1,11
 86 164 86 164 123 164 c 0,12,0
 159 164 159 164 183.5 141.5 c 128,-1,1
EndSplineSet
EndChar

StartChar: dagger
Encoding: 8224 8224 613
Width: 577
Flags: W
LayerCount: 2
Fore
SplineSet
198 699 m 1,0,-1
 374 699 l 1,1,-1
 374 496 l 1,2,-1
 559 496 l 1,3,-1
 559 350 l 1,4,-1
 374 350 l 1,5,-1
 374 -187 l 1,6,-1
 198 -187 l 1,7,-1
 198 350 l 1,8,-1
 18 350 l 1,9,-1
 18 496 l 1,10,-1
 198 496 l 1,11,-1
 198 699 l 1,0,-1
EndSplineSet
EndChar

StartChar: daggerdbl
Encoding: 8225 8225 614
Width: 577
Flags: W
LayerCount: 2
Fore
SplineSet
559 350 m 1,0,-1
 374 350 l 1,1,-1
 374 174 l 1,2,-1
 559 174 l 1,3,-1
 559 29 l 1,4,-1
 374 29 l 1,5,-1
 374 -187 l 1,6,-1
 198 -187 l 1,7,-1
 198 29 l 1,8,-1
 18 29 l 1,9,-1
 18 174 l 1,10,-1
 198 174 l 1,11,-1
 198 350 l 1,12,-1
 18 350 l 1,13,-1
 18 496 l 1,14,-1
 198 496 l 1,15,-1
 198 699 l 1,16,-1
 374 699 l 1,17,-1
 374 496 l 1,18,-1
 559 496 l 1,19,-1
 559 350 l 1,0,-1
EndSplineSet
EndChar

StartChar: bullet
Encoding: 8226 8226 615
Width: 331
Flags: W
LayerCount: 2
Fore
SplineSet
258 370.5 m 128,-1,1
 294 334 294 334 294 277 c 0,2,3
 294 219 294 219 258 182.5 c 128,-1,4
 222 146 222 146 165 146 c 0,5,6
 109 146 109 146 73 182.5 c 128,-1,7
 37 219 37 219 37 277 c 0,8,9
 37 334 37 334 73 370.5 c 128,-1,10
 109 407 109 407 165 407 c 0,11,0
 222 407 222 407 258 370.5 c 128,-1,1
EndSplineSet
EndChar

StartChar: ellipsis
Encoding: 8230 8230 616
Width: 686
Flags: W
LayerCount: 2
Fore
SplineSet
181.5 138 m 128,-1,1
 205 114 205 114 205 77 c 256,2,3
 205 40 205 40 181.5 16 c 128,-1,4
 158 -8 158 -8 121 -8 c 256,5,6
 84 -8 84 -8 60.5 16 c 128,-1,7
 37 40 37 40 37 77 c 256,8,9
 37 114 37 114 60.5 138 c 128,-1,10
 84 162 84 162 121 162 c 256,11,0
 158 162 158 162 181.5 138 c 128,-1,1
403.5 138 m 128,-1,13
 427 114 427 114 427 77 c 256,14,15
 427 40 427 40 403.5 16 c 128,-1,16
 380 -8 380 -8 343 -8 c 256,17,18
 306 -8 306 -8 282.5 16 c 128,-1,19
 259 40 259 40 259 77 c 256,20,21
 259 114 259 114 282.5 138 c 128,-1,22
 306 162 306 162 343 162 c 256,23,12
 380 162 380 162 403.5 138 c 128,-1,13
625.5 138 m 128,-1,25
 649 114 649 114 649 77 c 256,26,27
 649 40 649 40 625.5 16 c 128,-1,28
 602 -8 602 -8 565 -8 c 256,29,30
 528 -8 528 -8 504.5 16 c 128,-1,31
 481 40 481 40 481 77 c 256,32,33
 481 114 481 114 504.5 138 c 128,-1,34
 528 162 528 162 565 162 c 256,35,24
 602 162 602 162 625.5 138 c 128,-1,25
EndSplineSet
EndChar

StartChar: minute
Encoding: 8242 8242 618
Width: 234
Flags: W
LayerCount: 2
Fore
SplineSet
57 701 m 1,0,-1
 191 701 l 1,1,-1
 144 457 l 1,2,-1
 40 457 l 1,3,-1
 57 701 l 1,0,-1
EndSplineSet
EndChar

StartChar: guilsinglleft
Encoding: 8249 8249 620
Width: 281
Flags: W
LayerCount: 2
Fore
SplineSet
121 452 m 1,0,-1
 265 452 l 1,1,-1
 158 267 l 1,2,-1
 265 81 l 1,3,-1
 121 81 l 1,4,-1
 0 267 l 1,5,-1
 121 452 l 1,0,-1
EndSplineSet
Substitution2: "<3,3> Small Caps in Latin lookup 11 subtable" guilsinglleft.sc
Substitution2: "'rtla' Right to Left Alternates in Latin lookup 0 subtable" guilsinglright
EndChar

StartChar: guilsinglright
Encoding: 8250 8250 621
Width: 281
Flags: W
LayerCount: 2
Fore
SplineSet
160 82 m 1,0,-1
 16 82 l 1,1,-1
 123 267 l 1,2,-1
 16 453 l 1,3,-1
 160 453 l 1,4,-1
 281 267 l 1,5,-1
 160 82 l 1,0,-1
EndSplineSet
Substitution2: "<3,3> Small Caps in Latin lookup 11 subtable" guilsinglright.sc
Substitution2: "'rtla' Right to Left Alternates in Latin lookup 0 subtable" guilsinglleft
EndChar

StartChar: fraction
Encoding: 8260 8260 622
Width: 120
Flags: W
LayerCount: 2
Fore
SplineSet
246 701 m 1,0,-1
 369 701 l 1,1,-1
 -129 0 l 1,2,-1
 -253 0 l 1,3,-1
 246 701 l 1,0,-1
EndSplineSet
EndChar

StartChar: colonmonetary
Encoding: 8353 8353 640
Width: 692
Flags: W
LayerCount: 2
Fore
SplineSet
605.5 54.5 m 128,-1,1
 563 27 563 27 516 10 c 1,2,-1
 483 -155 l 1,3,-1
 367 -155 l 1,4,-1
 396 -13 l 1,5,-1
 391 -13 l 2,6,7
 359 -13 359 -13 335 -9 c 1,8,-1
 306 -155 l 1,9,-1
 190 -155 l 1,10,-1
 225 23 l 1,11,12
 132 67 132 67 77.5 154.5 c 128,-1,13
 23 242 23 242 23 352 c 0,14,15
 23 467 23 467 85 556.5 c 128,-1,16
 147 646 147 646 250 685 c 1,17,-1
 284 851 l 1,18,-1
 400 851 l 1,19,-1
 372 711 l 1,20,21
 380 712 380 712 398 712 c 0,22,23
 411 712 411 712 433 710 c 1,24,-1
 462 851 l 1,25,-1
 577 851 l 1,26,-1
 543 683 l 1,27,28
 624 651 624 651 681 591 c 1,29,-1
 575 463 l 1,30,31
 541 506 541 506 494 531.5 c 128,-1,32
 447 557 447 557 401 557 c 0,33,34
 348 557 348 557 304.5 530.5 c 128,-1,35
 261 504 261 504 236 457.5 c 128,-1,36
 211 411 211 411 211 354 c 256,37,38
 211 297 211 297 236 250.5 c 128,-1,39
 261 204 261 204 304.5 177.5 c 128,-1,40
 348 151 348 151 401 151 c 0,41,42
 444 151 444 151 491 173 c 128,-1,43
 538 195 538 195 575 233 c 1,44,-1
 682 118 l 1,45,0
 648 82 648 82 605.5 54.5 c 128,-1,1
EndSplineSet
EndChar

StartChar: franc
Encoding: 8355 8355 641
Width: 632
Flags: W
LayerCount: 2
Fore
SplineSet
616 555 m 1,0,-1
 276 555 l 1,1,-1
 276 399 l 1,2,-1
 590 399 l 1,3,-1
 590 259 l 1,4,-1
 276 259 l 1,5,-1
 276 166 l 1,6,-1
 488 166 l 1,7,-1
 488 100 l 1,8,-1
 276 100 l 1,9,-1
 276 0 l 1,10,-1
 93 0 l 1,11,-1
 93 100 l 1,12,-1
 19 100 l 1,13,-1
 19 166 l 1,14,-1
 93 166 l 1,15,-1
 93 701 l 1,16,-1
 617 701 l 1,17,-1
 616 555 l 1,0,-1
EndSplineSet
EndChar

StartChar: lira
Encoding: 8356 8356 642
Width: 564
Flags: W
LayerCount: 2
Fore
SplineSet
287 140 m 1,0,-1
 543 140 l 1,1,-1
 543 0 l 1,2,-1
 27 0 l 1,3,-1
 27 140 l 1,4,-1
 103 140 l 1,5,-1
 103 240 l 1,6,-1
 27 240 l 1,7,-1
 27 306 l 1,8,-1
 103 306 l 1,9,-1
 103 357 l 1,10,-1
 27 357 l 1,11,-1
 27 423 l 1,12,-1
 103 423 l 1,13,-1
 103 472 l 2,14,15
 103 585 103 585 165.5 647 c 128,-1,16
 228 709 228 709 343 709 c 0,17,18
 404 709 404 709 460 686.5 c 128,-1,19
 516 664 516 664 557 623 c 1,20,-1
 489 487 l 1,21,22
 423 553 423 553 363 553 c 0,23,24
 287 553 287 553 287 468 c 2,25,-1
 287 423 l 1,26,-1
 453 423 l 1,27,-1
 453 357 l 1,28,-1
 287 357 l 1,29,-1
 287 306 l 1,30,-1
 453 306 l 1,31,-1
 453 240 l 1,32,-1
 287 240 l 1,33,-1
 287 140 l 1,0,-1
EndSplineSet
EndChar

StartChar: uni20A6
Encoding: 8358 8358 643
Width: 794
Flags: W
LayerCount: 2
Fore
SplineSet
774 374 m 1,0,-1
 696 374 l 1,1,-1
 696 323 l 1,2,-1
 774 323 l 1,3,-1
 774 257 l 1,4,-1
 696 257 l 1,5,-1
 696 0 l 1,6,-1
 541 0 l 1,7,-1
 263 413 l 1,8,-1
 263 0 l 1,9,-1
 98 0 l 1,10,-1
 98 257 l 1,11,-1
 19 257 l 1,12,-1
 19 323 l 1,13,-1
 98 323 l 1,14,-1
 98 374 l 1,15,-1
 19 374 l 1,16,-1
 19 440 l 1,17,-1
 98 440 l 1,18,-1
 98 701 l 1,19,-1
 253 701 l 1,20,-1
 532 286 l 1,21,-1
 532 701 l 1,22,-1
 696 701 l 1,23,-1
 696 440 l 1,24,-1
 774 440 l 1,25,-1
 774 374 l 1,0,-1
EndSplineSet
EndChar

StartChar: peseta
Encoding: 8359 8359 644
Width: 1555
Flags: W
LayerCount: 2
Fore
SplineSet
540.5 635.5 m 128,-1,1
 613 570 613 570 613 451 c 0,2,3
 613 329 613 329 540.5 261.5 c 128,-1,4
 468 194 468 194 337 194 c 2,5,-1
 234 194 l 1,6,-1
 234 0 l 1,7,-1
 68 0 l 1,8,-1
 68 701 l 1,9,-1
 337 701 l 2,10,0
 468 701 468 701 540.5 635.5 c 128,-1,1
1017 154 m 1,12,-1
 1052 28 l 1,13,14
 1024 11 1024 11 986.5 1.5 c 128,-1,15
 949 -8 949 -8 911 -8 c 0,16,17
 835 -8 835 -8 788.5 37.5 c 128,-1,18
 742 83 742 83 742 165 c 2,19,-1
 742 401 l 1,20,-1
 667 401 l 1,21,-1
 667 515 l 1,22,-1
 742 515 l 1,23,-1
 742 665 l 1,24,-1
 902 665 l 1,25,-1
 902 515 l 1,26,-1
 1038 515 l 1,27,-1
 1038 401 l 1,28,-1
 902 401 l 1,29,-1
 902 196 l 2,30,31
 902 136 902 136 953 136 c 0,32,11
 981 136 981 136 1017 154 c 1,12,-1
421 354.5 m 128,-1,34
 456 387 456 387 456 449 c 0,35,36
 456 509 456 509 421 541 c 128,-1,37
 386 573 386 573 321 573 c 2,38,-1
 234 573 l 1,39,-1
 234 322 l 1,40,-1
 321 322 l 2,41,33
 386 322 386 322 421 354.5 c 128,-1,34
1284 358 m 128,-1,43
 1306 345 1306 345 1355 329 c 0,44,45
 1409 311 1409 311 1443.5 293.5 c 128,-1,46
 1478 276 1478 276 1503 243 c 128,-1,47
 1528 210 1528 210 1528 158 c 0,48,49
 1528 80 1528 80 1469 36 c 128,-1,50
 1410 -8 1410 -8 1316 -8 c 0,51,52
 1253 -8 1253 -8 1194 9 c 128,-1,53
 1135 26 1135 26 1089 58 c 1,54,-1
 1138 163 l 1,55,56
 1182 136 1182 136 1228 122 c 128,-1,57
 1274 108 1274 108 1316 108 c 0,58,59
 1344 108 1344 108 1360 118 c 128,-1,60
 1376 128 1376 128 1376 149 c 0,61,62
 1376 172 1376 172 1354.5 184.5 c 128,-1,63
 1333 197 1333 197 1284 215 c 0,64,65
 1232 233 1232 233 1198 250.5 c 128,-1,66
 1164 268 1164 268 1139.5 301 c 128,-1,67
 1115 334 1115 334 1115 386 c 0,68,69
 1115 463 1115 463 1172 506 c 128,-1,70
 1229 549 1229 549 1320 549 c 0,71,72
 1430 549 1430 549 1527 495 c 1,73,-1
 1474 386 l 1,74,75
 1384 434 1384 434 1322 434 c 0,76,77
 1294 434 1294 434 1278 423.5 c 128,-1,78
 1262 413 1262 413 1262 393 c 0,79,42
 1262 371 1262 371 1284 358 c 128,-1,43
EndSplineSet
EndChar

StartChar: uni20A9
Encoding: 8361 8361 645
Width: 1056
Flags: W
LayerCount: 2
Fore
SplineSet
1046 701 m 1,0,-1
 967 440 l 1,1,-1
 1045 440 l 1,2,-1
 1045 374 l 1,3,-1
 947 374 l 1,4,-1
 932 323 l 1,5,-1
 1035 323 l 1,6,-1
 1035 257 l 1,7,-1
 912 257 l 1,8,-1
 834 0 l 1,9,-1
 645 0 l 1,10,-1
 533 466 l 1,11,-1
 418 0 l 1,12,-1
 230 0 l 1,13,-1
 153 257 l 1,14,-1
 26 257 l 1,15,-1
 26 323 l 1,16,-1
 133 323 l 1,17,-1
 117 374 l 1,18,-1
 16 374 l 1,19,-1
 16 440 l 1,20,-1
 98 440 l 1,21,-1
 19 701 l 1,22,-1
 212 701 l 1,23,-1
 330 202 l 1,24,-1
 447 701 l 1,25,-1
 626 701 l 1,26,-1
 745 202 l 1,27,-1
 862 701 l 1,28,-1
 1046 701 l 1,0,-1
EndSplineSet
EndChar

StartChar: dong
Encoding: 8363 8363 646
Width: 688
Flags: W
LayerCount: 2
Fore
SplineSet
679 588 m 1,0,-1
 614 588 l 1,1,-1
 614 0 l 1,2,-1
 436 0 l 1,3,-1
 436 70 l 1,4,5
 408 32 408 32 367.5 12.5 c 128,-1,6
 327 -7 327 -7 276 -7 c 0,7,8
 201 -7 201 -7 144 28 c 128,-1,9
 87 63 87 63 55.5 126.5 c 128,-1,10
 24 190 24 190 24 273 c 0,11,12
 24 355 24 355 55 417 c 128,-1,13
 86 479 86 479 142 513 c 128,-1,14
 198 547 198 547 272 547 c 0,15,16
 324 547 324 547 365.5 527 c 128,-1,17
 407 507 407 507 436 470 c 1,18,-1
 436 588 l 1,19,-1
 322 588 l 1,20,-1
 322 660 l 1,21,-1
 436 660 l 1,22,-1
 436 742 l 1,23,-1
 614 742 l 1,24,-1
 614 660 l 1,25,-1
 679 660 l 1,26,-1
 679 588 l 1,0,-1
404 170.5 m 128,-1,28
 436 208 436 208 436 268 c 0,29,30
 436 329 436 329 404 366 c 128,-1,31
 372 403 372 403 320 403 c 256,32,33
 268 403 268 403 235.5 365.5 c 128,-1,34
 203 328 203 328 203 268 c 256,35,36
 203 208 203 208 235.5 170.5 c 128,-1,37
 268 133 268 133 320 133 c 256,38,27
 372 133 372 133 404 170.5 c 128,-1,28
108 -130 m 1,39,-1
 108 -58 l 1,40,-1
 555 -58 l 1,41,-1
 555 -130 l 1,42,-1
 108 -130 l 1,39,-1
EndSplineSet
EndChar

StartChar: Euro
Encoding: 8364 8364 647
Width: 775
Flags: W
LayerCount: 2
Fore
SplineSet
574 177 m 128,-1,1
 621 199 621 199 658 237 c 1,2,-1
 764 122 l 1,3,4
 708 63 708 63 630 27.5 c 128,-1,5
 552 -8 552 -8 474 -8 c 0,6,7
 387 -8 387 -8 313 25.5 c 128,-1,8
 239 59 239 59 188.5 119 c 128,-1,9
 138 179 138 179 118 257 c 1,10,-1
 27 257 l 1,11,-1
 27 323 l 1,12,-1
 107 323 l 1,13,14
 106 333 106 333 106 352 c 0,15,16
 106 367 106 367 107 374 c 1,17,-1
 27 374 l 1,18,-1
 27 440 l 1,19,-1
 117 440 l 1,20,21
 136 518 136 518 188 578.5 c 128,-1,22
 240 639 240 639 315.5 672.5 c 128,-1,23
 391 706 391 706 481 706 c 0,24,25
 559 706 559 706 635.5 673.5 c 128,-1,26
 712 641 712 641 764 586 c 1,27,-1
 658 459 l 1,28,29
 623 501 623 501 576 526 c 128,-1,30
 529 551 529 551 483 551 c 0,31,32
 426 551 426 551 380 521 c 128,-1,33
 334 491 334 491 311 440 c 1,34,-1
 535 440 l 1,35,-1
 535 374 l 1,36,-1
 294 374 l 1,37,38
 293 367 293 367 293 354 c 0,39,40
 293 343 293 343 295 323 c 1,41,-1
 535 323 l 1,42,-1
 535 257 l 1,43,-1
 316 257 l 1,44,45
 340 210 340 210 384.5 182.5 c 128,-1,46
 429 155 429 155 483 155 c 0,47,0
 527 155 527 155 574 177 c 128,-1,1
EndSplineSet
EndChar

StartChar: uni20AD
Encoding: 8365 8365 648
Width: 732
Flags: W
LayerCount: 2
Fore
SplineSet
724 0 m 1,0,-1
 508 0 l 1,1,-1
 256 311 l 1,2,-1
 256 0 l 1,3,-1
 73 0 l 1,4,-1
 73 328 l 1,5,-1
 -1 328 l 1,6,-1
 -1 394 l 1,7,-1
 73 394 l 1,8,-1
 73 701 l 1,9,-1
 256 701 l 1,10,-1
 256 406 l 1,11,-1
 499 701 l 1,12,-1
 708 701 l 1,13,-1
 450 394 l 1,14,-1
 647 394 l 1,15,-1
 647 328 l 1,16,-1
 452 328 l 1,17,-1
 724 0 l 1,0,-1
EndSplineSet
EndChar

StartChar: uni20B1
Encoding: 8369 8369 649
Width: 781
Flags: W
LayerCount: 2
Fore
SplineSet
762 472 m 1,0,-1
 688 472 l 1,1,-1
 688 455 l 2,2,3
 688 443 688 443 686 421 c 1,4,-1
 762 421 l 1,5,-1
 762 355 l 1,6,-1
 673 355 l 1,7,8
 647 277 647 277 578 235.5 c 128,-1,9
 509 194 509 194 405 194 c 2,10,-1
 281 194 l 1,11,-1
 281 0 l 1,12,-1
 98 0 l 1,13,-1
 98 355 l 1,14,-1
 24 355 l 1,15,-1
 24 421 l 1,16,-1
 98 421 l 1,17,-1
 98 472 l 1,18,-1
 24 472 l 1,19,-1
 24 538 l 1,20,-1
 98 538 l 1,21,-1
 98 701 l 1,22,-1
 405 701 l 2,23,24
 513 701 513 701 583 658.5 c 128,-1,25
 653 616 653 616 677 538 c 1,26,-1
 762 538 l 1,27,-1
 762 472 l 1,0,-1
483.5 368 m 128,-1,29
 514 396 514 396 514 449 c 0,30,31
 514 501 514 501 483.5 528 c 128,-1,32
 453 555 453 555 396 555 c 2,33,-1
 281 555 l 1,34,-1
 281 340 l 1,35,-1
 396 340 l 2,36,28
 453 340 453 340 483.5 368 c 128,-1,29
EndSplineSet
EndChar

StartChar: uni20B2
Encoding: 8370 8370 650
Width: 732
Flags: W
LayerCount: 2
Fore
SplineSet
532 358 m 1,0,-1
 690 358 l 1,1,-1
 690 79 l 1,2,3
 646 47 646 47 585 24 c 128,-1,4
 524 1 524 1 463 -8 c 1,5,-1
 463 -155 l 1,6,-1
 331 -155 l 1,7,-1
 331 -8 l 1,8,9
 242 6 242 6 172 56 c 128,-1,10
 102 106 102 106 62.5 182.5 c 128,-1,11
 23 259 23 259 23 351 c 0,12,13
 23 441 23 441 62 515.5 c 128,-1,14
 101 590 101 590 171 639.5 c 128,-1,15
 241 689 241 689 331 705 c 1,16,-1
 331 851 l 1,17,-1
 463 851 l 1,18,-1
 463 709 l 1,19,20
 529 701 529 701 591 674 c 128,-1,21
 653 647 653 647 698 607 c 1,22,-1
 594 479 l 1,23,24
 556 515 556 515 506.5 536 c 128,-1,25
 457 557 457 557 409 557 c 0,26,27
 353 557 353 557 308 530 c 128,-1,28
 263 503 263 503 237 456 c 128,-1,29
 211 409 211 409 211 351 c 0,30,31
 211 292 211 292 237 244.5 c 128,-1,32
 263 197 263 197 309 170 c 128,-1,33
 355 143 355 143 411 143 c 0,34,35
 464 143 464 143 532 177 c 1,36,-1
 532 358 l 1,0,-1
EndSplineSet
EndChar

StartChar: uni20B5
Encoding: 8373 8373 651
Width: 692
Flags: W
LayerCount: 2
Fore
SplineSet
577 38 m 128,-1,1
 517 5 517 5 453 -7 c 1,2,-1
 453 -155 l 1,3,-1
 321 -155 l 1,4,-1
 321 -7 l 1,5,6
 234 8 234 8 166.5 58.5 c 128,-1,7
 99 109 99 109 61 185 c 128,-1,8
 23 261 23 261 23 352 c 0,9,10
 23 441 23 441 61 515.5 c 128,-1,11
 99 590 99 590 167 639.5 c 128,-1,12
 235 689 235 689 321 705 c 1,13,-1
 321 851 l 1,14,-1
 453 851 l 1,15,-1
 453 708 l 1,16,17
 518 698 518 698 578 667.5 c 128,-1,18
 638 637 638 637 681 591 c 1,19,-1
 575 463 l 1,20,21
 541 506 541 506 494 531.5 c 128,-1,22
 447 557 447 557 401 557 c 0,23,24
 348 557 348 557 304.5 530.5 c 128,-1,25
 261 504 261 504 236 457.5 c 128,-1,26
 211 411 211 411 211 354 c 256,27,28
 211 297 211 297 236 250.5 c 128,-1,29
 261 204 261 204 304.5 177.5 c 128,-1,30
 348 151 348 151 401 151 c 0,31,32
 444 151 444 151 491 173 c 128,-1,33
 538 195 538 195 575 233 c 1,34,-1
 682 118 l 1,35,0
 637 71 637 71 577 38 c 128,-1,1
EndSplineSet
EndChar

StartChar: uni20B9
Encoding: 8377 8377 652
Width: 619
Flags: W
LayerCount: 2
Fore
SplineSet
471 567 m 1,0,1
 499 532 499 532 510 481 c 1,2,-1
 594 481 l 1,3,-1
 594 415 l 1,4,-1
 516 415 l 1,5,6
 511 293 511 293 415 237 c 1,7,-1
 594 0 l 1,8,-1
 386 0 l 1,9,-1
 240 194 l 1,10,-1
 229 194 l 1,11,-1
 36 194 l 1,12,-1
 36 328 l 1,13,-1
 214 328 l 2,14,15
 268 328 268 328 301.5 350 c 128,-1,16
 335 372 335 372 345 415 c 1,17,-1
 36 415 l 1,18,-1
 36 481 l 1,19,-1
 345 481 l 1,20,21
 335 523 335 523 301.5 545 c 128,-1,22
 268 567 268 567 214 567 c 2,23,-1
 36 567 l 1,24,-1
 36 701 l 1,25,-1
 594 701 l 1,26,-1
 594 567 l 1,27,-1
 471 567 l 1,0,1
EndSplineSet
EndChar

StartChar: uni20BA
Encoding: 8378 8378 653
Width: 728
Flags: W
LayerCount: 2
Fore
SplineSet
703 357 m 1,0,1
 703 252 703 252 655.5 171 c 128,-1,2
 608 90 608 90 522 45 c 128,-1,3
 436 0 436 0 324 0 c 2,4,-1
 97 0 l 1,5,-1
 97 314 l 1,6,-1
 25 293 l 1,7,-1
 25 368 l 1,8,-1
 97 389 l 1,9,-1
 97 460 l 1,10,-1
 25 440 l 1,11,-1
 25 514 l 1,12,-1
 97 535 l 1,13,-1
 97 701 l 1,14,-1
 280 701 l 1,15,-1
 280 587 l 1,16,-1
 530 658 l 1,17,-1
 530 583 l 1,18,-1
 280 512 l 1,19,-1
 280 441 l 1,20,-1
 530 512 l 1,21,-1
 530 437 l 1,22,-1
 280 366 l 1,23,-1
 280 148 l 1,24,-1
 335 148 l 2,25,26
 389 148 389 148 430 174 c 128,-1,27
 471 200 471 200 494 247 c 128,-1,28
 517 294 517 294 517 355 c 1,29,-1
 703 357 l 1,0,1
EndSplineSet
EndChar

StartChar: uni20BC
Encoding: 8380 8380 654
Width: 775
Flags: W
LayerCount: 2
Fore
SplineSet
607.5 544 m 128,-1,1
 674 496 674 496 711 423 c 128,-1,2
 748 350 748 350 748 262 c 2,3,-1
 748 0 l 1,4,-1
 572 0 l 1,5,-1
 572 261 l 2,6,7
 572 327 572 327 540.5 375.5 c 128,-1,8
 509 424 509 424 455 444 c 1,9,-1
 455 0 l 1,10,-1
 320 0 l 1,11,-1
 320 443 l 1,12,13
 266 423 266 423 234.5 374 c 128,-1,14
 203 325 203 325 203 261 c 2,15,-1
 203 0 l 1,16,-1
 27 0 l 1,17,-1
 27 262 l 2,18,19
 27 350 27 350 64 423 c 128,-1,20
 101 496 101 496 167.5 544 c 128,-1,21
 234 592 234 592 320 606 c 1,22,-1
 320 701 l 1,23,-1
 455 701 l 1,24,-1
 455 606 l 1,25,0
 541 592 541 592 607.5 544 c 128,-1,1
EndSplineSet
EndChar

StartChar: uni20BD
Encoding: 8381 8381 655
Width: 706
Flags: W
LayerCount: 2
Fore
SplineSet
280 219 m 1,0,-1
 280 157 l 1,1,-1
 501 157 l 1,2,-1
 501 91 l 1,3,-1
 280 91 l 1,4,-1
 280 0 l 1,5,-1
 97 0 l 1,6,-1
 97 91 l 1,7,-1
 17 91 l 1,8,-1
 17 157 l 1,9,-1
 97 157 l 1,10,-1
 97 701 l 1,11,-1
 404 701 l 2,12,13
 539 701 539 701 613 638.5 c 128,-1,14
 687 576 687 576 687 463 c 0,15,16
 687 347 687 347 613 283 c 128,-1,17
 539 219 539 219 404 219 c 2,18,-1
 280 219 l 1,0,-1
482.5 538 m 128,-1,20
 452 564 452 564 395 564 c 2,21,-1
 280 564 l 1,22,-1
 280 356 l 1,23,-1
 395 356 l 2,24,25
 452 356 452 356 482.5 383 c 128,-1,26
 513 410 513 410 513 462 c 0,27,19
 513 512 513 512 482.5 538 c 128,-1,20
EndSplineSet
EndChar

StartChar: uni2113
Encoding: 8467 8467 656
Width: 473
Flags: W
LayerCount: 2
Fore
SplineSet
201 652.5 m 128,-1,1
 253 709 253 709 323 709 c 0,2,3
 380 709 380 709 412.5 673 c 128,-1,4
 445 637 445 637 445 573 c 0,5,6
 445 502 445 502 408.5 437.5 c 128,-1,7
 372 373 372 373 322.5 323.5 c 128,-1,8
 273 274 273 274 208 220 c 1,9,10
 205 198 205 198 205 181 c 0,11,12
 205 112 205 112 261 112 c 0,13,14
 295 112 295 112 323.5 133.5 c 128,-1,15
 352 155 352 155 381 191 c 1,16,-1
 433 127 l 1,17,18
 349 -6 349 -6 223 -6 c 0,19,20
 90 -6 90 -6 79 143 c 1,21,-1
 32 115 l 1,22,-1
 7 188 l 1,23,-1
 90 246 l 1,24,-1
 129 482 l 2,25,0
 149 596 149 596 201 652.5 c 128,-1,1
313 456 m 128,-1,27
 348 516 348 516 348 570 c 0,28,29
 348 591 348 591 340.5 603.5 c 128,-1,30
 333 616 333 616 319 616 c 0,31,32
 274 616 274 616 254 498 c 2,33,-1
 229 348 l 1,34,26
 278 396 278 396 313 456 c 128,-1,27
EndSplineSet
EndChar

StartChar: trademark
Encoding: 8482 8482 658
Width: 906
Flags: W
LayerCount: 2
Fore
SplineSet
-8 701 m 1,0,-1
 341 701 l 1,1,-1
 341 596 l 1,2,-1
 230 596 l 1,3,-1
 230 280 l 1,4,-1
 102 280 l 1,5,-1
 102 596 l 1,6,-1
 -8 596 l 1,7,-1
 -8 701 l 1,0,-1
383 701 m 1,8,-1
 524 701 l 1,9,-1
 624 477 l 1,10,-1
 725 701 l 1,11,-1
 866 701 l 1,12,-1
 866 280 l 1,13,-1
 751 280 l 1,14,-1
 751 517 l 1,15,-1
 668 321 l 1,16,-1
 581 321 l 1,17,-1
 498 517 l 1,18,-1
 498 280 l 1,19,-1
 383 280 l 1,20,-1
 383 701 l 1,8,-1
EndSplineSet
EndChar

StartChar: estimated
Encoding: 8494 8494 660
Width: 809
Flags: W
LayerCount: 2
Fore
SplineSet
192 308 m 2,1,-1
 192 144 l 2,2,3
 192 135 192 135 200 125 c 0,4,5
 239 83 239 83 292.5 59.5 c 128,-1,6
 346 36 346 36 406 36 c 0,7,8
 469 36 469 36 525.5 62.5 c 128,-1,9
 582 89 582 89 621 135 c 1,10,-1
 670 135 l 1,11,12
 624 81 624 81 554 49.5 c 128,-1,13
 484 18 484 18 405 18 c 0,14,15
 314 18 314 18 237 58.5 c 128,-1,16
 160 99 160 99 115 168 c 128,-1,17
 70 237 70 237 70 319 c 256,18,19
 70 401 70 401 115 470.5 c 128,-1,20
 160 540 160 540 237 580.5 c 128,-1,21
 314 621 314 621 405 621 c 256,22,23
 496 621 496 621 573 580.5 c 128,-1,24
 650 540 650 540 695 470.5 c 128,-1,25
 740 401 740 401 740 319 c 2,26,-1
 740 312 l 1,27,-1
 197 312 l 2,28,0
 192 312 192 312 192 308 c 2,1,-1
609 518 m 0,30,31
 569 558 569 558 516.5 580.5 c 128,-1,32
 464 603 464 603 406 603 c 0,33,34
 347 603 347 603 294 579.5 c 128,-1,35
 241 556 241 556 201 515 c 0,36,37
 192 506 192 506 192 495 c 2,38,-1
 192 333 l 2,39,40
 192 328 192 328 197 328 c 2,41,-1
 613 328 l 2,42,43
 618 328 618 328 618 333 c 2,44,-1
 618 498 l 2,45,29
 618 509 618 509 609 518 c 0,30,31
EndSplineSet
EndChar

StartChar: arrowleft
Encoding: 8592 8592 667
Width: 600
Flags: W
LayerCount: 2
Fore
SplineSet
551 338 m 1,0,-1
 551 216 l 1,1,-1
 274 216 l 1,2,-1
 375 47 l 1,3,-1
 223 47 l 1,4,-1
 72 277 l 1,5,-1
 223 509 l 1,6,-1
 375 509 l 1,7,-1
 274 338 l 1,8,-1
 551 338 l 1,0,-1
EndSplineSet
EndChar

StartChar: arrowup
Encoding: 8593 8593 668
Width: 600
Flags: W
LayerCount: 2
Fore
SplineSet
530 370 m 1,0,-1
 530 233 l 1,1,-1
 369 329 l 1,2,-1
 369 40 l 1,3,-1
 232 40 l 1,4,-1
 232 329 l 1,5,-1
 70 233 l 1,6,-1
 70 370 l 1,7,-1
 300 521 l 1,8,-1
 530 370 l 1,0,-1
EndSplineSet
EndChar

StartChar: arrowright
Encoding: 8594 8594 669
Width: 600
Flags: W
LayerCount: 2
Fore
SplineSet
377 508 m 1,0,-1
 528 278 l 1,1,-1
 377 46 l 1,2,-1
 225 46 l 1,3,-1
 326 217 l 1,4,-1
 49 217 l 1,5,-1
 49 339 l 1,6,-1
 326 339 l 1,7,-1
 225 508 l 1,8,-1
 377 508 l 1,0,-1
EndSplineSet
EndChar

StartChar: arrowdown
Encoding: 8595 8595 670
Width: 600
Flags: W
LayerCount: 2
Fore
SplineSet
381 226 m 1,0,-1
 543 322 l 1,1,-1
 543 185 l 1,2,-1
 313 34 l 1,3,-1
 83 185 l 1,4,-1
 83 322 l 1,5,-1
 244 226 l 1,6,-1
 244 515 l 1,7,-1
 381 515 l 1,8,-1
 381 226 l 1,0,-1
EndSplineSet
EndChar

StartChar: arrowboth
Encoding: 8596 8596 671
Width: 851
Flags: W
LayerCount: 2
Fore
SplineSet
651 509 m 1,0,-1
 801 277 l 1,1,-1
 651 47 l 1,2,-1
 499 47 l 1,3,-1
 600 216 l 1,4,-1
 252 216 l 1,5,-1
 353 47 l 1,6,-1
 201 47 l 1,7,-1
 50 277 l 1,8,-1
 201 509 l 1,9,-1
 353 509 l 1,10,-1
 252 338 l 1,11,-1
 600 338 l 1,12,-1
 499 509 l 1,13,-1
 651 509 l 1,0,-1
EndSplineSet
EndChar

StartChar: arrowupdn
Encoding: 8597 8597 672
Width: 600
Flags: W
LayerCount: 2
Fore
SplineSet
530 409 m 1,0,-1
 369 505 l 1,1,-1
 369 211 l 1,2,-1
 530 307 l 1,3,-1
 530 170 l 1,4,-1
 301 18 l 1,5,-1
 71 170 l 1,6,-1
 71 307 l 1,7,-1
 232 211 l 1,8,-1
 232 505 l 1,9,-1
 70 409 l 1,10,-1
 70 545 l 1,11,-1
 300 697 l 1,12,-1
 530 545 l 1,13,-1
 530 409 l 1,0,-1
EndSplineSet
EndChar

StartChar: uni2196
Encoding: 8598 8598 673
Width: 600
Flags: W
LayerCount: 2
Fore
SplineSet
528 163 m 1,0,-1
 431 66 l 1,1,-1
 226 271 l 1,2,-1
 180 88 l 1,3,-1
 83 185 l 1,4,-1
 139 455 l 1,5,-1
 408 510 l 1,6,-1
 505 414 l 1,7,-1
 323 368 l 1,8,-1
 528 163 l 1,0,-1
EndSplineSet
EndChar

StartChar: uni2197
Encoding: 8599 8599 674
Width: 600
Flags: W
LayerCount: 2
Fore
SplineSet
531 179 m 1,0,-1
 435 82 l 1,1,-1
 389 264 l 1,2,-1
 184 59 l 1,3,-1
 87 156 l 1,4,-1
 292 361 l 1,5,-1
 109 407 l 1,6,-1
 206 504 l 1,7,-1
 476 448 l 1,8,-1
 531 179 l 1,0,-1
EndSplineSet
EndChar

StartChar: uni2198
Encoding: 8600 8600 675
Width: 600
Flags: W
LayerCount: 2
Fore
SplineSet
434 476 m 1,0,-1
 531 379 l 1,1,-1
 475 109 l 1,2,-1
 206 54 l 1,3,-1
 109 150 l 1,4,-1
 291 196 l 1,5,-1
 86 401 l 1,6,-1
 183 498 l 1,7,-1
 388 293 l 1,8,-1
 434 476 l 1,0,-1
EndSplineSet
EndChar

StartChar: uni2199
Encoding: 8601 8601 676
Width: 600
Flags: W
LayerCount: 2
Fore
SplineSet
527 408 m 1,0,-1
 322 203 l 1,1,-1
 505 157 l 1,2,-1
 408 60 l 1,3,-1
 138 116 l 1,4,-1
 83 385 l 1,5,-1
 179 482 l 1,6,-1
 225 300 l 1,7,-1
 430 505 l 1,8,-1
 527 408 l 1,0,-1
EndSplineSet
EndChar

StartChar: partialdiff
Encoding: 8706 8706 677
Width: 627
Flags: W
LayerCount: 2
Fore
SplineSet
150 689.5 m 128,-1,1
 214 708 214 708 276 708 c 0,2,3
 372 708 372 708 443.5 663.5 c 128,-1,4
 515 619 515 619 554 537.5 c 128,-1,5
 593 456 593 456 593 348 c 0,6,7
 593 239 593 239 556.5 158.5 c 128,-1,8
 520 78 520 78 451.5 35 c 128,-1,9
 383 -8 383 -8 289 -8 c 0,10,11
 211 -8 211 -8 151.5 21.5 c 128,-1,12
 92 51 92 51 59.5 106 c 128,-1,13
 27 161 27 161 27 234 c 0,14,15
 27 302 27 302 55.5 353.5 c 128,-1,16
 84 405 84 405 136.5 433.5 c 128,-1,17
 189 462 189 462 259 462 c 0,18,19
 315 462 315 462 356 440 c 128,-1,20
 397 418 397 418 418 380 c 1,21,22
 422 469 422 469 382 516.5 c 128,-1,23
 342 564 342 564 264 564 c 0,24,25
 174 564 174 564 110 509 c 1,26,-1
 40 640 l 1,27,0
 86 671 86 671 150 689.5 c 128,-1,1
222 301.5 m 128,-1,29
 197 278 197 278 197 235 c 0,30,31
 197 190 197 190 223 165.5 c 128,-1,32
 249 141 249 141 297 141 c 0,33,34
 346 141 346 141 372 167 c 128,-1,35
 398 193 398 193 398 232 c 0,36,37
 398 275 398 275 370.5 300 c 128,-1,38
 343 325 343 325 294 325 c 0,39,28
 247 325 247 325 222 301.5 c 128,-1,29
EndSplineSet
EndChar

StartChar: emptyset
Encoding: 8709 8709 678
Width: 542
Flags: W
LayerCount: 2
Fore
SplineSet
468 463 m 1,0,1
 511 401 511 401 511 327 c 0,2,3
 511 263 511 263 479 208 c 128,-1,4
 447 153 447 153 392.5 121 c 128,-1,5
 338 89 338 89 274 89 c 0,6,7
 190 89 190 89 125 143 c 1,8,-1
 47 70 l 1,9,-1
 0 121 l 1,10,-1
 79 194 l 1,11,12
 39 255 39 255 39 327 c 0,13,14
 39 391 39 391 70.5 445.5 c 128,-1,15
 102 500 102 500 156 532 c 128,-1,16
 210 564 210 564 274 564 c 0,17,18
 357 564 357 564 422 512 c 1,19,-1
 497 582 l 1,20,-1
 542 532 l 1,21,-1
 468 463 l 1,0,1
166 275 m 1,23,-1
 334 431 l 1,24,25
 304 446 304 446 274 446 c 0,26,27
 224 446 224 446 189 411 c 128,-1,28
 154 376 154 376 154 327 c 0,29,22
 154 299 154 299 166 275 c 1,23,-1
381 382 m 1,31,-1
 212 224 l 1,32,33
 240 207 240 207 274 207 c 0,34,35
 324 207 324 207 359.5 242 c 128,-1,36
 395 277 395 277 395 327 c 0,37,30
 395 357 395 357 381 382 c 1,31,-1
EndSplineSet
EndChar

StartChar: uni2206
Encoding: 8710 8710 679
Width: 719
Flags: W
LayerCount: 2
Fore
SplineSet
0 0 m 1,0,-1
 0 109 l 1,1,-1
 269 701 l 1,2,-1
 457 701 l 1,3,-1
 719 109 l 1,4,-1
 719 0 l 1,5,-1
 0 0 l 1,0,-1
194 146 m 1,6,-1
 519 146 l 1,7,-1
 357 517 l 1,8,-1
 194 146 l 1,6,-1
EndSplineSet
EndChar

StartChar: product
Encoding: 8719 8719 680
Width: 741
Flags: W
LayerCount: 2
Fore
SplineSet
68 742 m 1,0,-1
 673 742 l 1,1,-1
 673 -194 l 1,2,-1
 495 -194 l 1,3,-1
 495 600 l 1,4,-1
 246 600 l 1,5,-1
 246 -194 l 1,6,-1
 68 -194 l 1,7,-1
 68 742 l 1,0,-1
EndSplineSet
EndChar

StartChar: summation
Encoding: 8721 8721 681
Width: 617
Flags: W
LayerCount: 2
Fore
SplineSet
38 744 m 1,0,-1
 601 744 l 1,1,-1
 601 589 l 1,2,-1
 249 589 l 1,3,-1
 482 303 l 1,4,-1
 248 18 l 1,5,-1
 611 18 l 1,6,-1
 611 -138 l 1,7,-1
 27 -138 l 1,8,-1
 27 -9 l 1,9,-1
 288 302 l 1,10,-1
 38 612 l 1,11,-1
 38 744 l 1,0,-1
EndSplineSet
EndChar

StartChar: minus
Encoding: 8722 8722 682
Width: 511
Flags: W
LayerCount: 2
Fore
SplineSet
32 384 m 1,0,-1
 478 384 l 1,1,-1
 478 270 l 1,2,-1
 32 270 l 1,3,-1
 32 384 l 1,0,-1
EndSplineSet
EndChar

StartChar: uni2219
Encoding: 8729 8729 684
Width: 331
Flags: W
LayerCount: 2
Fore
SplineSet
258 370.5 m 128,-1,1
 294 334 294 334 294 277 c 0,2,3
 294 219 294 219 258 182.5 c 128,-1,4
 222 146 222 146 165 146 c 0,5,6
 109 146 109 146 73 182.5 c 128,-1,7
 37 219 37 219 37 277 c 0,8,9
 37 334 37 334 73 370.5 c 128,-1,10
 109 407 109 407 165 407 c 0,11,0
 222 407 222 407 258 370.5 c 128,-1,1
EndSplineSet
EndChar

StartChar: radical
Encoding: 8730 8730 685
Width: 710
Flags: W
LayerCount: 2
Fore
SplineSet
553 745 m 1,0,-1
 723 745 l 1,1,-1
 453 -158 l 1,2,-1
 263 -158 l 1,3,-1
 128 268 l 1,4,-1
 1 268 l 1,5,-1
 1 410 l 1,6,-1
 250 410 l 1,7,-1
 359 23 l 1,8,-1
 553 745 l 1,0,-1
EndSplineSet
EndChar

StartChar: infinity
Encoding: 8734 8734 686
Width: 852
Flags: W
LayerCount: 2
Fore
SplineSet
729 487 m 128,-1,1
 776 459 776 459 802.5 410 c 128,-1,2
 829 361 829 361 829 299 c 256,3,4
 829 237 829 237 802.5 187.5 c 128,-1,5
 776 138 776 138 729 110 c 128,-1,6
 682 82 682 82 624 82 c 0,7,8
 555 82 555 82 510.5 115.5 c 128,-1,9
 466 149 466 149 427 209 c 1,10,11
 390 149 390 149 344 115.5 c 128,-1,12
 298 82 298 82 228 82 c 0,13,14
 170 82 170 82 123.5 110 c 128,-1,15
 77 138 77 138 50.5 187.5 c 128,-1,16
 24 237 24 237 24 298 c 0,17,18
 24 360 24 360 50.5 409.5 c 128,-1,19
 77 459 77 459 123.5 487 c 128,-1,20
 170 515 170 515 228 515 c 0,21,22
 296 515 296 515 340.5 481.5 c 128,-1,23
 385 448 385 448 424 388 c 1,24,25
 463 448 463 448 508 481.5 c 128,-1,26
 553 515 553 515 624 515 c 0,27,0
 682 515 682 515 729 487 c 128,-1,1
683 231 m 128,-1,29
 709 258 709 258 709 299 c 256,30,31
 709 340 709 340 683 367 c 128,-1,32
 657 394 657 394 618 394 c 0,33,34
 573 394 573 394 541.5 369 c 128,-1,35
 510 344 510 344 480 297 c 1,36,37
 509 252 509 252 541 228 c 128,-1,38
 573 204 573 204 618 204 c 0,39,28
 657 204 657 204 683 231 c 128,-1,29
311.5 228.5 m 128,-1,41
 343 253 343 253 372 300 c 1,42,43
 342 345 342 345 310.5 369 c 128,-1,44
 279 393 279 393 234 393 c 0,45,46
 195 393 195 393 169.5 366 c 128,-1,47
 144 339 144 339 144 298 c 256,48,49
 144 257 144 257 169.5 230.5 c 128,-1,50
 195 204 195 204 234 204 c 0,51,40
 280 204 280 204 311.5 228.5 c 128,-1,41
EndSplineSet
EndChar

StartChar: integral
Encoding: 8747 8747 687
Width: 395
Flags: W
LayerCount: 2
Fore
SplineSet
334 726 m 0,1,2
 290 726 290 726 272 702 c 128,-1,3
 254 678 254 678 254 620 c 0,4,5
 254 580 254 580 266 378 c 0,6,7
 268 350 268 350 273.5 251.5 c 128,-1,8
 279 153 279 153 279 110 c 0,9,10
 279 19 279 19 260 -35.5 c 128,-1,11
 241 -90 241 -90 199.5 -115 c 128,-1,12
 158 -140 158 -140 88 -140 c 0,13,14
 53 -140 53 -140 27.5 -133.5 c 128,-1,15
 2 -127 2 -127 -21 -113 c 1,16,-1
 0 3 l 1,17,18
 21 -7 21 -7 36 -11.5 c 128,-1,19
 51 -16 51 -16 66 -16 c 0,20,21
 111 -16 111 -16 130 10 c 128,-1,22
 149 36 149 36 149 97 c 0,23,24
 149 151 149 151 135 361 c 0,25,26
 122 547 122 547 122 604 c 0,27,28
 122 694 122 694 141 748 c 128,-1,29
 160 802 160 802 201.5 827 c 128,-1,30
 243 852 243 852 312 852 c 0,31,32
 337 852 337 852 359 847 c 128,-1,33
 381 842 381 842 408 830 c 1,34,-1
 390 715 l 1,35,0
 360 726 360 726 334 726 c 0,1,2
EndSplineSet
EndChar

StartChar: approxequal
Encoding: 8776 8776 688
Width: 511
Flags: W
LayerCount: 2
Fore
SplineSet
428 395 m 128,-1,1
 400 352 400 352 342 352 c 0,2,3
 315 352 315 352 295 360 c 128,-1,4
 275 368 275 368 249 383 c 0,5,6
 220 401 220 401 206 401 c 0,7,8
 175 401 175 401 175 356 c 1,9,-1
 55 356 l 1,10,11
 55 444 55 444 83.5 487.5 c 128,-1,12
 112 531 112 531 170 531 c 0,13,14
 196 531 196 531 216.5 523 c 128,-1,15
 237 515 237 515 262 500 c 0,16,17
 291 482 291 482 306 482 c 0,18,19
 337 482 337 482 337 527 c 1,20,-1
 456 527 l 1,21,0
 456 438 456 438 428 395 c 128,-1,1
428 163 m 128,-1,23
 400 120 400 120 342 120 c 0,24,25
 315 120 315 120 294 128.5 c 128,-1,26
 273 137 273 137 249 152 c 0,27,28
 220 170 220 170 206 170 c 0,29,30
 175 170 175 170 175 125 c 1,31,-1
 55 125 l 1,32,33
 55 213 55 213 83.5 256.5 c 128,-1,34
 112 300 112 300 170 300 c 0,35,36
 196 300 196 300 217 291.5 c 128,-1,37
 238 283 238 283 262 268 c 0,38,39
 265 266 265 266 274.5 260.5 c 128,-1,40
 284 255 284 255 292 252.5 c 128,-1,41
 300 250 300 250 306 250 c 0,42,43
 337 250 337 250 337 295 c 1,44,-1
 456 295 l 1,45,22
 456 206 456 206 428 163 c 128,-1,23
EndSplineSet
EndChar

StartChar: notequal
Encoding: 8800 8800 689
Width: 511
Flags: W
LayerCount: 2
Fore
SplineSet
478 378 m 1,0,-1
 334 378 l 1,1,-1
 302 276 l 1,2,-1
 478 276 l 1,3,-1
 478 162 l 1,4,-1
 266 162 l 1,5,-1
 221 21 l 1,6,-1
 88 21 l 1,7,-1
 132 162 l 1,8,-1
 32 162 l 1,9,-1
 32 276 l 1,10,-1
 168 276 l 1,11,-1
 200 378 l 1,12,-1
 32 378 l 1,13,-1
 32 492 l 1,14,-1
 236 492 l 1,15,-1
 279 628 l 1,16,-1
 413 628 l 1,17,-1
 370 492 l 1,18,-1
 478 492 l 1,19,-1
 478 378 l 1,0,-1
EndSplineSet
EndChar

StartChar: lessequal
Encoding: 8804 8804 690
Width: 511
Flags: W
LayerCount: 2
Fore
SplineSet
478 648 m 1,0,-1
 478 526 l 1,1,-1
 147 400 l 1,2,-1
 478 274 l 1,3,-1
 478 151 l 1,4,-1
 32 329 l 1,5,-1
 32 470 l 1,6,-1
 478 648 l 1,0,-1
32 113 m 1,7,-1
 478 113 l 1,8,-1
 478 -1 l 1,9,-1
 32 -1 l 1,10,-1
 32 113 l 1,7,-1
EndSplineSet
EndChar

StartChar: greaterequal
Encoding: 8805 8805 691
Width: 511
Flags: W
LayerCount: 2
Fore
SplineSet
33 159 m 1,0,-1
 33 281 l 1,1,-1
 364 407 l 1,2,-1
 33 533 l 1,3,-1
 33 655 l 1,4,-1
 479 477 l 1,5,-1
 479 337 l 1,6,-1
 33 159 l 1,0,-1
32 113 m 1,7,-1
 478 113 l 1,8,-1
 478 -1 l 1,9,-1
 32 -1 l 1,10,-1
 32 113 l 1,7,-1
EndSplineSet
EndChar

StartChar: filledbox
Encoding: 9632 9632 692
Width: 600
Flags: W
LayerCount: 2
Fore
SplineSet
106 459 m 1,0,-1
 494 459 l 1,1,-1
 494 71 l 1,2,-1
 106 71 l 1,3,-1
 106 459 l 1,0,-1
EndSplineSet
EndChar

StartChar: uni25A1
Encoding: 9633 9633 693
Width: 600
Flags: W
LayerCount: 2
Fore
SplineSet
106 459 m 1,0,-1
 494 459 l 1,1,-1
 494 71 l 1,2,-1
 106 71 l 1,3,-1
 106 459 l 1,0,-1
202 362 m 1,4,-1
 202 168 l 1,5,-1
 398 168 l 1,6,-1
 398 362 l 1,7,-1
 202 362 l 1,4,-1
EndSplineSet
EndChar

StartChar: triagup
Encoding: 9650 9650 694
Width: 600
Flags: W
LayerCount: 2
Fore
SplineSet
300 478 m 1,0,-1
 513 52 l 1,1,-1
 87 52 l 1,2,-1
 300 478 l 1,0,-1
EndSplineSet
EndChar

StartChar: uni25B3
Encoding: 9651 9651 695
Width: 600
Flags: W
LayerCount: 2
Fore
SplineSet
300 478 m 1,0,-1
 513 52 l 1,1,-1
 87 52 l 1,2,-1
 300 478 l 1,0,-1
300 298 m 1,3,-1
 217 133 l 1,4,-1
 383 133 l 1,5,-1
 300 298 l 1,3,-1
EndSplineSet
EndChar

StartChar: uni25B6
Encoding: 9654 9654 696
Width: 600
Flags: W
LayerCount: 2
Fore
SplineSet
541 266 m 1,0,-1
 115 53 l 1,1,-1
 115 479 l 1,2,-1
 541 266 l 1,0,-1
EndSplineSet
EndChar

StartChar: uni25B7
Encoding: 9655 9655 697
Width: 600
Flags: W
LayerCount: 2
Fore
SplineSet
541 266 m 1,0,-1
 115 53 l 1,1,-1
 115 479 l 1,2,-1
 541 266 l 1,0,-1
361 266 m 1,3,-1
 196 349 l 1,4,-1
 196 183 l 1,5,-1
 361 266 l 1,3,-1
EndSplineSet
EndChar

StartChar: triagdn
Encoding: 9660 9660 698
Width: 600
Flags: W
LayerCount: 2
Fore
SplineSet
300 52 m 1,0,-1
 87 478 l 1,1,-1
 513 478 l 1,2,-1
 300 52 l 1,0,-1
EndSplineSet
EndChar

StartChar: uni25BD
Encoding: 9661 9661 699
Width: 600
Flags: W
LayerCount: 2
Fore
SplineSet
300 52 m 1,0,-1
 87 478 l 1,1,-1
 513 478 l 1,2,-1
 300 52 l 1,0,-1
300 232 m 1,3,-1
 383 397 l 1,4,-1
 217 397 l 1,5,-1
 300 232 l 1,3,-1
EndSplineSet
EndChar

StartChar: uni25C0
Encoding: 9664 9664 700
Width: 600
Flags: W
LayerCount: 2
Fore
SplineSet
58 265 m 1,0,-1
 484 478 l 1,1,-1
 484 52 l 1,2,-1
 58 265 l 1,0,-1
EndSplineSet
EndChar

StartChar: uni25C1
Encoding: 9665 9665 701
Width: 600
Flags: W
LayerCount: 2
Fore
SplineSet
58 265 m 1,0,-1
 484 478 l 1,1,-1
 484 52 l 1,2,-1
 58 265 l 1,0,-1
238 265 m 1,3,-1
 403 182 l 1,4,-1
 403 348 l 1,5,-1
 238 265 l 1,3,-1
EndSplineSet
EndChar

StartChar: uni25C6
Encoding: 9670 9670 702
Width: 600
Flags: W
LayerCount: 2
Fore
SplineSet
300 540 m 1,0,-1
 574 265 l 1,1,-1
 300 -9 l 1,2,-1
 25 265 l 1,3,-1
 300 540 l 1,0,-1
EndSplineSet
EndChar

StartChar: uni25C7
Encoding: 9671 9671 703
Width: 600
Flags: W
LayerCount: 2
Fore
SplineSet
300 540 m 1,0,-1
 574 265 l 1,1,-1
 300 -9 l 1,2,-1
 25 265 l 1,3,-1
 300 540 l 1,0,-1
299 403 m 1,4,-1
 162 266 l 1,5,-1
 300 127 l 1,6,-1
 437 265 l 1,7,-1
 299 403 l 1,4,-1
EndSplineSet
EndChar

StartChar: lozenge
Encoding: 9674 9674 704
Width: 505
Flags: W
LayerCount: 2
Fore
SplineSet
253 670 m 1,0,-1
 482 330 l 1,1,-1
 252 -13 l 1,2,-1
 24 330 l 1,3,-1
 253 670 l 1,0,-1
253 479 m 1,4,-1
 151 330 l 1,5,-1
 252 179 l 1,6,-1
 354 330 l 1,7,-1
 253 479 l 1,4,-1
EndSplineSet
EndChar

StartChar: uniA78B
Encoding: 42891 42891 705
Width: 310
Flags: W
LayerCount: 2
Fore
SplineSet
64 701 m 1,0,-1
 247 701 l 1,1,-1
 224 298 l 1,2,-1
 64 298 l 1,3,-1
 64 701 l 1,0,-1
EndSplineSet
EndChar

StartChar: uniA78C
Encoding: 42892 42892 706
Width: 304
Flags: W
LayerCount: 2
Fore
SplineSet
64 686 m 1,0,-1
 241 686 l 1,1,-1
 217 298 l 1,2,-1
 64 298 l 1,3,-1
 64 686 l 1,0,-1
EndSplineSet
Substitution2: "<3,3> Small Caps in Latin lookup 11 subtable" uniA78C.sc
EndChar

StartChar: A.ss01
Encoding: 65538 -1 709
Width: 753
Flags: W
LayerCount: 2
Fore
SplineSet
95 569.5 m 128,-1,1
 134 638 134 638 206 675 c 128,-1,2
 278 712 278 712 375 712 c 0,3,4
 473 712 473 712 545.5 675 c 128,-1,5
 618 638 618 638 657.5 569.5 c 128,-1,6
 697 501 697 501 697 410 c 2,7,-1
 697 0 l 1,8,-1
 514 0 l 1,9,-1
 514 165 l 1,10,-1
 239 165 l 1,11,-1
 239 0 l 1,12,-1
 56 0 l 1,13,-1
 56 410 l 2,14,0
 56 501 56 501 95 569.5 c 128,-1,1
476.5 517 m 128,-1,16
 439 557 439 557 376 557 c 256,17,18
 313 557 313 557 276 517 c 128,-1,19
 239 477 239 477 239 410 c 2,20,-1
 239 305 l 1,21,-1
 514 305 l 1,22,-1
 514 410 l 2,23,15
 514 477 514 477 476.5 517 c 128,-1,16
EndSplineSet
EndChar

StartChar: Adieresis.alt
Encoding: 65553 -1 724
Width: 773
Flags: W
LayerCount: 2
Fore
SplineSet
105 594.5 m 128,-1,1
 87 613 87 613 87 640 c 0,2,3
 87 668 87 668 105 686 c 128,-1,4
 123 704 123 704 151 704 c 256,5,6
 179 704 179 704 196.5 686 c 128,-1,7
 214 668 214 668 214 640 c 0,8,9
 214 613 214 613 196 594.5 c 128,-1,10
 178 576 178 576 151 576 c 0,11,0
 123 576 123 576 105 594.5 c 128,-1,1
585 594.5 m 128,-1,13
 567 613 567 613 567 640 c 0,14,15
 567 668 567 668 585 686 c 128,-1,16
 603 704 603 704 631 704 c 256,17,18
 659 704 659 704 677 686 c 128,-1,19
 695 668 695 668 695 640 c 0,20,21
 695 613 695 613 677 594.5 c 128,-1,22
 659 576 659 576 631 576 c 256,23,12
 603 576 603 576 585 594.5 c 128,-1,13
583 0 m 1,24,-1
 535 124 l 1,25,-1
 232 124 l 1,26,-1
 183 0 l 1,27,-1
 -5 0 l 1,28,-1
 296 701 l 1,29,-1
 484 701 l 1,30,-1
 778 0 l 1,31,-1
 583 0 l 1,24,-1
287 264 m 1,32,-1
 481 264 l 1,33,-1
 385 514 l 1,34,-1
 287 264 l 1,32,-1
EndSplineSet
EndChar

StartChar: Aogonek.ss01
Encoding: 65560 -1 731
Width: 753
Flags: W
LayerCount: 2
Fore
SplineSet
600 -51 m 128,-1,1
 581 -74 581 -74 581 -97 c 0,2,3
 581 -110 581 -110 587 -117 c 128,-1,4
 593 -124 593 -124 604 -124 c 0,5,6
 616 -124 616 -124 632 -116 c 1,7,-1
 661 -211 l 1,8,9
 612 -233 612 -233 564 -233 c 0,10,11
 511 -233 511 -233 481.5 -204 c 128,-1,12
 452 -175 452 -175 452 -127 c 0,13,14
 452 -57 452 -57 514 4 c 1,15,-1
 514 165 l 1,16,-1
 239 165 l 1,17,-1
 239 0 l 1,18,-1
 56 0 l 1,19,-1
 56 410 l 2,20,21
 56 501 56 501 95 569.5 c 128,-1,22
 134 638 134 638 206 675 c 128,-1,23
 278 712 278 712 375 712 c 0,24,25
 473 712 473 712 545.5 675 c 128,-1,26
 618 638 618 638 657.5 569.5 c 128,-1,27
 697 501 697 501 697 410 c 2,28,-1
 697 0 l 1,29,-1
 658 0 l 1,30,0
 619 -28 619 -28 600 -51 c 128,-1,1
514 305 m 1,31,-1
 514 410 l 2,32,33
 514 477 514 477 476.5 517 c 128,-1,34
 439 557 439 557 376 557 c 256,35,36
 313 557 313 557 276 517 c 128,-1,37
 239 477 239 477 239 410 c 2,38,-1
 239 305 l 1,39,-1
 514 305 l 1,31,-1
EndSplineSet
EndChar

StartChar: E.ss01
Encoding: 65566 -1 737
Width: 641
Flags: W
LayerCount: 2
Fore
SplineSet
250 270.5 m 128,-1,1
 216 251 216 251 216 218 c 0,2,3
 216 182 216 182 254 160 c 128,-1,4
 292 138 292 138 350 138 c 0,5,6
 399 138 399 138 461 154.5 c 128,-1,7
 523 171 523 171 563 194 c 1,8,-1
 632 59 l 1,9,10
 577 26 577 26 496.5 6.5 c 128,-1,11
 416 -13 416 -13 334 -13 c 0,12,13
 242 -13 242 -13 172.5 12 c 128,-1,14
 103 37 103 37 65 83 c 128,-1,15
 27 129 27 129 27 191 c 0,16,17
 27 255 27 255 68.5 302.5 c 128,-1,18
 110 350 110 350 182 370 c 1,19,20
 129 390 129 390 98 432.5 c 128,-1,21
 67 475 67 475 67 529 c 0,22,23
 67 586 67 586 101.5 628 c 128,-1,24
 136 670 136 670 200 692.5 c 128,-1,25
 264 715 264 715 350 715 c 0,26,27
 421 715 421 715 490 700.5 c 128,-1,28
 559 686 559 686 604 663 c 1,29,-1
 545 527 l 1,30,31
 506 544 506 544 458 554.5 c 128,-1,32
 410 565 410 565 366 565 c 0,33,34
 308 565 308 565 274.5 545.5 c 128,-1,35
 241 526 241 526 241 493 c 0,36,37
 241 463 241 463 269.5 446.5 c 128,-1,38
 298 430 298 430 340 430 c 2,39,-1
 513 430 l 1,40,-1
 513 290 l 1,41,-1
 340 290 l 2,42,0
 284 290 284 290 250 270.5 c 128,-1,1
EndSplineSet
EndChar

StartChar: uni1E1C.ss01
Encoding: 65570 -1 741
Width: 641
Flags: W
LayerCount: 2
Fore
SplineSet
207.5 799 m 128,-1,1
 162 843 162 843 159 916 c 1,2,-1
 270 916 l 1,3,4
 272 890 272 890 287 874.5 c 128,-1,5
 302 859 302 859 325 859 c 0,6,7
 347 859 347 859 362.5 874.5 c 128,-1,8
 378 890 378 890 380 916 c 1,9,-1
 490 916 l 1,10,11
 487 843 487 843 442 799 c 128,-1,12
 397 755 397 755 325 755 c 256,13,0
 253 755 253 755 207.5 799 c 128,-1,1
444 -86.5 m 128,-1,15
 464 -108 464 -108 464 -137 c 0,16,17
 464 -185 464 -185 427.5 -209.5 c 128,-1,18
 391 -234 391 -234 336 -234 c 256,19,20
 281 -234 281 -234 226 -214 c 1,21,-1
 254 -134 l 1,22,23
 277 -143 277 -143 305 -143 c 0,24,25
 323 -143 323 -143 334 -137 c 128,-1,26
 345 -131 345 -131 345 -121 c 0,27,28
 345 -110 345 -110 330 -104 c 128,-1,29
 315 -98 315 -98 292 -98 c 2,30,-1
 268 -98 l 1,31,-1
 296 -12 l 1,32,33
 172 -4 172 -4 99.5 50 c 128,-1,34
 27 104 27 104 27 191 c 0,35,36
 27 255 27 255 68.5 302.5 c 128,-1,37
 110 350 110 350 182 370 c 1,38,39
 129 390 129 390 98 432.5 c 128,-1,40
 67 475 67 475 67 529 c 0,41,42
 67 586 67 586 101.5 628 c 128,-1,43
 136 670 136 670 200 692.5 c 128,-1,44
 264 715 264 715 350 715 c 0,45,46
 421 715 421 715 490 700.5 c 128,-1,47
 559 686 559 686 604 663 c 1,48,-1
 545 527 l 1,49,50
 506 544 506 544 458 554.5 c 128,-1,51
 410 565 410 565 366 565 c 0,52,53
 308 565 308 565 274.5 545.5 c 128,-1,54
 241 526 241 526 241 493 c 0,55,56
 241 463 241 463 269.5 446.5 c 128,-1,57
 298 430 298 430 340 430 c 2,58,-1
 513 430 l 1,59,-1
 513 290 l 1,60,-1
 340 290 l 2,61,62
 284 290 284 290 250 270.5 c 128,-1,63
 216 251 216 251 216 218 c 0,64,65
 216 182 216 182 254 160 c 128,-1,66
 292 138 292 138 350 138 c 0,67,68
 399 138 399 138 461 154.5 c 128,-1,69
 523 171 523 171 563 194 c 1,70,-1
 632 59 l 1,71,72
 588 33 588 33 526.5 15 c 128,-1,73
 465 -3 465 -3 398 -10 c 1,74,-1
 382 -56 l 1,75,14
 424 -65 424 -65 444 -86.5 c 128,-1,15
EndSplineSet
EndChar

StartChar: Eogonek.ss01
Encoding: 65587 -1 758
Width: 641
Flags: W
LayerCount: 2
Fore
SplineSet
586 -116 m 1,1,-1
 615 -211 l 1,2,3
 564 -233 564 -233 520 -233 c 0,4,5
 469 -233 469 -233 437.5 -205.5 c 128,-1,6
 406 -178 406 -178 406 -125 c 0,7,8
 406 -61 406 -61 462 -1 c 1,9,10
 401 -13 401 -13 334 -13 c 0,11,12
 242 -13 242 -13 172.5 12 c 128,-1,13
 103 37 103 37 65 83 c 128,-1,14
 27 129 27 129 27 191 c 0,15,16
 27 255 27 255 68.5 302.5 c 128,-1,17
 110 350 110 350 182 370 c 1,18,19
 129 390 129 390 98 432.5 c 128,-1,20
 67 475 67 475 67 529 c 0,21,22
 67 586 67 586 101.5 628 c 128,-1,23
 136 670 136 670 200 692.5 c 128,-1,24
 264 715 264 715 350 715 c 0,25,26
 421 715 421 715 490 700.5 c 128,-1,27
 559 686 559 686 604 663 c 1,28,-1
 545 527 l 1,29,30
 506 544 506 544 458 554.5 c 128,-1,31
 410 565 410 565 366 565 c 0,32,33
 308 565 308 565 274.5 545.5 c 128,-1,34
 241 526 241 526 241 493 c 0,35,36
 241 463 241 463 269.5 446.5 c 128,-1,37
 298 430 298 430 340 430 c 2,38,-1
 513 430 l 1,39,-1
 513 290 l 1,40,-1
 340 290 l 2,41,42
 284 290 284 290 250 270.5 c 128,-1,43
 216 251 216 251 216 218 c 0,44,45
 216 182 216 182 254 160 c 128,-1,46
 292 138 292 138 350 138 c 0,47,48
 399 138 399 138 461 154.5 c 128,-1,49
 523 171 523 171 563 194 c 1,50,-1
 632 59 l 1,51,-1
 613 48 l 1,52,53
 578 13 578 13 556.5 -25.5 c 128,-1,54
 535 -64 535 -64 535 -93 c 0,55,56
 535 -124 535 -124 557 -124 c 0,57,0
 572 -124 572 -124 586 -116 c 1,1,-1
EndSplineSet
EndChar

StartChar: F.ss01
Encoding: 65589 -1 760
Width: 559
Flags: W
LayerCount: 2
Fore
SplineSet
265.5 527.5 m 128,-1,1
 240 502 240 502 240 460 c 2,2,-1
 240 393 l 1,3,-1
 501 393 l 1,4,-1
 501 247 l 1,5,-1
 240 247 l 1,6,-1
 240 0 l 1,7,-1
 56 0 l 1,8,-1
 56 464 l 2,9,10
 56 538 56 538 88 593 c 128,-1,11
 120 648 120 648 179 678 c 128,-1,12
 238 708 238 708 316 708 c 0,13,14
 384 708 384 708 451 695.5 c 128,-1,15
 518 683 518 683 563 662 c 1,16,-1
 521 509 l 1,17,18
 477 528 477 528 425 540.5 c 128,-1,19
 373 553 373 553 333 553 c 0,20,0
 291 553 291 553 265.5 527.5 c 128,-1,1
EndSplineSet
EndChar

StartChar: G.ss01
Encoding: 65590 -1 761
Width: 743
Flags: W
LayerCount: 2
Fore
SplineSet
532 364 m 1,0,-1
 690 364 l 1,1,-1
 690 0 l 1,2,-1
 555 0 l 1,3,-1
 555 47 l 1,4,5
 515 19 515 19 469.5 3 c 128,-1,6
 424 -13 424 -13 378 -13 c 0,7,8
 278 -13 278 -13 197 34.5 c 128,-1,9
 116 82 116 82 69.5 165 c 128,-1,10
 23 248 23 248 23 351 c 0,11,12
 23 453 23 453 73 535.5 c 128,-1,13
 123 618 123 618 210.5 665 c 128,-1,14
 298 712 298 712 407 712 c 0,15,16
 486 712 486 712 564.5 683.5 c 128,-1,17
 643 655 643 655 698 607 c 1,18,-1
 594 479 l 1,19,20
 556 515 556 515 507 536 c 128,-1,21
 458 557 458 557 409 557 c 0,22,23
 354 557 354 557 308.5 530 c 128,-1,24
 263 503 263 503 237 456 c 128,-1,25
 211 409 211 409 211 351 c 0,26,27
 211 292 211 292 235.5 244.5 c 128,-1,28
 260 197 260 197 303 170 c 128,-1,29
 346 143 346 143 399 143 c 0,30,31
 437 143 437 143 472 159.5 c 128,-1,32
 507 176 507 176 532 204 c 1,33,-1
 532 364 l 1,0,-1
EndSplineSet
EndChar

StartChar: I.ss01
Encoding: 65597 -1 768
Width: 507
Flags: W
LayerCount: 2
Fore
SplineSet
462 555 m 1,0,-1
 345 555 l 1,1,-1
 345 146 l 1,2,-1
 462 146 l 1,3,-1
 462 0 l 1,4,-1
 45 0 l 1,5,-1
 45 146 l 1,6,-1
 162 146 l 1,7,-1
 162 555 l 1,8,-1
 45 555 l 1,9,-1
 45 701 l 1,10,-1
 462 701 l 1,11,-1
 462 555 l 1,0,-1
EndSplineSet
EndChar

StartChar: Iogonek.ss01
Encoding: 65613 -1 784
Width: 507
Flags: W
LayerCount: 2
Fore
SplineSet
345 555 m 1,0,-1
 345 146 l 1,1,-1
 462 146 l 1,2,-1
 462 0 l 1,3,-1
 306 0 l 1,4,5
 267 -28 267 -28 248 -51 c 128,-1,6
 229 -74 229 -74 229 -97 c 0,7,8
 229 -110 229 -110 235 -117 c 128,-1,9
 241 -124 241 -124 252 -124 c 0,10,11
 264 -124 264 -124 280 -116 c 1,12,-1
 309 -211 l 1,13,14
 260 -233 260 -233 212 -233 c 0,15,16
 159 -233 159 -233 129.5 -204 c 128,-1,17
 100 -175 100 -175 100 -127 c 0,18,19
 100 -95 100 -95 114.5 -62.5 c 128,-1,20
 129 -30 129 -30 158 0 c 1,21,-1
 45 0 l 1,22,-1
 45 146 l 1,23,-1
 162 146 l 1,24,-1
 162 555 l 1,25,-1
 45 555 l 1,26,-1
 45 701 l 1,27,-1
 462 701 l 1,28,-1
 462 555 l 1,29,-1
 345 555 l 1,0,-1
EndSplineSet
EndChar

StartChar: J.ss01
Encoding: 65615 -1 786
Width: 539
Flags: W
LayerCount: 2
Fore
SplineSet
417.5 -46 m 128,-1,1
 352 -108 352 -108 238 -108 c 0,2,3
 92 -108 92 -108 -5 5 c 1,4,-1
 79 130 l 1,5,6
 116 92 116 92 155 71.5 c 128,-1,7
 194 51 194 51 226 51 c 0,8,9
 260 51 260 51 280 72 c 128,-1,10
 300 93 300 93 300 132 c 2,11,-1
 300 550 l 1,12,-1
 59 550 l 1,13,-1
 59 701 l 1,14,-1
 483 701 l 1,15,-1
 483 128 l 2,16,0
 483 16 483 16 417.5 -46 c 128,-1,1
EndSplineSet
EndChar

StartChar: M.ss01
Encoding: 65620 -1 791
Width: 1175
Flags: W
LayerCount: 2
Fore
SplineSet
1010.5 680 m 128,-1,1
 1062 648 1062 648 1090.5 590 c 128,-1,2
 1119 532 1119 532 1119 455 c 2,3,-1
 1119 0 l 1,4,-1
 934 0 l 1,5,-1
 934 411 l 2,6,7
 934 471 934 471 903 508 c 128,-1,8
 872 545 872 545 819 545 c 0,9,10
 760 545 760 545 722.5 501 c 128,-1,11
 685 457 685 457 685 390 c 2,12,-1
 685 0 l 1,13,-1
 500 0 l 1,14,-1
 500 411 l 2,15,16
 500 471 500 471 468.5 508 c 128,-1,17
 437 545 437 545 384 545 c 0,18,19
 326 545 326 545 288.5 501 c 128,-1,20
 251 457 251 457 251 390 c 2,21,-1
 251 0 l 1,22,-1
 68 0 l 1,23,-1
 68 703 l 1,24,-1
 251 703 l 1,25,-1
 251 601 l 1,26,27
 285 654 285 654 338 683 c 128,-1,28
 391 712 391 712 458 712 c 0,29,30
 532 712 532 712 586.5 673.5 c 128,-1,31
 641 635 641 635 666 567 c 1,32,33
 698 636 698 636 756.5 674 c 128,-1,34
 815 712 815 712 892 712 c 0,35,0
 959 712 959 712 1010.5 680 c 128,-1,1
EndSplineSet
EndChar

StartChar: N.ss01
Encoding: 65622 -1 793
Width: 764
Flags: W
LayerCount: 2
Fore
SplineSet
594.5 680 m 128,-1,1
 649 648 649 648 679 590 c 128,-1,2
 709 532 709 532 709 455 c 2,3,-1
 709 0 l 1,4,-1
 523 0 l 1,5,-1
 523 411 l 2,6,7
 523 471 523 471 489 508 c 128,-1,8
 455 545 455 545 399 545 c 0,9,10
 334 545 334 545 292.5 501 c 128,-1,11
 251 457 251 457 251 390 c 2,12,-1
 251 0 l 1,13,-1
 68 0 l 1,14,-1
 68 701 l 1,15,-1
 251 701 l 1,16,-1
 251 599 l 1,17,18
 287 653 287 653 343.5 682.5 c 128,-1,19
 400 712 400 712 470 712 c 256,20,0
 540 712 540 712 594.5 680 c 128,-1,1
EndSplineSet
EndChar

StartChar: Eng.ss01
Encoding: 65629 -1 800
Width: 765
Flags: W
LayerCount: 2
Fore
SplineSet
594.5 669 m 128,-1,1
 649 637 649 637 679 578.5 c 128,-1,2
 709 520 709 520 709 443 c 2,3,-1
 709 0 l 1,4,5
 705 -101 705 -101 639 -158.5 c 128,-1,6
 573 -216 573 -216 464 -216 c 0,7,8
 360 -216 360 -216 284 -160 c 1,9,-1
 348 -21 l 1,10,11
 407 -57 407 -57 455 -57 c 0,12,13
 488 -57 488 -57 505.5 -38.5 c 128,-1,14
 523 -20 523 -20 523 15 c 2,15,-1
 523 400 l 2,16,17
 523 460 523 460 489 496.5 c 128,-1,18
 455 533 455 533 399 533 c 0,19,20
 333 532 333 532 292 488.5 c 128,-1,21
 251 445 251 445 251 378 c 2,22,-1
 251 0 l 1,23,-1
 68 0 l 1,24,-1
 68 701 l 1,25,-1
 251 701 l 1,26,-1
 251 586 l 1,27,28
 287 641 287 641 343 670.5 c 128,-1,29
 399 700 399 700 470 701 c 0,30,0
 540 701 540 701 594.5 669 c 128,-1,1
EndSplineSet
EndChar

StartChar: Q.ss01
Encoding: 65633 -1 804
Width: 804
Flags: W
LayerCount: 2
Fore
SplineSet
740 181 m 128,-1,1
 699 103 699 103 626 53 c 128,-1,2
 553 3 553 3 460 -9 c 1,3,-1
 460 -120 l 1,4,-1
 344 -120 l 1,5,-1
 344 -9 l 1,6,7
 251 3 251 3 178 53 c 128,-1,8
 105 103 105 103 64 180.5 c 128,-1,9
 23 258 23 258 23 352 c 0,10,11
 23 454 23 454 72.5 536 c 128,-1,12
 122 618 122 618 208.5 665 c 128,-1,13
 295 712 295 712 402 712 c 256,14,15
 509 712 509 712 595.5 665 c 128,-1,16
 682 618 682 618 731.5 536 c 128,-1,17
 781 454 781 454 781 352 c 0,18,0
 781 259 781 259 740 181 c 128,-1,1
556 225.5 m 128,-1,20
 593 280 593 280 593 351 c 0,21,22
 593 408 593 408 568 455.5 c 128,-1,23
 543 503 543 503 499.5 530 c 128,-1,24
 456 557 456 557 404 557 c 256,25,26
 352 557 352 557 307.5 530 c 128,-1,27
 263 503 263 503 237 455.5 c 128,-1,28
 211 408 211 408 211 351 c 0,29,30
 211 282 211 282 248.5 228 c 128,-1,31
 286 174 286 174 344 153 c 1,32,-1
 344 295 l 1,33,-1
 460 295 l 1,34,-1
 460 152 l 1,35,19
 519 171 519 171 556 225.5 c 128,-1,20
EndSplineSet
EndChar

StartChar: uni018F.ss01
Encoding: 65634 -1 805
Width: 773
Flags: W
LayerCount: 2
Fore
SplineSet
564.5 665 m 128,-1,1
 648 618 648 618 696 536 c 128,-1,2
 744 454 744 454 744 352 c 0,3,4
 744 249 744 249 696 166 c 128,-1,5
 648 83 648 83 564.5 35 c 128,-1,6
 481 -13 481 -13 378 -13 c 0,7,8
 280 -13 280 -13 206.5 25 c 128,-1,9
 133 63 133 63 88 125.5 c 128,-1,10
 43 188 43 188 24 263 c 1,11,-1
 531 465 l 1,12,13
 507 508 507 508 467 532.5 c 128,-1,14
 427 557 427 557 380 557 c 0,15,16
 330 557 330 557 287.5 532 c 128,-1,17
 245 507 245 507 219 465 c 1,18,-1
 92 594 l 1,19,20
 144 651 144 651 216.5 681.5 c 128,-1,21
 289 712 289 712 378 712 c 0,22,0
 481 712 481 712 564.5 665 c 128,-1,1
475.5 170.5 m 128,-1,24
 516 198 516 198 537.5 244.5 c 128,-1,25
 559 291 559 291 559 348 c 2,26,-1
 559 349 l 1,27,-1
 234 219 l 1,28,29
 257 185 257 185 294 164 c 128,-1,30
 331 143 331 143 380 143 c 0,31,23
 435 143 435 143 475.5 170.5 c 128,-1,24
EndSplineSet
EndChar

StartChar: T.ss01
Encoding: 65635 -1 806
Width: 687
Flags: W
LayerCount: 2
Fore
SplineSet
611 491 m 1,0,1
 531 533 531 533 431 548 c 1,2,-1
 431 0 l 1,3,-1
 248 0 l 1,4,-1
 248 548 l 1,5,6
 150 534 150 534 68 491 c 1,7,-1
 17 633 l 1,8,9
 87 671 87 671 169.5 691.5 c 128,-1,10
 252 712 252 712 338 712 c 0,11,12
 425 712 425 712 508 691.5 c 128,-1,13
 591 671 591 671 662 632 c 1,14,-1
 611 491 l 1,0,1
EndSplineSet
EndChar

StartChar: Tbar.ss01
Encoding: 65636 -1 807
Width: 687
Flags: W
LayerCount: 2
Fore
SplineSet
431 548 m 1,1,-1
 431 361 l 1,2,-1
 558 361 l 1,3,-1
 558 263 l 1,4,-1
 431 263 l 1,5,-1
 431 0 l 1,6,-1
 248 0 l 1,7,-1
 248 263 l 1,8,-1
 120 263 l 1,9,-1
 120 361 l 1,10,-1
 248 361 l 1,11,-1
 248 548 l 1,12,13
 150 534 150 534 68 491 c 1,14,-1
 17 633 l 1,15,16
 87 671 87 671 169.5 691.5 c 128,-1,17
 252 712 252 712 338 712 c 0,18,19
 425 712 425 712 508 691.5 c 128,-1,20
 591 671 591 671 662 632 c 1,21,-1
 611 491 l 1,22,0
 531 533 531 533 431 548 c 1,1,-1
EndSplineSet
EndChar

StartChar: uni0162.ss01
Encoding: 65638 -1 809
Width: 687
Flags: W
LayerCount: 2
Fore
SplineSet
397 0 m 1,0,-1
 377 -56 l 1,1,2
 419 -65 419 -65 439 -86.5 c 128,-1,3
 459 -108 459 -108 459 -137 c 0,4,5
 459 -185 459 -185 422.5 -209.5 c 128,-1,6
 386 -234 386 -234 331 -234 c 256,7,8
 276 -234 276 -234 221 -214 c 1,9,-1
 249 -134 l 1,10,11
 272 -143 272 -143 300 -143 c 0,12,13
 318 -143 318 -143 329 -137 c 128,-1,14
 340 -131 340 -131 340 -121 c 0,15,16
 340 -110 340 -110 325 -104 c 128,-1,17
 310 -98 310 -98 287 -98 c 2,18,-1
 263 -98 l 1,19,-1
 295 0 l 1,20,-1
 248 0 l 1,21,-1
 248 548 l 1,22,23
 150 534 150 534 68 491 c 1,24,-1
 17 633 l 1,25,26
 87 671 87 671 169.5 691.5 c 128,-1,27
 252 712 252 712 338 712 c 0,28,29
 425 712 425 712 508 691.5 c 128,-1,30
 591 671 591 671 662 632 c 1,31,-1
 611 491 l 1,32,33
 531 533 531 533 431 548 c 1,34,-1
 431 0 l 1,35,-1
 397 0 l 1,0,-1
EndSplineSet
EndChar

StartChar: U.ss01
Encoding: 65642 -1 813
Width: 764
Flags: W
LayerCount: 2
Fore
SplineSet
696 701 m 1,0,-1
 696 0 l 1,1,-1
 513 0 l 1,2,-1
 513 103 l 1,3,4
 477 48 477 48 421 17.5 c 128,-1,5
 365 -13 365 -13 295 -13 c 0,6,7
 224 -13 224 -13 170 20 c 128,-1,8
 116 53 116 53 86 112.5 c 128,-1,9
 56 172 56 172 56 251 c 2,10,-1
 56 701 l 1,11,-1
 241 701 l 1,12,-1
 241 295 l 2,13,14
 241 232 241 232 275 193.5 c 128,-1,15
 309 155 309 155 365 155 c 0,16,17
 431 155 431 155 472 201 c 128,-1,18
 513 247 513 247 513 318 c 2,19,-1
 513 701 l 1,20,-1
 696 701 l 1,0,-1
EndSplineSet
EndChar

StartChar: Udieresis.alt
Encoding: 65647 -1 818
Width: 749
Flags: W
LayerCount: 2
Fore
SplineSet
417.5 686 m 128,-1,1
 435 668 435 668 435 640 c 256,2,3
 435 612 435 612 417.5 594 c 128,-1,4
 400 576 400 576 373 576 c 0,5,6
 345 576 345 576 327 594 c 128,-1,7
 309 612 309 612 309 640 c 0,8,9
 309 669 309 669 327 686.5 c 128,-1,10
 345 704 345 704 373 704 c 0,11,0
 400 704 400 704 417.5 686 c 128,-1,1
278 183 m 128,-1,13
 317 143 317 143 377 143 c 0,14,15
 436 143 436 143 472.5 182.5 c 128,-1,16
 509 222 509 222 509 289 c 2,17,-1
 509 701 l 1,18,-1
 692 701 l 1,19,-1
 692 289 l 2,20,21
 692 198 692 198 653.5 129.5 c 128,-1,22
 615 61 615 61 543.5 24 c 128,-1,23
 472 -13 472 -13 376 -13 c 256,24,25
 280 -13 280 -13 207.5 24 c 128,-1,26
 135 61 135 61 95.5 129.5 c 128,-1,27
 56 198 56 198 56 289 c 2,28,-1
 56 701 l 1,29,-1
 239 701 l 1,30,-1
 239 289 l 2,31,12
 239 223 239 223 278 183 c 128,-1,13
417.5 506 m 128,-1,33
 435 488 435 488 435 460 c 256,34,35
 435 432 435 432 417.5 413.5 c 128,-1,36
 400 395 400 395 372 395 c 256,37,38
 344 395 344 395 326.5 413.5 c 128,-1,39
 309 432 309 432 309 460 c 256,40,41
 309 488 309 488 326.5 506 c 128,-1,42
 344 524 344 524 372 524 c 256,43,32
 400 524 400 524 417.5 506 c 128,-1,33
EndSplineSet
EndChar

StartChar: Udieresis.ss01.alt
Encoding: 65649 -1 820
Width: 764
Flags: W
LayerCount: 2
Fore
SplineSet
331.5 594 m 128,-1,1
 314 612 314 612 314 640 c 256,2,3
 314 668 314 668 331.5 686 c 128,-1,4
 349 704 349 704 377 704 c 256,5,6
 405 704 405 704 422.5 686 c 128,-1,7
 440 668 440 668 440 640 c 256,8,9
 440 612 440 612 422.5 594 c 128,-1,10
 405 576 405 576 377 576 c 256,11,0
 349 576 349 576 331.5 594 c 128,-1,1
696 701 m 1,12,-1
 696 0 l 1,13,-1
 513 0 l 1,14,-1
 513 103 l 1,15,16
 477 48 477 48 421 17.5 c 128,-1,17
 365 -13 365 -13 295 -13 c 0,18,19
 224 -13 224 -13 170 20 c 128,-1,20
 116 53 116 53 86 112.5 c 128,-1,21
 56 172 56 172 56 251 c 2,22,-1
 56 701 l 1,23,-1
 241 701 l 1,24,-1
 241 295 l 2,25,26
 241 232 241 232 275 193.5 c 128,-1,27
 309 155 309 155 365 155 c 0,28,29
 431 155 431 155 472 201 c 128,-1,30
 513 247 513 247 513 318 c 2,31,-1
 513 701 l 1,32,-1
 696 701 l 1,12,-1
331.5 413.5 m 128,-1,34
 314 432 314 432 314 460 c 256,35,36
 314 488 314 488 331.5 506 c 128,-1,37
 349 524 349 524 377 524 c 256,38,39
 405 524 405 524 422.5 506 c 128,-1,40
 440 488 440 488 440 460 c 256,41,42
 440 432 440 432 422.5 413.5 c 128,-1,43
 405 395 405 395 377 395 c 256,44,33
 349 395 349 395 331.5 413.5 c 128,-1,34
EndSplineSet
EndChar

StartChar: Uhorn.ss01
Encoding: 65653 -1 824
Width: 804
Flags: W
LayerCount: 2
Fore
SplineSet
821 752 m 0,1,2
 821 698 821 698 789 663 c 128,-1,3
 757 628 757 628 696 614 c 1,4,-1
 696 0 l 1,5,-1
 513 0 l 1,6,-1
 513 103 l 1,7,8
 477 48 477 48 421 17.5 c 128,-1,9
 365 -13 365 -13 295 -13 c 0,10,11
 224 -13 224 -13 170 20 c 128,-1,12
 116 53 116 53 86 112.5 c 128,-1,13
 56 172 56 172 56 251 c 2,14,-1
 56 701 l 1,15,-1
 241 701 l 1,16,-1
 241 295 l 2,17,18
 241 232 241 232 275 193.5 c 128,-1,19
 309 155 309 155 365 155 c 0,20,21
 431 155 431 155 472 201 c 128,-1,22
 513 247 513 247 513 318 c 2,23,-1
 513 701 l 1,24,-1
 632 701 l 2,25,26
 661 701 661 701 675.5 715 c 128,-1,27
 690 729 690 729 690 752 c 0,28,29
 690 777 690 777 674 803 c 1,30,-1
 799 850 l 1,31,0
 821 797 821 797 821 752 c 0,1,2
EndSplineSet
EndChar

